<?xml version="1.0" encoding="UTF-8" standalone="no"?>
<!DOCTYPE svg PUBLIC "-//W3C//DTD SVG 1.1//EN"
 "http://www.w3.org/Graphics/SVG/1.1/DTD/svg11.dtd">
<!-- Generated by graphviz version 2.43.0 (0)
 -->
<!-- Title: src/devices/lcec_el7411.c Pages: 1 -->
<svg width="574pt" height="364pt"
 viewBox="0.00 0.00 573.50 364.00" xmlns="http://www.w3.org/2000/svg" xmlns:xlink="http://www.w3.org/1999/xlink">
<g id="graph0" class="graph" transform="scale(1 1) rotate(0) translate(4 360)">
<title>src/devices/lcec_el7411.c</title>
<polygon fill="white" stroke="transparent" points="-4,4 -4,-360 569.5,-360 569.5,4 -4,4"/>
<!-- Node1 -->
<g id="node1" class="node">
<title>Node1</title>
<g id="a_node1"><a xlink:title="Driver for Beckhoff EL7411 Stepper Drives.">
<polygon fill="#bfbfbf" stroke="black" points="0,-336.5 0,-355.5 140,-355.5 140,-336.5 0,-336.5"/>
<text text-anchor="middle" x="70" y="-343.5" font-family="Helvetica,sans-Serif" font-size="10.00">src/devices/lcec_el7411.c</text>
</a>
</g>
</g>
<!-- Node2 -->
<g id="node2" class="node">
<title>Node2</title>
<g id="a_node2"><a xlink:title=" ">
<polygon fill="white" stroke="#bfbfbf" points="20.5,-56.5 20.5,-75.5 61.5,-75.5 61.5,-56.5 20.5,-56.5"/>
<text text-anchor="middle" x="41" y="-63.5" font-family="Helvetica,sans-Serif" font-size="10.00">hal.h</text>
</a>
</g>
</g>
<!-- Node1&#45;&gt;Node2 -->
<g id="edge1" class="edge">
<title>Node1&#45;&gt;Node2</title>
<path fill="none" stroke="midnightblue" d="M60.11,-336.4C41.48,-319.18 3,-278.38 3,-235 3,-235 3,-235 3,-177 3,-142.81 19.6,-105.76 30.86,-84.57"/>
<polygon fill="midnightblue" stroke="midnightblue" points="33.95,-86.22 35.72,-75.77 27.82,-82.83 33.95,-86.22"/>
</g>
<!-- Node3 -->
<g id="node3" class="node">
<title>Node3</title>
<g id="a_node3"><a xlink:href="lcec_8h.html" target="_top" xlink:title="Header file for LinuxCNC&#45;Ethercat.">
<polygon fill="white" stroke="black" points="162,-168.5 162,-187.5 216,-187.5 216,-168.5 162,-168.5"/>
<text text-anchor="middle" x="189" y="-175.5" font-family="Helvetica,sans-Serif" font-size="10.00">../lcec.h</text>
</a>
</g>
</g>
<!-- Node1&#45;&gt;Node3 -->
<g id="edge2" class="edge">
<title>Node1&#45;&gt;Node3</title>
<path fill="none" stroke="midnightblue" d="M71.31,-336.11C73.51,-323.12 78.73,-298.5 89,-280 109.17,-243.65 146.1,-211.4 169,-193.6"/>
<polygon fill="midnightblue" stroke="midnightblue" points="171.18,-196.34 177.02,-187.5 166.94,-190.77 171.18,-196.34"/>
</g>
<!-- Node18 -->
<g id="node18" class="node">
<title>Node18</title>
<g id="a_node18"><a xlink:href="lcec__el7411_8h.html" target="_top" xlink:title="Driver for Beckhoff EL7411 Stepper Drives.">
<polygon fill="white" stroke="black" points="98.5,-280.5 98.5,-299.5 181.5,-299.5 181.5,-280.5 98.5,-280.5"/>
<text text-anchor="middle" x="140" y="-287.5" font-family="Helvetica,sans-Serif" font-size="10.00">lcec_el7411.h</text>
</a>
</g>
</g>
<!-- Node1&#45;&gt;Node18 -->
<g id="edge20" class="edge">
<title>Node1&#45;&gt;Node18</title>
<path fill="none" stroke="midnightblue" d="M81.25,-336.32C91.8,-328.18 107.8,-315.84 120.44,-306.09"/>
<polygon fill="midnightblue" stroke="midnightblue" points="122.77,-308.71 128.55,-299.83 118.49,-303.17 122.77,-308.71"/>
</g>
<!-- Node3&#45;&gt;Node2 -->
<g id="edge4" class="edge">
<title>Node3&#45;&gt;Node2</title>
<path fill="none" stroke="midnightblue" d="M161.91,-174.74C132.75,-170.87 86.96,-160.37 60,-132 48.24,-119.62 43.71,-100.38 41.99,-86.04"/>
<polygon fill="midnightblue" stroke="midnightblue" points="45.46,-85.48 41.13,-75.81 38.48,-86.07 45.46,-85.48"/>
</g>
<!-- Node4 -->
<g id="node4" class="node">
<title>Node4</title>
<g id="a_node4"><a xlink:title=" ">
<polygon fill="white" stroke="#bfbfbf" points="83,-56.5 83,-75.5 127,-75.5 127,-56.5 83,-56.5"/>
<text text-anchor="middle" x="105" y="-63.5" font-family="Helvetica,sans-Serif" font-size="10.00">ecrt.h</text>
</a>
</g>
</g>
<!-- Node3&#45;&gt;Node4 -->
<g id="edge3" class="edge">
<title>Node3&#45;&gt;Node4</title>
<path fill="none" stroke="midnightblue" d="M184.4,-168.19C177.49,-155.3 163.68,-130.8 149,-112 140.87,-101.58 130.59,-90.96 122.02,-82.66"/>
<polygon fill="midnightblue" stroke="midnightblue" points="124.4,-80.09 114.74,-75.75 119.59,-85.17 124.4,-80.09"/>
</g>
<!-- Node5 -->
<g id="node5" class="node">
<title>Node5</title>
<g id="a_node5"><a xlink:href="lcec__conf_8h.html" target="_top" xlink:title=" ">
<polygon fill="white" stroke="black" points="69.5,-112.5 69.5,-131.5 140.5,-131.5 140.5,-112.5 69.5,-112.5"/>
<text text-anchor="middle" x="105" y="-119.5" font-family="Helvetica,sans-Serif" font-size="10.00">lcec_conf.h</text>
</a>
</g>
</g>
<!-- Node3&#45;&gt;Node5 -->
<g id="edge5" class="edge">
<title>Node3&#45;&gt;Node5</title>
<path fill="none" stroke="midnightblue" d="M175.5,-168.32C162.4,-159.9 142.29,-146.97 126.89,-137.07"/>
<polygon fill="midnightblue" stroke="midnightblue" points="128.77,-134.12 118.46,-131.65 124.98,-140.01 128.77,-134.12"/>
</g>
<!-- Node6 -->
<g id="node6" class="node">
<title>Node6</title>
<g id="a_node6"><a xlink:href="lcec__rtapi_8h.html" target="_top" xlink:title=" ">
<polygon fill="white" stroke="black" points="197.5,-112.5 197.5,-131.5 270.5,-131.5 270.5,-112.5 197.5,-112.5"/>
<text text-anchor="middle" x="234" y="-119.5" font-family="Helvetica,sans-Serif" font-size="10.00">lcec_rtapi.h</text>
</a>
</g>
</g>
<!-- Node3&#45;&gt;Node6 -->
<g id="edge8" class="edge">
<title>Node3&#45;&gt;Node6</title>
<path fill="none" stroke="midnightblue" d="M196.43,-168.08C202.85,-160.38 212.31,-149.03 220.12,-139.65"/>
<polygon fill="midnightblue" stroke="midnightblue" points="222.99,-141.67 226.71,-131.75 217.62,-137.19 222.99,-141.67"/>
</g>
<!-- Node15 -->
<g id="node15" class="node">
<title>Node15</title>
<g id="a_node15"><a xlink:title=" ">
<polygon fill="white" stroke="#bfbfbf" points="289,-112.5 289,-131.5 369,-131.5 369,-112.5 289,-112.5"/>
<text text-anchor="middle" x="329" y="-119.5" font-family="Helvetica,sans-Serif" font-size="10.00">rtapi_ctype.h</text>
</a>
</g>
</g>
<!-- Node3&#45;&gt;Node15 -->
<g id="edge17" class="edge">
<title>Node3&#45;&gt;Node15</title>
<path fill="none" stroke="midnightblue" d="M211.18,-168.44C234.43,-159.48 271.15,-145.31 297.42,-135.18"/>
<polygon fill="midnightblue" stroke="midnightblue" points="298.85,-138.38 306.92,-131.52 296.33,-131.85 298.85,-138.38"/>
</g>
<!-- Node16 -->
<g id="node16" class="node">
<title>Node16</title>
<g id="a_node16"><a xlink:title=" ">
<polygon fill="white" stroke="#bfbfbf" points="387.5,-112.5 387.5,-131.5 466.5,-131.5 466.5,-112.5 387.5,-112.5"/>
<text text-anchor="middle" x="427" y="-119.5" font-family="Helvetica,sans-Serif" font-size="10.00">rtapi_math.h</text>
</a>
</g>
</g>
<!-- Node3&#45;&gt;Node16 -->
<g id="edge18" class="edge">
<title>Node3&#45;&gt;Node16</title>
<path fill="none" stroke="midnightblue" d="M216.3,-170.81C256.08,-161.78 330.56,-144.88 379.46,-133.79"/>
<polygon fill="midnightblue" stroke="midnightblue" points="380.51,-137.14 389.49,-131.51 378.96,-130.31 380.51,-137.14"/>
</g>
<!-- Node17 -->
<g id="node17" class="node">
<title>Node17</title>
<g id="a_node17"><a xlink:title=" ">
<polygon fill="white" stroke="#bfbfbf" points="484.5,-112.5 484.5,-131.5 565.5,-131.5 565.5,-112.5 484.5,-112.5"/>
<text text-anchor="middle" x="525" y="-119.5" font-family="Helvetica,sans-Serif" font-size="10.00">rtapi_string.h</text>
</a>
</g>
</g>
<!-- Node3&#45;&gt;Node17 -->
<g id="edge19" class="edge">
<title>Node3&#45;&gt;Node17</title>
<path fill="none" stroke="midnightblue" d="M216.34,-172.96C265.78,-165.59 373.54,-149.3 474.33,-132.25"/>
<polygon fill="midnightblue" stroke="midnightblue" points="475.1,-135.67 484.37,-130.55 473.93,-128.77 475.1,-135.67"/>
</g>
<!-- Node5&#45;&gt;Node2 -->
<g id="edge7" class="edge">
<title>Node5&#45;&gt;Node2</title>
<path fill="none" stroke="midnightblue" d="M94.72,-112.32C85.16,-104.26 70.72,-92.08 59.22,-82.37"/>
<polygon fill="midnightblue" stroke="midnightblue" points="61.37,-79.61 51.47,-75.83 56.86,-84.96 61.37,-79.61"/>
</g>
<!-- Node5&#45;&gt;Node4 -->
<g id="edge6" class="edge">
<title>Node5&#45;&gt;Node4</title>
<path fill="none" stroke="midnightblue" d="M105,-112.08C105,-105.01 105,-94.86 105,-85.99"/>
<polygon fill="midnightblue" stroke="midnightblue" points="108.5,-85.75 105,-75.75 101.5,-85.75 108.5,-85.75"/>
</g>
<!-- Node7 -->
<g id="node7" class="node">
<title>Node7</title>
<g id="a_node7"><a xlink:title=" ">
<polygon fill="white" stroke="#bfbfbf" points="145,-56.5 145,-75.5 193,-75.5 193,-56.5 145,-56.5"/>
<text text-anchor="middle" x="169" y="-63.5" font-family="Helvetica,sans-Serif" font-size="10.00">rtapi.h</text>
</a>
</g>
</g>
<!-- Node6&#45;&gt;Node7 -->
<g id="edge9" class="edge">
<title>Node6&#45;&gt;Node7</title>
<path fill="none" stroke="midnightblue" d="M223.56,-112.32C213.85,-104.26 199.18,-92.08 187.5,-82.37"/>
<polygon fill="midnightblue" stroke="midnightblue" points="189.56,-79.53 179.63,-75.83 185.09,-84.92 189.56,-79.53"/>
</g>
<!-- Node8 -->
<g id="node8" class="node">
<title>Node8</title>
<g id="a_node8"><a xlink:title=" ">
<polygon fill="white" stroke="#bfbfbf" points="211.5,-56.5 211.5,-75.5 292.5,-75.5 292.5,-56.5 211.5,-56.5"/>
<text text-anchor="middle" x="252" y="-63.5" font-family="Helvetica,sans-Serif" font-size="10.00">rtapi_stdint.h</text>
</a>
</g>
</g>
<!-- Node6&#45;&gt;Node8 -->
<g id="edge10" class="edge">
<title>Node6&#45;&gt;Node8</title>
<path fill="none" stroke="midnightblue" d="M236.97,-112.08C239.38,-104.85 242.86,-94.41 245.87,-85.4"/>
<polygon fill="midnightblue" stroke="midnightblue" points="249.24,-86.34 249.08,-75.75 242.6,-84.13 249.24,-86.34"/>
</g>
<!-- Node9 -->
<g id="node9" class="node">
<title>Node9</title>
<g id="a_node9"><a xlink:href="lcec__rtapi__user_8h.html" target="_top" xlink:title=" ">
<polygon fill="white" stroke="black" points="311,-56.5 311,-75.5 409,-75.5 409,-56.5 311,-56.5"/>
<text text-anchor="middle" x="360" y="-63.5" font-family="Helvetica,sans-Serif" font-size="10.00">lcec_rtapi_user.h</text>
</a>
</g>
</g>
<!-- Node6&#45;&gt;Node9 -->
<g id="edge11" class="edge">
<title>Node6&#45;&gt;Node9</title>
<path fill="none" stroke="midnightblue" d="M253.97,-112.44C274.61,-103.6 307.06,-89.69 330.63,-79.59"/>
<polygon fill="midnightblue" stroke="midnightblue" points="332.32,-82.67 340.13,-75.52 329.56,-76.24 332.32,-82.67"/>
</g>
<!-- Node10 -->
<g id="node10" class="node">
<title>Node10</title>
<g id="a_node10"><a xlink:title=" ">
<polygon fill="white" stroke="#bfbfbf" points="190,-0.5 190,-19.5 244,-19.5 244,-0.5 190,-0.5"/>
<text text-anchor="middle" x="217" y="-7.5" font-family="Helvetica,sans-Serif" font-size="10.00">sched.h</text>
</a>
</g>
</g>
<!-- Node9&#45;&gt;Node10 -->
<g id="edge12" class="edge">
<title>Node9&#45;&gt;Node10</title>
<path fill="none" stroke="midnightblue" d="M337.34,-56.44C313.6,-47.48 276.09,-33.31 249.26,-23.18"/>
<polygon fill="midnightblue" stroke="midnightblue" points="250.14,-19.77 239.55,-19.52 247.67,-26.32 250.14,-19.77"/>
</g>
<!-- Node11 -->
<g id="node11" class="node">
<title>Node11</title>
<g id="a_node11"><a xlink:title=" ">
<polygon fill="white" stroke="#bfbfbf" points="262.5,-0.5 262.5,-19.5 315.5,-19.5 315.5,-0.5 262.5,-0.5"/>
<text text-anchor="middle" x="289" y="-7.5" font-family="Helvetica,sans-Serif" font-size="10.00">stdlib.h</text>
</a>
</g>
</g>
<!-- Node9&#45;&gt;Node11 -->
<g id="edge13" class="edge">
<title>Node9&#45;&gt;Node11</title>
<path fill="none" stroke="midnightblue" d="M348.59,-56.32C337.89,-48.18 321.66,-35.84 308.84,-26.09"/>
<polygon fill="midnightblue" stroke="midnightblue" points="310.69,-23.1 300.61,-19.83 306.46,-28.67 310.69,-23.1"/>
</g>
<!-- Node12 -->
<g id="node12" class="node">
<title>Node12</title>
<g id="a_node12"><a xlink:title=" ">
<polygon fill="white" stroke="#bfbfbf" points="333.5,-0.5 333.5,-19.5 386.5,-19.5 386.5,-0.5 333.5,-0.5"/>
<text text-anchor="middle" x="360" y="-7.5" font-family="Helvetica,sans-Serif" font-size="10.00">string.h</text>
</a>
</g>
</g>
<!-- Node9&#45;&gt;Node12 -->
<g id="edge14" class="edge">
<title>Node9&#45;&gt;Node12</title>
<path fill="none" stroke="midnightblue" d="M360,-56.08C360,-49.01 360,-38.86 360,-29.99"/>
<polygon fill="midnightblue" stroke="midnightblue" points="363.5,-29.75 360,-19.75 356.5,-29.75 363.5,-29.75"/>
</g>
<!-- Node13 -->
<g id="node13" class="node">
<title>Node13</title>
<g id="a_node13"><a xlink:title=" ">
<polygon fill="white" stroke="#bfbfbf" points="405,-0.5 405,-19.5 473,-19.5 473,-0.5 405,-0.5"/>
<text text-anchor="middle" x="439" y="-7.5" font-family="Helvetica,sans-Serif" font-size="10.00">sys/time.h</text>
</a>
</g>
</g>
<!-- Node9&#45;&gt;Node13 -->
<g id="edge15" class="edge">
<title>Node9&#45;&gt;Node13</title>
<path fill="none" stroke="midnightblue" d="M372.69,-56.32C384.9,-47.98 403.58,-35.21 418,-25.35"/>
<polygon fill="midnightblue" stroke="midnightblue" points="420.06,-28.19 426.34,-19.65 416.11,-22.41 420.06,-28.19"/>
</g>
<!-- Node14 -->
<g id="node14" class="node">
<title>Node14</title>
<g id="a_node14"><a xlink:title=" ">
<polygon fill="white" stroke="#bfbfbf" points="491,-0.5 491,-19.5 539,-19.5 539,-0.5 491,-0.5"/>
<text text-anchor="middle" x="515" y="-7.5" font-family="Helvetica,sans-Serif" font-size="10.00">time.h</text>
</a>
</g>
</g>
<!-- Node9&#45;&gt;Node14 -->
<g id="edge16" class="edge">
<title>Node9&#45;&gt;Node14</title>
<path fill="none" stroke="midnightblue" d="M384.56,-56.44C410.6,-47.37 451.91,-32.98 481.05,-22.83"/>
<polygon fill="midnightblue" stroke="midnightblue" points="482.52,-26.02 490.81,-19.43 480.22,-19.41 482.52,-26.02"/>
</g>
<!-- Node18&#45;&gt;Node3 -->
<g id="edge21" class="edge">
<title>Node18&#45;&gt;Node3</title>
<path fill="none" stroke="midnightblue" d="M139.64,-280.14C139.45,-267.19 140.41,-242.62 149,-224 154.06,-213.04 162.69,-202.81 170.65,-194.88"/>
<polygon fill="midnightblue" stroke="midnightblue" points="173.32,-197.17 178.22,-187.78 168.53,-192.06 173.32,-197.17"/>
</g>
<!-- Node19 -->
<g id="node19" class="node">
<title>Node19</title>
<g id="a_node19"><a xlink:href="lcec__el7211_8h.html" target="_top" xlink:title="Driver for Beckhoff EL7211 Servo drives.">
<polygon fill="white" stroke="black" points="158.5,-224.5 158.5,-243.5 241.5,-243.5 241.5,-224.5 158.5,-224.5"/>
<text text-anchor="middle" x="200" y="-231.5" font-family="Helvetica,sans-Serif" font-size="10.00">lcec_el7211.h</text>
</a>
</g>
</g>
<!-- Node18&#45;&gt;Node19 -->
<g id="edge22" class="edge">
<title>Node18&#45;&gt;Node19</title>
<path fill="none" stroke="midnightblue" d="M149.64,-280.32C158.51,-272.34 171.87,-260.31 182.61,-250.65"/>
<polygon fill="midnightblue" stroke="midnightblue" points="185.09,-253.13 190.18,-243.83 180.41,-247.92 185.09,-253.13"/>
</g>
<!-- Node19&#45;&gt;Node3 -->
<g id="edge23" class="edge">
<title>Node19&#45;&gt;Node3</title>
<path fill="none" stroke="midnightblue" d="M198.18,-224.08C196.73,-216.93 194.63,-206.64 192.81,-197.69"/>
<polygon fill="midnightblue" stroke="midnightblue" points="196.21,-196.85 190.78,-187.75 189.35,-198.25 196.21,-196.85"/>
</g>
</g>
</svg>
