<?xml version="1.0" encoding="UTF-8" standalone="no"?>
<!DOCTYPE svg PUBLIC "-//W3C//DTD SVG 1.1//EN"
 "http://www.w3.org/Graphics/SVG/1.1/DTD/svg11.dtd">
<!-- Generated by graphviz version 2.43.0 (0)
 -->
<!-- Title: src/devices/lcec_class_dout.h Pages: 1 -->
<svg width="448pt" height="106pt"
 viewBox="0.00 0.00 448.00 106.00" xmlns="http://www.w3.org/2000/svg" xmlns:xlink="http://www.w3.org/1999/xlink">
<g id="graph0" class="graph" transform="scale(1 1) rotate(0) translate(4 102)">
<title>src/devices/lcec_class_dout.h</title>
<polygon fill="white" stroke="transparent" points="-4,4 -4,-102 444,-102 444,4 -4,4"/>
<!-- Node1 -->
<g id="node1" class="node">
<title>Node1</title>
<g id="a_node1"><a xlink:title="Library for digital output devices.">
<polygon fill="#bfbfbf" stroke="black" points="150,-67.5 150,-97.5 274,-97.5 274,-67.5 150,-67.5"/>
<text text-anchor="start" x="158" y="-85.5" font-family="Helvetica,sans-Serif" font-size="10.00">src/devices/lcec_class</text>
<text text-anchor="middle" x="212" y="-74.5" font-family="Helvetica,sans-Serif" font-size="10.00">_dout.h</text>
</a>
</g>
</g>
<!-- Node2 -->
<g id="node2" class="node">
<title>Node2</title>
<g id="a_node2"><a xlink:href="lcec__class__dout_8c.html" target="_top" xlink:title="Library for digital output devices.">
<polygon fill="white" stroke="black" points="0,-0.5 0,-30.5 124,-30.5 124,-0.5 0,-0.5"/>
<text text-anchor="start" x="8" y="-18.5" font-family="Helvetica,sans-Serif" font-size="10.00">src/devices/lcec_class</text>
<text text-anchor="middle" x="62" y="-7.5" font-family="Helvetica,sans-Serif" font-size="10.00">_dout.c</text>
</a>
</g>
</g>
<!-- Node1&#45;&gt;Node2 -->
<g id="edge1" class="edge">
<title>Node1&#45;&gt;Node2</title>
<path fill="none" stroke="midnightblue" d="M170.25,-63.41C146.3,-53.03 116.68,-40.2 94.48,-30.58"/>
<polygon fill="midnightblue" stroke="midnightblue" points="168.89,-66.63 179.45,-67.4 171.67,-60.21 168.89,-66.63"/>
</g>
<!-- Node3 -->
<g id="node3" class="node">
<title>Node3</title>
<g id="a_node3"><a xlink:href="lcec__el1859_8c.html" target="_top" xlink:title="Driver for Beckhoff EL1859 and related digital input/output modules.">
<polygon fill="white" stroke="black" points="142,-6 142,-25 282,-25 282,-6 142,-6"/>
<text text-anchor="middle" x="212" y="-13" font-family="Helvetica,sans-Serif" font-size="10.00">src/devices/lcec_el1859.c</text>
</a>
</g>
</g>
<!-- Node1&#45;&gt;Node3 -->
<g id="edge2" class="edge">
<title>Node1&#45;&gt;Node3</title>
<path fill="none" stroke="midnightblue" d="M212,-57.25C212,-46.02 212,-33.38 212,-25.19"/>
<polygon fill="midnightblue" stroke="midnightblue" points="208.5,-57.4 212,-67.4 215.5,-57.4 208.5,-57.4"/>
</g>
<!-- Node4 -->
<g id="node4" class="node">
<title>Node4</title>
<g id="a_node4"><a xlink:href="lcec__el2xxx_8c.html" target="_top" xlink:title="Driver for Beckhoff EL2xxx Digital output modules.">
<polygon fill="white" stroke="black" points="300,-6 300,-25 440,-25 440,-6 300,-6"/>
<text text-anchor="middle" x="370" y="-13" font-family="Helvetica,sans-Serif" font-size="10.00">src/devices/lcec_el2xxx.c</text>
</a>
</g>
</g>
<!-- Node1&#45;&gt;Node4 -->
<g id="edge3" class="edge">
<title>Node1&#45;&gt;Node4</title>
<path fill="none" stroke="midnightblue" d="M255.85,-63.46C286.38,-50.9 325.7,-34.72 349.32,-25.01"/>
<polygon fill="midnightblue" stroke="midnightblue" points="254.2,-60.35 246.28,-67.4 256.86,-66.83 254.2,-60.35"/>
</g>
</g>
</svg>
