<?xml version="1.0" encoding="UTF-8" standalone="no"?>
<!DOCTYPE svg PUBLIC "-//W3C//DTD SVG 1.1//EN"
 "http://www.w3.org/Graphics/SVG/1.1/DTD/svg11.dtd">
<!-- Generated by graphviz version 2.43.0 (0)
 -->
<!-- Title: src/devices/lcec_class_din.h Pages: 1 -->
<svg width="606pt" height="106pt"
 viewBox="0.00 0.00 606.00 106.00" xmlns="http://www.w3.org/2000/svg" xmlns:xlink="http://www.w3.org/1999/xlink">
<g id="graph0" class="graph" transform="scale(1 1) rotate(0) translate(4 102)">
<title>src/devices/lcec_class_din.h</title>
<polygon fill="white" stroke="transparent" points="-4,4 -4,-102 602,-102 602,4 -4,4"/>
<!-- Node1 -->
<g id="node1" class="node">
<title>Node1</title>
<g id="a_node1"><a xlink:title="Library for digital input devices.">
<polygon fill="#bfbfbf" stroke="black" points="229,-67.5 229,-97.5 353,-97.5 353,-67.5 229,-67.5"/>
<text text-anchor="start" x="237" y="-85.5" font-family="Helvetica,sans-Serif" font-size="10.00">src/devices/lcec_class</text>
<text text-anchor="middle" x="291" y="-74.5" font-family="Helvetica,sans-Serif" font-size="10.00">_din.h</text>
</a>
</g>
</g>
<!-- Node2 -->
<g id="node2" class="node">
<title>Node2</title>
<g id="a_node2"><a xlink:href="lcec__class__din_8c.html" target="_top" xlink:title="Library for digital input devices.">
<polygon fill="white" stroke="black" points="0,-0.5 0,-30.5 124,-30.5 124,-0.5 0,-0.5"/>
<text text-anchor="start" x="8" y="-18.5" font-family="Helvetica,sans-Serif" font-size="10.00">src/devices/lcec_class</text>
<text text-anchor="middle" x="62" y="-7.5" font-family="Helvetica,sans-Serif" font-size="10.00">_din.c</text>
</a>
</g>
</g>
<!-- Node1&#45;&gt;Node2 -->
<g id="edge1" class="edge">
<title>Node1&#45;&gt;Node2</title>
<path fill="none" stroke="midnightblue" d="M231.86,-64.71C194.6,-54.14 147.03,-40.63 111.71,-30.61"/>
<polygon fill="midnightblue" stroke="midnightblue" points="231.02,-68.11 241.59,-67.48 232.93,-61.38 231.02,-68.11"/>
</g>
<!-- Node3 -->
<g id="node3" class="node">
<title>Node3</title>
<g id="a_node3"><a xlink:href="lcec__el1252_8c.html" target="_top" xlink:title="Linuxcnc and Machinekit HAL driver for Beckhoff EL1252 2&#45;channel fast digital input terminal with tim...">
<polygon fill="white" stroke="black" points="142,-6 142,-25 282,-25 282,-6 142,-6"/>
<text text-anchor="middle" x="212" y="-13" font-family="Helvetica,sans-Serif" font-size="10.00">src/devices/lcec_el1252.c</text>
</a>
</g>
</g>
<!-- Node1&#45;&gt;Node3 -->
<g id="edge2" class="edge">
<title>Node1&#45;&gt;Node3</title>
<path fill="none" stroke="midnightblue" d="M266.09,-61.01C251.43,-48.94 233.64,-34.3 222.57,-25.19"/>
<polygon fill="midnightblue" stroke="midnightblue" points="263.91,-63.75 273.86,-67.4 268.36,-58.34 263.91,-63.75"/>
</g>
<!-- Node4 -->
<g id="node4" class="node">
<title>Node4</title>
<g id="a_node4"><a xlink:href="lcec__el1859_8c.html" target="_top" xlink:title="Driver for Beckhoff EL1859 and related digital input/output modules.">
<polygon fill="white" stroke="black" points="300,-6 300,-25 440,-25 440,-6 300,-6"/>
<text text-anchor="middle" x="370" y="-13" font-family="Helvetica,sans-Serif" font-size="10.00">src/devices/lcec_el1859.c</text>
</a>
</g>
</g>
<!-- Node1&#45;&gt;Node4 -->
<g id="edge3" class="edge">
<title>Node1&#45;&gt;Node4</title>
<path fill="none" stroke="midnightblue" d="M315.91,-61.01C330.57,-48.94 348.36,-34.3 359.43,-25.19"/>
<polygon fill="midnightblue" stroke="midnightblue" points="313.64,-58.34 308.14,-67.4 318.09,-63.75 313.64,-58.34"/>
</g>
<!-- Node5 -->
<g id="node5" class="node">
<title>Node5</title>
<g id="a_node5"><a xlink:href="lcec__el1xxx_8c.html" target="_top" xlink:title="Driver for Beckhoff EL1xxx digital input modules.">
<polygon fill="white" stroke="black" points="458,-6 458,-25 598,-25 598,-6 458,-6"/>
<text text-anchor="middle" x="528" y="-13" font-family="Helvetica,sans-Serif" font-size="10.00">src/devices/lcec_el1xxx.c</text>
</a>
</g>
</g>
<!-- Node1&#45;&gt;Node5 -->
<g id="edge4" class="edge">
<title>Node1&#45;&gt;Node5</title>
<path fill="none" stroke="midnightblue" d="M351.78,-64.83C398.16,-52.11 460.16,-35.11 496.9,-25.03"/>
<polygon fill="midnightblue" stroke="midnightblue" points="350.85,-61.46 342.13,-67.48 352.7,-68.21 350.85,-61.46"/>
</g>
</g>
</svg>
