<?xml version="1.0" encoding="UTF-8" standalone="no"?>
<!DOCTYPE svg PUBLIC "-//W3C//DTD SVG 1.1//EN"
 "http://www.w3.org/Graphics/SVG/1.1/DTD/svg11.dtd">
<!-- Generated by graphviz version 2.43.0 (0)
 -->
<!-- Title: src/devices/lcec_class_ax5.h Pages: 1 -->
<svg width="536pt" height="162pt"
 viewBox="0.00 0.00 535.50 162.00" xmlns="http://www.w3.org/2000/svg" xmlns:xlink="http://www.w3.org/1999/xlink">
<g id="graph0" class="graph" transform="scale(1 1) rotate(0) translate(4 158)">
<title>src/devices/lcec_class_ax5.h</title>
<polygon fill="white" stroke="transparent" points="-4,4 -4,-158 531.5,-158 531.5,4 -4,4"/>
<!-- Node1 -->
<g id="node1" class="node">
<title>Node1</title>
<g id="a_node1"><a xlink:title="Library for Beckhoff AX5xxx controllers.">
<polygon fill="#bfbfbf" stroke="black" points="251.5,-123.5 251.5,-153.5 375.5,-153.5 375.5,-123.5 251.5,-123.5"/>
<text text-anchor="start" x="259.5" y="-141.5" font-family="Helvetica,sans-Serif" font-size="10.00">src/devices/lcec_class</text>
<text text-anchor="middle" x="313.5" y="-130.5" font-family="Helvetica,sans-Serif" font-size="10.00">_ax5.h</text>
</a>
</g>
</g>
<!-- Node2 -->
<g id="node2" class="node">
<title>Node2</title>
<g id="a_node2"><a xlink:href="lcec__ax5100_8h.html" target="_top" xlink:title="Driver for Beckhoff AX5100 Servo controllers.">
<polygon fill="white" stroke="black" points="79.5,-62 79.5,-81 223.5,-81 223.5,-62 79.5,-62"/>
<text text-anchor="middle" x="151.5" y="-69" font-family="Helvetica,sans-Serif" font-size="10.00">src/devices/lcec_ax5100.h</text>
</a>
</g>
</g>
<!-- Node1&#45;&gt;Node2 -->
<g id="edge1" class="edge">
<title>Node1&#45;&gt;Node2</title>
<path fill="none" stroke="midnightblue" d="M268.94,-119.62C237.58,-107.04 197.02,-90.77 172.7,-81.01"/>
<polygon fill="midnightblue" stroke="midnightblue" points="267.76,-122.92 278.35,-123.4 270.37,-116.42 267.76,-122.92"/>
</g>
<!-- Node5 -->
<g id="node5" class="node">
<title>Node5</title>
<g id="a_node5"><a xlink:href="lcec__ax5200_8h.html" target="_top" xlink:title="Driver for Beckhoff AX5200 Servo controllers.">
<polygon fill="white" stroke="black" points="241.5,-62 241.5,-81 385.5,-81 385.5,-62 241.5,-62"/>
<text text-anchor="middle" x="313.5" y="-69" font-family="Helvetica,sans-Serif" font-size="10.00">src/devices/lcec_ax5200.h</text>
</a>
</g>
</g>
<!-- Node1&#45;&gt;Node5 -->
<g id="edge4" class="edge">
<title>Node1&#45;&gt;Node5</title>
<path fill="none" stroke="midnightblue" d="M313.5,-113.25C313.5,-102.02 313.5,-89.38 313.5,-81.19"/>
<polygon fill="midnightblue" stroke="midnightblue" points="310,-113.4 313.5,-123.4 317,-113.4 310,-113.4"/>
</g>
<!-- Node7 -->
<g id="node7" class="node">
<title>Node7</title>
<g id="a_node7"><a xlink:href="lcec__class__ax5_8c.html" target="_top" xlink:title="Library for Beckhoff AX5xxx controllers.">
<polygon fill="white" stroke="black" points="403.5,-56.5 403.5,-86.5 527.5,-86.5 527.5,-56.5 403.5,-56.5"/>
<text text-anchor="start" x="411.5" y="-74.5" font-family="Helvetica,sans-Serif" font-size="10.00">src/devices/lcec_class</text>
<text text-anchor="middle" x="465.5" y="-63.5" font-family="Helvetica,sans-Serif" font-size="10.00">_ax5.c</text>
</a>
</g>
</g>
<!-- Node1&#45;&gt;Node7 -->
<g id="edge7" class="edge">
<title>Node1&#45;&gt;Node7</title>
<path fill="none" stroke="midnightblue" d="M355.81,-119.41C380.08,-109.03 410.09,-96.2 432.58,-86.58"/>
<polygon fill="midnightblue" stroke="midnightblue" points="354.3,-116.25 346.48,-123.4 357.05,-122.68 354.3,-116.25"/>
</g>
<!-- Node3 -->
<g id="node3" class="node">
<title>Node3</title>
<g id="a_node3"><a xlink:href="lcec__ax5100_8c.html" target="_top" xlink:title="Driver for Beckhoff AX5100 Servo controllers.">
<polygon fill="white" stroke="black" points="0,-0.5 0,-19.5 143,-19.5 143,-0.5 0,-0.5"/>
<text text-anchor="middle" x="71.5" y="-7.5" font-family="Helvetica,sans-Serif" font-size="10.00">src/devices/lcec_ax5100.c</text>
</a>
</g>
</g>
<!-- Node2&#45;&gt;Node3 -->
<g id="edge2" class="edge">
<title>Node2&#45;&gt;Node3</title>
<path fill="none" stroke="midnightblue" d="M131.73,-55.79C116.38,-44.38 95.64,-28.96 82.94,-19.51"/>
<polygon fill="midnightblue" stroke="midnightblue" points="129.93,-58.82 140.04,-61.98 134.1,-53.2 129.93,-58.82"/>
</g>
<!-- Node4 -->
<g id="node4" class="node">
<title>Node4</title>
<g id="a_node4"><a xlink:href="lcec__ax5805_8c.html" target="_top" xlink:title="Driver for Beckhoff AX5805 Servo controllers.">
<polygon fill="white" stroke="black" points="161,-0.5 161,-19.5 304,-19.5 304,-0.5 161,-0.5"/>
<text text-anchor="middle" x="232.5" y="-7.5" font-family="Helvetica,sans-Serif" font-size="10.00">src/devices/lcec_ax5805.c</text>
</a>
</g>
</g>
<!-- Node2&#45;&gt;Node4 -->
<g id="edge3" class="edge">
<title>Node2&#45;&gt;Node4</title>
<path fill="none" stroke="midnightblue" d="M171.52,-55.79C187.06,-44.38 208.05,-28.96 220.92,-19.51"/>
<polygon fill="midnightblue" stroke="midnightblue" points="169.09,-53.23 163.11,-61.98 173.24,-58.88 169.09,-53.23"/>
</g>
<!-- Node5&#45;&gt;Node4 -->
<g id="edge6" class="edge">
<title>Node5&#45;&gt;Node4</title>
<path fill="none" stroke="midnightblue" d="M293.48,-55.79C277.94,-44.38 256.95,-28.96 244.08,-19.51"/>
<polygon fill="midnightblue" stroke="midnightblue" points="291.76,-58.88 301.89,-61.98 295.91,-53.23 291.76,-58.88"/>
</g>
<!-- Node6 -->
<g id="node6" class="node">
<title>Node6</title>
<g id="a_node6"><a xlink:href="lcec__ax5200_8c.html" target="_top" xlink:title="Driver for Beckhoff AX5200 Servo controllers.">
<polygon fill="white" stroke="black" points="322,-0.5 322,-19.5 465,-19.5 465,-0.5 322,-0.5"/>
<text text-anchor="middle" x="393.5" y="-7.5" font-family="Helvetica,sans-Serif" font-size="10.00">src/devices/lcec_ax5200.c</text>
</a>
</g>
</g>
<!-- Node5&#45;&gt;Node6 -->
<g id="edge5" class="edge">
<title>Node5&#45;&gt;Node6</title>
<path fill="none" stroke="midnightblue" d="M333.27,-55.79C348.62,-44.38 369.36,-28.96 382.06,-19.51"/>
<polygon fill="midnightblue" stroke="midnightblue" points="330.9,-53.2 324.96,-61.98 335.07,-58.82 330.9,-53.2"/>
</g>
</g>
</svg>
