<?xml version="1.0" encoding="UTF-8" standalone="no"?>
<!DOCTYPE svg PUBLIC "-//W3C//DTD SVG 1.1//EN"
 "http://www.w3.org/Graphics/SVG/1.1/DTD/svg11.dtd">
<!-- Generated by graphviz version 2.43.0 (0)
 -->
<!-- Title: src/devices/lcec_el3xxx.h Pages: 1 -->
<svg width="553pt" height="252pt"
 viewBox="0.00 0.00 552.50 252.00" xmlns="http://www.w3.org/2000/svg" xmlns:xlink="http://www.w3.org/1999/xlink">
<g id="graph0" class="graph" transform="scale(1 1) rotate(0) translate(4 248)">
<title>src/devices/lcec_el3xxx.h</title>
<polygon fill="white" stroke="transparent" points="-4,4 -4,-248 548.5,-248 548.5,4 -4,4"/>
<!-- Node1 -->
<g id="node1" class="node">
<title>Node1</title>
<g id="a_node1"><a xlink:title="Driver for Beckhoff EL3xxx Analog input modules.">
<polygon fill="#bfbfbf" stroke="black" points="142.5,-224.5 142.5,-243.5 283.5,-243.5 283.5,-224.5 142.5,-224.5"/>
<text text-anchor="middle" x="213" y="-231.5" font-family="Helvetica,sans-Serif" font-size="10.00">src/devices/lcec_el3xxx.h</text>
</a>
</g>
</g>
<!-- Node2 -->
<g id="node2" class="node">
<title>Node2</title>
<g id="a_node2"><a xlink:href="lcec_8h.html" target="_top" xlink:title="Header file for LinuxCNC&#45;Ethercat.">
<polygon fill="white" stroke="black" points="186,-168.5 186,-187.5 240,-187.5 240,-168.5 186,-168.5"/>
<text text-anchor="middle" x="213" y="-175.5" font-family="Helvetica,sans-Serif" font-size="10.00">../lcec.h</text>
</a>
</g>
</g>
<!-- Node1&#45;&gt;Node2 -->
<g id="edge1" class="edge">
<title>Node1&#45;&gt;Node2</title>
<path fill="none" stroke="midnightblue" d="M213,-224.08C213,-217.01 213,-206.86 213,-197.99"/>
<polygon fill="midnightblue" stroke="midnightblue" points="216.5,-197.75 213,-187.75 209.5,-197.75 216.5,-197.75"/>
</g>
<!-- Node3 -->
<g id="node3" class="node">
<title>Node3</title>
<g id="a_node3"><a xlink:title=" ">
<polygon fill="white" stroke="#bfbfbf" points="0,-56.5 0,-75.5 44,-75.5 44,-56.5 0,-56.5"/>
<text text-anchor="middle" x="22" y="-63.5" font-family="Helvetica,sans-Serif" font-size="10.00">ecrt.h</text>
</a>
</g>
</g>
<!-- Node2&#45;&gt;Node3 -->
<g id="edge2" class="edge">
<title>Node2&#45;&gt;Node3</title>
<path fill="none" stroke="midnightblue" d="M185.98,-177.94C147.86,-177.73 78.55,-171.44 39,-132 27.01,-120.04 23.15,-100.74 22.06,-86.27"/>
<polygon fill="midnightblue" stroke="midnightblue" points="25.54,-85.8 21.67,-75.94 18.55,-86.06 25.54,-85.8"/>
</g>
<!-- Node4 -->
<g id="node4" class="node">
<title>Node4</title>
<g id="a_node4"><a xlink:title=" ">
<polygon fill="white" stroke="#bfbfbf" points="63.5,-56.5 63.5,-75.5 104.5,-75.5 104.5,-56.5 63.5,-56.5"/>
<text text-anchor="middle" x="84" y="-63.5" font-family="Helvetica,sans-Serif" font-size="10.00">hal.h</text>
</a>
</g>
</g>
<!-- Node2&#45;&gt;Node4 -->
<g id="edge3" class="edge">
<title>Node2&#45;&gt;Node4</title>
<path fill="none" stroke="midnightblue" d="M202.88,-168.37C181.02,-149.73 129.19,-105.53 101.75,-82.13"/>
<polygon fill="midnightblue" stroke="midnightblue" points="103.96,-79.42 94.08,-75.59 99.41,-84.74 103.96,-79.42"/>
</g>
<!-- Node5 -->
<g id="node5" class="node">
<title>Node5</title>
<g id="a_node5"><a xlink:href="lcec__conf_8h.html" target="_top" xlink:title=" ">
<polygon fill="white" stroke="black" points="48.5,-112.5 48.5,-131.5 119.5,-131.5 119.5,-112.5 48.5,-112.5"/>
<text text-anchor="middle" x="84" y="-119.5" font-family="Helvetica,sans-Serif" font-size="10.00">lcec_conf.h</text>
</a>
</g>
</g>
<!-- Node2&#45;&gt;Node5 -->
<g id="edge4" class="edge">
<title>Node2&#45;&gt;Node5</title>
<path fill="none" stroke="midnightblue" d="M192.56,-168.44C171.33,-159.56 137.9,-145.56 113.75,-135.45"/>
<polygon fill="midnightblue" stroke="midnightblue" points="114.92,-132.15 104.34,-131.52 112.22,-138.61 114.92,-132.15"/>
</g>
<!-- Node6 -->
<g id="node6" class="node">
<title>Node6</title>
<g id="a_node6"><a xlink:href="lcec__rtapi_8h.html" target="_top" xlink:title=" ">
<polygon fill="white" stroke="black" points="176.5,-112.5 176.5,-131.5 249.5,-131.5 249.5,-112.5 176.5,-112.5"/>
<text text-anchor="middle" x="213" y="-119.5" font-family="Helvetica,sans-Serif" font-size="10.00">lcec_rtapi.h</text>
</a>
</g>
</g>
<!-- Node2&#45;&gt;Node6 -->
<g id="edge7" class="edge">
<title>Node2&#45;&gt;Node6</title>
<path fill="none" stroke="midnightblue" d="M213,-168.08C213,-161.01 213,-150.86 213,-141.99"/>
<polygon fill="midnightblue" stroke="midnightblue" points="216.5,-141.75 213,-131.75 209.5,-141.75 216.5,-141.75"/>
</g>
<!-- Node15 -->
<g id="node15" class="node">
<title>Node15</title>
<g id="a_node15"><a xlink:title=" ">
<polygon fill="white" stroke="#bfbfbf" points="268,-112.5 268,-131.5 348,-131.5 348,-112.5 268,-112.5"/>
<text text-anchor="middle" x="308" y="-119.5" font-family="Helvetica,sans-Serif" font-size="10.00">rtapi_ctype.h</text>
</a>
</g>
</g>
<!-- Node2&#45;&gt;Node15 -->
<g id="edge16" class="edge">
<title>Node2&#45;&gt;Node15</title>
<path fill="none" stroke="midnightblue" d="M228.26,-168.32C243.22,-159.82 266.25,-146.73 283.73,-136.8"/>
<polygon fill="midnightblue" stroke="midnightblue" points="285.81,-139.64 292.77,-131.65 282.35,-133.55 285.81,-139.64"/>
</g>
<!-- Node16 -->
<g id="node16" class="node">
<title>Node16</title>
<g id="a_node16"><a xlink:title=" ">
<polygon fill="white" stroke="#bfbfbf" points="366.5,-112.5 366.5,-131.5 445.5,-131.5 445.5,-112.5 366.5,-112.5"/>
<text text-anchor="middle" x="406" y="-119.5" font-family="Helvetica,sans-Serif" font-size="10.00">rtapi_math.h</text>
</a>
</g>
</g>
<!-- Node2&#45;&gt;Node16 -->
<g id="edge17" class="edge">
<title>Node2&#45;&gt;Node16</title>
<path fill="none" stroke="midnightblue" d="M240.24,-169.38C272.96,-160.22 328.12,-144.79 365.75,-134.26"/>
<polygon fill="midnightblue" stroke="midnightblue" points="366.71,-137.63 375.39,-131.56 364.82,-130.89 366.71,-137.63"/>
</g>
<!-- Node17 -->
<g id="node17" class="node">
<title>Node17</title>
<g id="a_node17"><a xlink:title=" ">
<polygon fill="white" stroke="#bfbfbf" points="463.5,-112.5 463.5,-131.5 544.5,-131.5 544.5,-112.5 463.5,-112.5"/>
<text text-anchor="middle" x="504" y="-119.5" font-family="Helvetica,sans-Serif" font-size="10.00">rtapi_string.h</text>
</a>
</g>
</g>
<!-- Node2&#45;&gt;Node17 -->
<g id="edge18" class="edge">
<title>Node2&#45;&gt;Node17</title>
<path fill="none" stroke="midnightblue" d="M240.12,-171.97C288.77,-162.94 391.57,-143.86 453.52,-132.37"/>
<polygon fill="midnightblue" stroke="midnightblue" points="454.28,-135.79 463.47,-130.52 453,-128.9 454.28,-135.79"/>
</g>
<!-- Node5&#45;&gt;Node3 -->
<g id="edge5" class="edge">
<title>Node5&#45;&gt;Node3</title>
<path fill="none" stroke="midnightblue" d="M74.04,-112.32C64.87,-104.34 51.06,-92.31 39.97,-82.65"/>
<polygon fill="midnightblue" stroke="midnightblue" points="41.98,-79.76 32.14,-75.83 37.38,-85.04 41.98,-79.76"/>
</g>
<!-- Node5&#45;&gt;Node4 -->
<g id="edge6" class="edge">
<title>Node5&#45;&gt;Node4</title>
<path fill="none" stroke="midnightblue" d="M84,-112.08C84,-105.01 84,-94.86 84,-85.99"/>
<polygon fill="midnightblue" stroke="midnightblue" points="87.5,-85.75 84,-75.75 80.5,-85.75 87.5,-85.75"/>
</g>
<!-- Node7 -->
<g id="node7" class="node">
<title>Node7</title>
<g id="a_node7"><a xlink:title=" ">
<polygon fill="white" stroke="#bfbfbf" points="123,-56.5 123,-75.5 171,-75.5 171,-56.5 123,-56.5"/>
<text text-anchor="middle" x="147" y="-63.5" font-family="Helvetica,sans-Serif" font-size="10.00">rtapi.h</text>
</a>
</g>
</g>
<!-- Node6&#45;&gt;Node7 -->
<g id="edge8" class="edge">
<title>Node6&#45;&gt;Node7</title>
<path fill="none" stroke="midnightblue" d="M202.4,-112.32C192.54,-104.26 177.65,-92.08 165.78,-82.37"/>
<polygon fill="midnightblue" stroke="midnightblue" points="167.75,-79.46 157.8,-75.83 163.32,-84.88 167.75,-79.46"/>
</g>
<!-- Node8 -->
<g id="node8" class="node">
<title>Node8</title>
<g id="a_node8"><a xlink:title=" ">
<polygon fill="white" stroke="#bfbfbf" points="189.5,-56.5 189.5,-75.5 270.5,-75.5 270.5,-56.5 189.5,-56.5"/>
<text text-anchor="middle" x="230" y="-63.5" font-family="Helvetica,sans-Serif" font-size="10.00">rtapi_stdint.h</text>
</a>
</g>
</g>
<!-- Node6&#45;&gt;Node8 -->
<g id="edge9" class="edge">
<title>Node6&#45;&gt;Node8</title>
<path fill="none" stroke="midnightblue" d="M215.81,-112.08C218.08,-104.85 221.37,-94.41 224.21,-85.4"/>
<polygon fill="midnightblue" stroke="midnightblue" points="227.58,-86.34 227.25,-75.75 220.9,-84.24 227.58,-86.34"/>
</g>
<!-- Node9 -->
<g id="node9" class="node">
<title>Node9</title>
<g id="a_node9"><a xlink:href="lcec__rtapi__user_8h.html" target="_top" xlink:title=" ">
<polygon fill="white" stroke="black" points="289,-56.5 289,-75.5 387,-75.5 387,-56.5 289,-56.5"/>
<text text-anchor="middle" x="338" y="-63.5" font-family="Helvetica,sans-Serif" font-size="10.00">lcec_rtapi_user.h</text>
</a>
</g>
</g>
<!-- Node6&#45;&gt;Node9 -->
<g id="edge10" class="edge">
<title>Node6&#45;&gt;Node9</title>
<path fill="none" stroke="midnightblue" d="M232.81,-112.44C253.29,-103.6 285.48,-89.69 308.86,-79.59"/>
<polygon fill="midnightblue" stroke="midnightblue" points="310.49,-82.7 318.29,-75.52 307.72,-76.27 310.49,-82.7"/>
</g>
<!-- Node10 -->
<g id="node10" class="node">
<title>Node10</title>
<g id="a_node10"><a xlink:title=" ">
<polygon fill="white" stroke="#bfbfbf" points="168,-0.5 168,-19.5 222,-19.5 222,-0.5 168,-0.5"/>
<text text-anchor="middle" x="195" y="-7.5" font-family="Helvetica,sans-Serif" font-size="10.00">sched.h</text>
</a>
</g>
</g>
<!-- Node9&#45;&gt;Node10 -->
<g id="edge11" class="edge">
<title>Node9&#45;&gt;Node10</title>
<path fill="none" stroke="midnightblue" d="M315.34,-56.44C291.6,-47.48 254.09,-33.31 227.26,-23.18"/>
<polygon fill="midnightblue" stroke="midnightblue" points="228.14,-19.77 217.55,-19.52 225.67,-26.32 228.14,-19.77"/>
</g>
<!-- Node11 -->
<g id="node11" class="node">
<title>Node11</title>
<g id="a_node11"><a xlink:title=" ">
<polygon fill="white" stroke="#bfbfbf" points="240.5,-0.5 240.5,-19.5 293.5,-19.5 293.5,-0.5 240.5,-0.5"/>
<text text-anchor="middle" x="267" y="-7.5" font-family="Helvetica,sans-Serif" font-size="10.00">stdlib.h</text>
</a>
</g>
</g>
<!-- Node9&#45;&gt;Node11 -->
<g id="edge12" class="edge">
<title>Node9&#45;&gt;Node11</title>
<path fill="none" stroke="midnightblue" d="M326.59,-56.32C315.89,-48.18 299.66,-35.84 286.84,-26.09"/>
<polygon fill="midnightblue" stroke="midnightblue" points="288.69,-23.1 278.61,-19.83 284.46,-28.67 288.69,-23.1"/>
</g>
<!-- Node12 -->
<g id="node12" class="node">
<title>Node12</title>
<g id="a_node12"><a xlink:title=" ">
<polygon fill="white" stroke="#bfbfbf" points="311.5,-0.5 311.5,-19.5 364.5,-19.5 364.5,-0.5 311.5,-0.5"/>
<text text-anchor="middle" x="338" y="-7.5" font-family="Helvetica,sans-Serif" font-size="10.00">string.h</text>
</a>
</g>
</g>
<!-- Node9&#45;&gt;Node12 -->
<g id="edge13" class="edge">
<title>Node9&#45;&gt;Node12</title>
<path fill="none" stroke="midnightblue" d="M338,-56.08C338,-49.01 338,-38.86 338,-29.99"/>
<polygon fill="midnightblue" stroke="midnightblue" points="341.5,-29.75 338,-19.75 334.5,-29.75 341.5,-29.75"/>
</g>
<!-- Node13 -->
<g id="node13" class="node">
<title>Node13</title>
<g id="a_node13"><a xlink:title=" ">
<polygon fill="white" stroke="#bfbfbf" points="383,-0.5 383,-19.5 451,-19.5 451,-0.5 383,-0.5"/>
<text text-anchor="middle" x="417" y="-7.5" font-family="Helvetica,sans-Serif" font-size="10.00">sys/time.h</text>
</a>
</g>
</g>
<!-- Node9&#45;&gt;Node13 -->
<g id="edge14" class="edge">
<title>Node9&#45;&gt;Node13</title>
<path fill="none" stroke="midnightblue" d="M350.69,-56.32C362.9,-47.98 381.58,-35.21 396,-25.35"/>
<polygon fill="midnightblue" stroke="midnightblue" points="398.06,-28.19 404.34,-19.65 394.11,-22.41 398.06,-28.19"/>
</g>
<!-- Node14 -->
<g id="node14" class="node">
<title>Node14</title>
<g id="a_node14"><a xlink:title=" ">
<polygon fill="white" stroke="#bfbfbf" points="469,-0.5 469,-19.5 517,-19.5 517,-0.5 469,-0.5"/>
<text text-anchor="middle" x="493" y="-7.5" font-family="Helvetica,sans-Serif" font-size="10.00">time.h</text>
</a>
</g>
</g>
<!-- Node9&#45;&gt;Node14 -->
<g id="edge15" class="edge">
<title>Node9&#45;&gt;Node14</title>
<path fill="none" stroke="midnightblue" d="M362.56,-56.44C388.6,-47.37 429.91,-32.98 459.05,-22.83"/>
<polygon fill="midnightblue" stroke="midnightblue" points="460.52,-26.02 468.81,-19.43 458.22,-19.41 460.52,-26.02"/>
</g>
</g>
</svg>
