<?xml version="1.0" encoding="UTF-8" standalone="no"?>
<!DOCTYPE svg PUBLIC "-//W3C//DTD SVG 1.1//EN"
 "http://www.w3.org/Graphics/SVG/1.1/DTD/svg11.dtd">
<!-- Generated by graphviz version 2.43.0 (0)
 -->
<!-- Title: src/devices/lcec_el7211.h Pages: 1 -->
<svg width="308pt" height="140pt"
 viewBox="0.00 0.00 307.50 140.00" xmlns="http://www.w3.org/2000/svg" xmlns:xlink="http://www.w3.org/1999/xlink">
<g id="graph0" class="graph" transform="scale(1 1) rotate(0) translate(4 136)">
<title>src/devices/lcec_el7211.h</title>
<polygon fill="white" stroke="transparent" points="-4,4 -4,-136 303.5,-136 303.5,4 -4,4"/>
<!-- Node1 -->
<g id="node1" class="node">
<title>Node1</title>
<g id="a_node1"><a xlink:title="Driver for Beckhoff EL7211 Servo drives.">
<polygon fill="#bfbfbf" stroke="black" points="78.5,-112.5 78.5,-131.5 219.5,-131.5 219.5,-112.5 78.5,-112.5"/>
<text text-anchor="middle" x="149" y="-119.5" font-family="Helvetica,sans-Serif" font-size="10.00">src/devices/lcec_el7211.h</text>
</a>
</g>
</g>
<!-- Node2 -->
<g id="node2" class="node">
<title>Node2</title>
<g id="a_node2"><a xlink:href="lcec__el7211_8c.html" target="_top" xlink:title="Driver for Beckhoff EL7211 Servo drives.">
<polygon fill="white" stroke="black" points="0,-56.5 0,-75.5 140,-75.5 140,-56.5 0,-56.5"/>
<text text-anchor="middle" x="70" y="-63.5" font-family="Helvetica,sans-Serif" font-size="10.00">src/devices/lcec_el7211.c</text>
</a>
</g>
</g>
<!-- Node1&#45;&gt;Node2 -->
<g id="edge1" class="edge">
<title>Node1&#45;&gt;Node2</title>
<path fill="none" stroke="midnightblue" d="M127.97,-106.62C113.53,-96.76 94.86,-83.99 82.66,-75.65"/>
<polygon fill="midnightblue" stroke="midnightblue" points="126.08,-109.57 136.31,-112.32 130.03,-103.79 126.08,-109.57"/>
</g>
<!-- Node3 -->
<g id="node3" class="node">
<title>Node3</title>
<g id="a_node3"><a xlink:href="lcec__el7411_8h.html" target="_top" xlink:title="Driver for Beckhoff EL7411 Stepper Drives.">
<polygon fill="white" stroke="black" points="158.5,-56.5 158.5,-75.5 299.5,-75.5 299.5,-56.5 158.5,-56.5"/>
<text text-anchor="middle" x="229" y="-63.5" font-family="Helvetica,sans-Serif" font-size="10.00">src/devices/lcec_el7411.h</text>
</a>
</g>
</g>
<!-- Node1&#45;&gt;Node3 -->
<g id="edge2" class="edge">
<title>Node1&#45;&gt;Node3</title>
<path fill="none" stroke="midnightblue" d="M170.3,-106.62C184.92,-96.76 203.83,-83.99 216.18,-75.65"/>
<polygon fill="midnightblue" stroke="midnightblue" points="168.18,-103.83 161.85,-112.32 172.1,-109.63 168.18,-103.83"/>
</g>
<!-- Node4 -->
<g id="node4" class="node">
<title>Node4</title>
<g id="a_node4"><a xlink:href="lcec__el7411_8c.html" target="_top" xlink:title="Driver for Beckhoff EL7411 Stepper Drives.">
<polygon fill="white" stroke="black" points="159,-0.5 159,-19.5 299,-19.5 299,-0.5 159,-0.5"/>
<text text-anchor="middle" x="229" y="-7.5" font-family="Helvetica,sans-Serif" font-size="10.00">src/devices/lcec_el7411.c</text>
</a>
</g>
</g>
<!-- Node3&#45;&gt;Node4 -->
<g id="edge3" class="edge">
<title>Node3&#45;&gt;Node4</title>
<path fill="none" stroke="midnightblue" d="M229,-45.8C229,-36.91 229,-26.78 229,-19.75"/>
<polygon fill="midnightblue" stroke="midnightblue" points="225.5,-46.08 229,-56.08 232.5,-46.08 225.5,-46.08"/>
</g>
</g>
</svg>
