<?xml version="1.0" encoding="UTF-8" standalone="no"?>
<!DOCTYPE svg PUBLIC "-//W3C//DTD SVG 1.1//EN"
 "http://www.w3.org/Graphics/SVG/1.1/DTD/svg11.dtd">
<!-- Generated by graphviz version 2.43.0 (0)
 -->
<!-- Title: src/devices/lcec_class_enc.h Pages: 1 -->
<svg width="1073pt" height="229pt"
 viewBox="0.00 0.00 1072.50 229.00" xmlns="http://www.w3.org/2000/svg" xmlns:xlink="http://www.w3.org/1999/xlink">
<g id="graph0" class="graph" transform="scale(1 1) rotate(0) translate(4 225)">
<title>src/devices/lcec_class_enc.h</title>
<polygon fill="white" stroke="transparent" points="-4,4 -4,-225 1068.5,-225 1068.5,4 -4,4"/>
<!-- Node1 -->
<g id="node1" class="node">
<title>Node1</title>
<g id="a_node1"><a xlink:title="Library for encoder&#45;like devices.">
<polygon fill="#bfbfbf" stroke="black" points="430,-190.5 430,-220.5 554,-220.5 554,-190.5 430,-190.5"/>
<text text-anchor="start" x="438" y="-208.5" font-family="Helvetica,sans-Serif" font-size="10.00">src/devices/lcec_class</text>
<text text-anchor="middle" x="492" y="-197.5" font-family="Helvetica,sans-Serif" font-size="10.00">_enc.h</text>
</a>
</g>
</g>
<!-- Node2 -->
<g id="node2" class="node">
<title>Node2</title>
<g id="a_node2"><a xlink:href="lcec__class__ax5_8c.html" target="_top" xlink:title="Library for Beckhoff AX5xxx controllers.">
<polygon fill="white" stroke="black" points="0,-56.5 0,-86.5 124,-86.5 124,-56.5 0,-56.5"/>
<text text-anchor="start" x="8" y="-74.5" font-family="Helvetica,sans-Serif" font-size="10.00">src/devices/lcec_class</text>
<text text-anchor="middle" x="62" y="-63.5" font-family="Helvetica,sans-Serif" font-size="10.00">_ax5.c</text>
</a>
</g>
</g>
<!-- Node1&#45;&gt;Node2 -->
<g id="edge1" class="edge">
<title>Node1&#45;&gt;Node2</title>
<path fill="none" stroke="midnightblue" d="M419.64,-200.82C327.83,-195.08 175.56,-181.65 127,-154 99.32,-138.24 78.98,-105.63 68.97,-86.79"/>
<polygon fill="midnightblue" stroke="midnightblue" points="419.51,-204.32 429.7,-201.43 419.93,-197.33 419.51,-204.32"/>
</g>
<!-- Node3 -->
<g id="node3" class="node">
<title>Node3</title>
<g id="a_node3"><a xlink:href="lcec__class__ax5_8h.html" target="_top" xlink:title="Library for Beckhoff AX5xxx controllers.">
<polygon fill="white" stroke="black" points="136,-123.5 136,-153.5 260,-153.5 260,-123.5 136,-123.5"/>
<text text-anchor="start" x="144" y="-141.5" font-family="Helvetica,sans-Serif" font-size="10.00">src/devices/lcec_class</text>
<text text-anchor="middle" x="198" y="-130.5" font-family="Helvetica,sans-Serif" font-size="10.00">_ax5.h</text>
</a>
</g>
</g>
<!-- Node1&#45;&gt;Node3 -->
<g id="edge2" class="edge">
<title>Node1&#45;&gt;Node3</title>
<path fill="none" stroke="midnightblue" d="M419.75,-188.53C370.76,-177.7 306.68,-163.53 260.01,-153.21"/>
<polygon fill="midnightblue" stroke="midnightblue" points="419.13,-191.97 429.65,-190.72 420.64,-185.14 419.13,-191.97"/>
</g>
<!-- Node9 -->
<g id="node9" class="node">
<title>Node9</title>
<g id="a_node9"><a xlink:href="lcec__class__enc_8c.html" target="_top" xlink:title="Library for encoder&#45;like devices.">
<polygon fill="white" stroke="black" points="278,-123.5 278,-153.5 402,-153.5 402,-123.5 278,-123.5"/>
<text text-anchor="start" x="286" y="-141.5" font-family="Helvetica,sans-Serif" font-size="10.00">src/devices/lcec_class</text>
<text text-anchor="middle" x="340" y="-130.5" font-family="Helvetica,sans-Serif" font-size="10.00">_enc.c</text>
</a>
</g>
</g>
<!-- Node1&#45;&gt;Node9 -->
<g id="edge10" class="edge">
<title>Node1&#45;&gt;Node9</title>
<path fill="none" stroke="midnightblue" d="M449.69,-186.41C425.42,-176.03 395.41,-163.2 372.92,-153.58"/>
<polygon fill="midnightblue" stroke="midnightblue" points="448.45,-189.68 459.02,-190.4 451.2,-183.25 448.45,-189.68"/>
</g>
<!-- Node10 -->
<g id="node10" class="node">
<title>Node10</title>
<g id="a_node10"><a xlink:href="lcec__deasda_8c.html" target="_top" xlink:title="Driver for Delta ASDA servo controllers.">
<polygon fill="white" stroke="black" points="420.5,-129 420.5,-148 563.5,-148 563.5,-129 420.5,-129"/>
<text text-anchor="middle" x="492" y="-136" font-family="Helvetica,sans-Serif" font-size="10.00">src/devices/lcec_deasda.c</text>
</a>
</g>
</g>
<!-- Node1&#45;&gt;Node10 -->
<g id="edge11" class="edge">
<title>Node1&#45;&gt;Node10</title>
<path fill="none" stroke="midnightblue" d="M492,-180.25C492,-169.02 492,-156.38 492,-148.19"/>
<polygon fill="midnightblue" stroke="midnightblue" points="488.5,-180.4 492,-190.4 495.5,-180.4 488.5,-180.4"/>
</g>
<!-- Node11 -->
<g id="node11" class="node">
<title>Node11</title>
<g id="a_node11"><a xlink:href="lcec__el7211_8c.html" target="_top" xlink:title="Driver for Beckhoff EL7211 Servo drives.">
<polygon fill="white" stroke="black" points="582,-129 582,-148 722,-148 722,-129 582,-129"/>
<text text-anchor="middle" x="652" y="-136" font-family="Helvetica,sans-Serif" font-size="10.00">src/devices/lcec_el7211.c</text>
</a>
</g>
</g>
<!-- Node1&#45;&gt;Node11 -->
<g id="edge12" class="edge">
<title>Node1&#45;&gt;Node11</title>
<path fill="none" stroke="midnightblue" d="M536.01,-186.62C566.98,-174.04 607.04,-157.77 631.06,-148.01"/>
<polygon fill="midnightblue" stroke="midnightblue" points="534.66,-183.39 526.72,-190.4 537.3,-189.87 534.66,-183.39"/>
</g>
<!-- Node12 -->
<g id="node12" class="node">
<title>Node12</title>
<g id="a_node12"><a xlink:href="lcec__ph3lm2rm_8c.html" target="_top" xlink:title=" ">
<polygon fill="white" stroke="black" points="740,-129 740,-148 898,-148 898,-129 740,-129"/>
<text text-anchor="middle" x="819" y="-136" font-family="Helvetica,sans-Serif" font-size="10.00">src/devices/lcec_ph3lm2rm.c</text>
</a>
</g>
</g>
<!-- Node1&#45;&gt;Node12 -->
<g id="edge13" class="edge">
<title>Node1&#45;&gt;Node12</title>
<path fill="none" stroke="midnightblue" d="M564.45,-190.1C629.39,-177.19 722.47,-158.69 776.23,-148"/>
<polygon fill="midnightblue" stroke="midnightblue" points="563.4,-186.74 554.28,-192.12 564.77,-193.6 563.4,-186.74"/>
</g>
<!-- Node13 -->
<g id="node13" class="node">
<title>Node13</title>
<g id="a_node13"><a xlink:href="lcec__stmds5k_8c.html" target="_top" xlink:title="Stoeber MDS5000 driver.">
<polygon fill="white" stroke="black" points="915.5,-129 915.5,-148 1064.5,-148 1064.5,-129 915.5,-129"/>
<text text-anchor="middle" x="990" y="-136" font-family="Helvetica,sans-Serif" font-size="10.00">src/devices/lcec_stmds5k.c</text>
</a>
</g>
</g>
<!-- Node1&#45;&gt;Node13 -->
<g id="edge14" class="edge">
<title>Node1&#45;&gt;Node13</title>
<path fill="none" stroke="midnightblue" d="M564.08,-196.88C646.97,-187.84 787.08,-171.76 907,-154 918.87,-152.24 931.65,-150.12 943.54,-148.05"/>
<polygon fill="midnightblue" stroke="midnightblue" points="563.57,-193.41 554.01,-197.97 564.33,-200.37 563.57,-193.41"/>
</g>
<!-- Node3&#45;&gt;Node2 -->
<g id="edge9" class="edge">
<title>Node3&#45;&gt;Node2</title>
<path fill="none" stroke="midnightblue" d="M159.28,-118.99C137.72,-108.69 111.31,-96.07 91.45,-86.58"/>
<polygon fill="midnightblue" stroke="midnightblue" points="157.96,-122.24 168.49,-123.4 160.98,-115.93 157.96,-122.24"/>
</g>
<!-- Node4 -->
<g id="node4" class="node">
<title>Node4</title>
<g id="a_node4"><a xlink:href="lcec__ax5100_8h.html" target="_top" xlink:title="Driver for Beckhoff AX5100 Servo controllers.">
<polygon fill="white" stroke="black" points="142,-62 142,-81 286,-81 286,-62 142,-62"/>
<text text-anchor="middle" x="214" y="-69" font-family="Helvetica,sans-Serif" font-size="10.00">src/devices/lcec_ax5100.h</text>
</a>
</g>
</g>
<!-- Node3&#45;&gt;Node4 -->
<g id="edge3" class="edge">
<title>Node3&#45;&gt;Node4</title>
<path fill="none" stroke="midnightblue" d="M203.88,-113.6C206.67,-102.28 209.82,-89.46 211.86,-81.19"/>
<polygon fill="midnightblue" stroke="midnightblue" points="200.46,-112.85 201.47,-123.4 207.26,-114.52 200.46,-112.85"/>
</g>
<!-- Node7 -->
<g id="node7" class="node">
<title>Node7</title>
<g id="a_node7"><a xlink:href="lcec__ax5200_8h.html" target="_top" xlink:title="Driver for Beckhoff AX5200 Servo controllers.">
<polygon fill="white" stroke="black" points="304,-62 304,-81 448,-81 448,-62 304,-62"/>
<text text-anchor="middle" x="376" y="-69" font-family="Helvetica,sans-Serif" font-size="10.00">src/devices/lcec_ax5200.h</text>
</a>
</g>
</g>
<!-- Node3&#45;&gt;Node7 -->
<g id="edge6" class="edge">
<title>Node3&#45;&gt;Node7</title>
<path fill="none" stroke="midnightblue" d="M246.07,-119.95C280.64,-107.32 325.75,-90.85 352.7,-81.01"/>
<polygon fill="midnightblue" stroke="midnightblue" points="244.82,-116.68 236.62,-123.4 247.22,-123.25 244.82,-116.68"/>
</g>
<!-- Node5 -->
<g id="node5" class="node">
<title>Node5</title>
<g id="a_node5"><a xlink:href="lcec__ax5100_8c.html" target="_top" xlink:title="Driver for Beckhoff AX5100 Servo controllers.">
<polygon fill="white" stroke="black" points="62.5,-0.5 62.5,-19.5 205.5,-19.5 205.5,-0.5 62.5,-0.5"/>
<text text-anchor="middle" x="134" y="-7.5" font-family="Helvetica,sans-Serif" font-size="10.00">src/devices/lcec_ax5100.c</text>
</a>
</g>
</g>
<!-- Node4&#45;&gt;Node5 -->
<g id="edge4" class="edge">
<title>Node4&#45;&gt;Node5</title>
<path fill="none" stroke="midnightblue" d="M194.23,-55.79C178.88,-44.38 158.14,-28.96 145.44,-19.51"/>
<polygon fill="midnightblue" stroke="midnightblue" points="192.43,-58.82 202.54,-61.98 196.6,-53.2 192.43,-58.82"/>
</g>
<!-- Node6 -->
<g id="node6" class="node">
<title>Node6</title>
<g id="a_node6"><a xlink:href="lcec__ax5805_8c.html" target="_top" xlink:title="Driver for Beckhoff AX5805 Servo controllers.">
<polygon fill="white" stroke="black" points="223.5,-0.5 223.5,-19.5 366.5,-19.5 366.5,-0.5 223.5,-0.5"/>
<text text-anchor="middle" x="295" y="-7.5" font-family="Helvetica,sans-Serif" font-size="10.00">src/devices/lcec_ax5805.c</text>
</a>
</g>
</g>
<!-- Node4&#45;&gt;Node6 -->
<g id="edge5" class="edge">
<title>Node4&#45;&gt;Node6</title>
<path fill="none" stroke="midnightblue" d="M234.02,-55.79C249.56,-44.38 270.55,-28.96 283.42,-19.51"/>
<polygon fill="midnightblue" stroke="midnightblue" points="231.59,-53.23 225.61,-61.98 235.74,-58.88 231.59,-53.23"/>
</g>
<!-- Node7&#45;&gt;Node6 -->
<g id="edge8" class="edge">
<title>Node7&#45;&gt;Node6</title>
<path fill="none" stroke="midnightblue" d="M355.98,-55.79C340.44,-44.38 319.45,-28.96 306.58,-19.51"/>
<polygon fill="midnightblue" stroke="midnightblue" points="354.26,-58.88 364.39,-61.98 358.41,-53.23 354.26,-58.88"/>
</g>
<!-- Node8 -->
<g id="node8" class="node">
<title>Node8</title>
<g id="a_node8"><a xlink:href="lcec__ax5200_8c.html" target="_top" xlink:title="Driver for Beckhoff AX5200 Servo controllers.">
<polygon fill="white" stroke="black" points="384.5,-0.5 384.5,-19.5 527.5,-19.5 527.5,-0.5 384.5,-0.5"/>
<text text-anchor="middle" x="456" y="-7.5" font-family="Helvetica,sans-Serif" font-size="10.00">src/devices/lcec_ax5200.c</text>
</a>
</g>
</g>
<!-- Node7&#45;&gt;Node8 -->
<g id="edge7" class="edge">
<title>Node7&#45;&gt;Node8</title>
<path fill="none" stroke="midnightblue" d="M395.77,-55.79C411.12,-44.38 431.86,-28.96 444.56,-19.51"/>
<polygon fill="midnightblue" stroke="midnightblue" points="393.4,-53.2 387.46,-61.98 397.57,-58.82 393.4,-53.2"/>
</g>
</g>
</svg>
