<?xml version="1.0" encoding="UTF-8" standalone="no"?>
<!DOCTYPE svg PUBLIC "-//W3C//DTD SVG 1.1//EN"
 "http://www.w3.org/Graphics/SVG/1.1/DTD/svg11.dtd">
<!-- Generated by graphviz version 2.43.0 (0)
 -->
<!-- Title: src/lcec_main.c Pages: 1 -->
<svg width="703pt" height="308pt"
 viewBox="0.00 0.00 702.50 308.00" xmlns="http://www.w3.org/2000/svg" xmlns:xlink="http://www.w3.org/1999/xlink">
<g id="graph0" class="graph" transform="scale(1 1) rotate(0) translate(4 304)">
<title>src/lcec_main.c</title>
<polygon fill="white" stroke="transparent" points="-4,4 -4,-304 698.5,-304 698.5,4 -4,4"/>
<!-- Node1 -->
<g id="node1" class="node">
<title>Node1</title>
<g id="a_node1"><a xlink:title="Initialization code for LinuxCNC&#45;Ethercat.">
<polygon fill="#bfbfbf" stroke="black" points="496,-280.5 496,-299.5 588,-299.5 588,-280.5 496,-280.5"/>
<text text-anchor="middle" x="542" y="-287.5" font-family="Helvetica,sans-Serif" font-size="10.00">src/lcec_main.c</text>
</a>
</g>
</g>
<!-- Node2 -->
<g id="node2" class="node">
<title>Node2</title>
<g id="a_node2"><a xlink:href="lcec__generic_8h.html" target="_top" xlink:title="Driver for Generic devices, controlled by XML.">
<polygon fill="white" stroke="black" points="478.5,-224.5 478.5,-243.5 605.5,-243.5 605.5,-224.5 478.5,-224.5"/>
<text text-anchor="middle" x="542" y="-231.5" font-family="Helvetica,sans-Serif" font-size="10.00">devices/lcec_generic.h</text>
</a>
</g>
</g>
<!-- Node1&#45;&gt;Node2 -->
<g id="edge1" class="edge">
<title>Node1&#45;&gt;Node2</title>
<path fill="none" stroke="midnightblue" d="M542,-280.08C542,-273.01 542,-262.86 542,-253.99"/>
<polygon fill="midnightblue" stroke="midnightblue" points="545.5,-253.75 542,-243.75 538.5,-253.75 545.5,-253.75"/>
</g>
<!-- Node3 -->
<g id="node3" class="node">
<title>Node3</title>
<g id="a_node3"><a xlink:href="lcec_8h.html" target="_top" xlink:title="Header file for LinuxCNC&#45;Ethercat.">
<polygon fill="white" stroke="black" points="423,-168.5 423,-187.5 477,-187.5 477,-168.5 423,-168.5"/>
<text text-anchor="middle" x="450" y="-175.5" font-family="Helvetica,sans-Serif" font-size="10.00">../lcec.h</text>
</a>
</g>
</g>
<!-- Node1&#45;&gt;Node3 -->
<g id="edge21" class="edge">
<title>Node1&#45;&gt;Node3</title>
<path fill="none" stroke="midnightblue" d="M519.77,-280.49C503.47,-273.16 482,-261.05 469,-244 458.76,-230.57 454.03,-211.76 451.85,-197.82"/>
<polygon fill="midnightblue" stroke="midnightblue" points="455.32,-197.37 450.59,-187.89 448.38,-198.25 455.32,-197.37"/>
</g>
<!-- Node19 -->
<g id="node19" class="node">
<title>Node19</title>
<g id="a_node19"><a xlink:title=" ">
<polygon fill="white" stroke="#bfbfbf" points="623.5,-224.5 623.5,-243.5 694.5,-243.5 694.5,-224.5 623.5,-224.5"/>
<text text-anchor="middle" x="659" y="-231.5" font-family="Helvetica,sans-Serif" font-size="10.00">rtapi_app.h</text>
</a>
</g>
</g>
<!-- Node1&#45;&gt;Node19 -->
<g id="edge22" class="edge">
<title>Node1&#45;&gt;Node19</title>
<path fill="none" stroke="midnightblue" d="M560.54,-280.44C579.62,-271.64 609.57,-257.81 631.44,-247.72"/>
<polygon fill="midnightblue" stroke="midnightblue" points="632.93,-250.88 640.55,-243.52 630,-244.53 632.93,-250.88"/>
</g>
<!-- Node2&#45;&gt;Node3 -->
<g id="edge2" class="edge">
<title>Node2&#45;&gt;Node3</title>
<path fill="none" stroke="midnightblue" d="M527.22,-224.32C512.73,-215.82 490.43,-202.73 473.51,-192.8"/>
<polygon fill="midnightblue" stroke="midnightblue" points="475.14,-189.7 464.74,-187.65 471.6,-195.74 475.14,-189.7"/>
</g>
<!-- Node6 -->
<g id="node6" class="node">
<title>Node6</title>
<g id="a_node6"><a xlink:href="lcec__conf_8h.html" target="_top" xlink:title=" ">
<polygon fill="white" stroke="black" points="596.5,-112.5 596.5,-131.5 667.5,-131.5 667.5,-112.5 596.5,-112.5"/>
<text text-anchor="middle" x="632" y="-119.5" font-family="Helvetica,sans-Serif" font-size="10.00">lcec_conf.h</text>
</a>
</g>
</g>
<!-- Node2&#45;&gt;Node6 -->
<g id="edge20" class="edge">
<title>Node2&#45;&gt;Node6</title>
<path fill="none" stroke="midnightblue" d="M549.06,-224.37C564.05,-206.05 599.23,-163.05 618.61,-139.36"/>
<polygon fill="midnightblue" stroke="midnightblue" points="621.35,-141.55 624.97,-131.59 615.93,-137.11 621.35,-141.55"/>
</g>
<!-- Node4 -->
<g id="node4" class="node">
<title>Node4</title>
<g id="a_node4"><a xlink:title=" ">
<polygon fill="white" stroke="#bfbfbf" points="426,-56.5 426,-75.5 470,-75.5 470,-56.5 426,-56.5"/>
<text text-anchor="middle" x="448" y="-63.5" font-family="Helvetica,sans-Serif" font-size="10.00">ecrt.h</text>
</a>
</g>
</g>
<!-- Node3&#45;&gt;Node4 -->
<g id="edge3" class="edge">
<title>Node3&#45;&gt;Node4</title>
<path fill="none" stroke="midnightblue" d="M422.91,-174.85C374.17,-170.36 274.83,-158.15 254,-132 210.29,-77.12 349.5,-68.23 415.4,-67.03"/>
<polygon fill="midnightblue" stroke="midnightblue" points="415.72,-70.53 425.68,-66.9 415.63,-63.53 415.72,-70.53"/>
</g>
<!-- Node5 -->
<g id="node5" class="node">
<title>Node5</title>
<g id="a_node5"><a xlink:title=" ">
<polygon fill="white" stroke="#bfbfbf" points="579.5,-56.5 579.5,-75.5 620.5,-75.5 620.5,-56.5 579.5,-56.5"/>
<text text-anchor="middle" x="600" y="-63.5" font-family="Helvetica,sans-Serif" font-size="10.00">hal.h</text>
</a>
</g>
</g>
<!-- Node3&#45;&gt;Node5 -->
<g id="edge4" class="edge">
<title>Node3&#45;&gt;Node5</title>
<path fill="none" stroke="midnightblue" d="M477.23,-168.38C498.01,-160.93 526.61,-148.71 548,-132 565.02,-118.7 579.9,-98.76 589.33,-84.48"/>
<polygon fill="midnightblue" stroke="midnightblue" points="592.53,-85.96 594.95,-75.65 586.63,-82.21 592.53,-85.96"/>
</g>
<!-- Node3&#45;&gt;Node6 -->
<g id="edge5" class="edge">
<title>Node3&#45;&gt;Node6</title>
<path fill="none" stroke="midnightblue" d="M477.25,-168.92C508.02,-159.78 558.35,-144.85 593.22,-134.51"/>
<polygon fill="midnightblue" stroke="midnightblue" points="594.47,-137.79 603.06,-131.59 592.48,-131.08 594.47,-137.79"/>
</g>
<!-- Node7 -->
<g id="node7" class="node">
<title>Node7</title>
<g id="a_node7"><a xlink:href="lcec__rtapi_8h.html" target="_top" xlink:title=" ">
<polygon fill="white" stroke="black" points="133.5,-112.5 133.5,-131.5 206.5,-131.5 206.5,-112.5 133.5,-112.5"/>
<text text-anchor="middle" x="170" y="-119.5" font-family="Helvetica,sans-Serif" font-size="10.00">lcec_rtapi.h</text>
</a>
</g>
</g>
<!-- Node3&#45;&gt;Node7 -->
<g id="edge8" class="edge">
<title>Node3&#45;&gt;Node7</title>
<path fill="none" stroke="midnightblue" d="M422.9,-171.77C375.25,-162.58 275.95,-143.43 216.95,-132.05"/>
<polygon fill="midnightblue" stroke="midnightblue" points="217.26,-128.55 206.78,-130.09 215.93,-135.42 217.26,-128.55"/>
</g>
<!-- Node16 -->
<g id="node16" class="node">
<title>Node16</title>
<g id="a_node16"><a xlink:title=" ">
<polygon fill="white" stroke="#bfbfbf" points="263,-112.5 263,-131.5 343,-131.5 343,-112.5 263,-112.5"/>
<text text-anchor="middle" x="303" y="-119.5" font-family="Helvetica,sans-Serif" font-size="10.00">rtapi_ctype.h</text>
</a>
</g>
</g>
<!-- Node3&#45;&gt;Node16 -->
<g id="edge17" class="edge">
<title>Node3&#45;&gt;Node16</title>
<path fill="none" stroke="midnightblue" d="M426.71,-168.44C402.19,-159.44 363.4,-145.19 335.8,-135.05"/>
<polygon fill="midnightblue" stroke="midnightblue" points="336.78,-131.68 326.18,-131.52 334.36,-138.25 336.78,-131.68"/>
</g>
<!-- Node17 -->
<g id="node17" class="node">
<title>Node17</title>
<g id="a_node17"><a xlink:title=" ">
<polygon fill="white" stroke="#bfbfbf" points="361.5,-112.5 361.5,-131.5 440.5,-131.5 440.5,-112.5 361.5,-112.5"/>
<text text-anchor="middle" x="401" y="-119.5" font-family="Helvetica,sans-Serif" font-size="10.00">rtapi_math.h</text>
</a>
</g>
</g>
<!-- Node3&#45;&gt;Node17 -->
<g id="edge18" class="edge">
<title>Node3&#45;&gt;Node17</title>
<path fill="none" stroke="midnightblue" d="M441.91,-168.08C434.84,-160.3 424.41,-148.8 415.85,-139.37"/>
<polygon fill="midnightblue" stroke="midnightblue" points="418.25,-136.8 408.94,-131.75 413.07,-141.51 418.25,-136.8"/>
</g>
<!-- Node18 -->
<g id="node18" class="node">
<title>Node18</title>
<g id="a_node18"><a xlink:title=" ">
<polygon fill="white" stroke="#bfbfbf" points="458.5,-112.5 458.5,-131.5 539.5,-131.5 539.5,-112.5 458.5,-112.5"/>
<text text-anchor="middle" x="499" y="-119.5" font-family="Helvetica,sans-Serif" font-size="10.00">rtapi_string.h</text>
</a>
</g>
</g>
<!-- Node3&#45;&gt;Node18 -->
<g id="edge19" class="edge">
<title>Node3&#45;&gt;Node18</title>
<path fill="none" stroke="midnightblue" d="M458.09,-168.08C465.16,-160.3 475.59,-148.8 484.15,-139.37"/>
<polygon fill="midnightblue" stroke="midnightblue" points="486.93,-141.51 491.06,-131.75 481.75,-136.8 486.93,-141.51"/>
</g>
<!-- Node6&#45;&gt;Node4 -->
<g id="edge6" class="edge">
<title>Node6&#45;&gt;Node4</title>
<path fill="none" stroke="midnightblue" d="M602.84,-112.44C569.27,-102.59 514.32,-86.46 479.7,-76.3"/>
<polygon fill="midnightblue" stroke="midnightblue" points="480.67,-72.94 470.09,-73.48 478.7,-79.66 480.67,-72.94"/>
</g>
<!-- Node6&#45;&gt;Node5 -->
<g id="edge7" class="edge">
<title>Node6&#45;&gt;Node5</title>
<path fill="none" stroke="midnightblue" d="M626.72,-112.08C622.29,-104.61 615.84,-93.72 610.38,-84.52"/>
<polygon fill="midnightblue" stroke="midnightblue" points="613.29,-82.57 605.19,-75.75 607.27,-86.14 613.29,-82.57"/>
</g>
<!-- Node8 -->
<g id="node8" class="node">
<title>Node8</title>
<g id="a_node8"><a xlink:title=" ">
<polygon fill="white" stroke="#bfbfbf" points="237,-56.5 237,-75.5 285,-75.5 285,-56.5 237,-56.5"/>
<text text-anchor="middle" x="261" y="-63.5" font-family="Helvetica,sans-Serif" font-size="10.00">rtapi.h</text>
</a>
</g>
</g>
<!-- Node7&#45;&gt;Node8 -->
<g id="edge9" class="edge">
<title>Node7&#45;&gt;Node8</title>
<path fill="none" stroke="midnightblue" d="M184.62,-112.32C198.95,-103.82 221.01,-90.73 237.75,-80.8"/>
<polygon fill="midnightblue" stroke="midnightblue" points="239.6,-83.77 246.42,-75.65 236.03,-77.75 239.6,-83.77"/>
</g>
<!-- Node9 -->
<g id="node9" class="node">
<title>Node9</title>
<g id="a_node9"><a xlink:title=" ">
<polygon fill="white" stroke="#bfbfbf" points="21.5,-56.5 21.5,-75.5 102.5,-75.5 102.5,-56.5 21.5,-56.5"/>
<text text-anchor="middle" x="62" y="-63.5" font-family="Helvetica,sans-Serif" font-size="10.00">rtapi_stdint.h</text>
</a>
</g>
</g>
<!-- Node7&#45;&gt;Node9 -->
<g id="edge10" class="edge">
<title>Node7&#45;&gt;Node9</title>
<path fill="none" stroke="midnightblue" d="M152.65,-112.32C135.33,-103.66 108.48,-90.24 88.5,-80.25"/>
<polygon fill="midnightblue" stroke="midnightblue" points="89.82,-77 79.31,-75.65 86.69,-83.26 89.82,-77"/>
</g>
<!-- Node10 -->
<g id="node10" class="node">
<title>Node10</title>
<g id="a_node10"><a xlink:href="lcec__rtapi__user_8h.html" target="_top" xlink:title=" ">
<polygon fill="white" stroke="black" points="121,-56.5 121,-75.5 219,-75.5 219,-56.5 121,-56.5"/>
<text text-anchor="middle" x="170" y="-63.5" font-family="Helvetica,sans-Serif" font-size="10.00">lcec_rtapi_user.h</text>
</a>
</g>
</g>
<!-- Node7&#45;&gt;Node10 -->
<g id="edge11" class="edge">
<title>Node7&#45;&gt;Node10</title>
<path fill="none" stroke="midnightblue" d="M170,-112.08C170,-105.01 170,-94.86 170,-85.99"/>
<polygon fill="midnightblue" stroke="midnightblue" points="173.5,-85.75 170,-75.75 166.5,-85.75 173.5,-85.75"/>
</g>
<!-- Node11 -->
<g id="node11" class="node">
<title>Node11</title>
<g id="a_node11"><a xlink:title=" ">
<polygon fill="white" stroke="#bfbfbf" points="0,-0.5 0,-19.5 54,-19.5 54,-0.5 0,-0.5"/>
<text text-anchor="middle" x="27" y="-7.5" font-family="Helvetica,sans-Serif" font-size="10.00">sched.h</text>
</a>
</g>
</g>
<!-- Node10&#45;&gt;Node11 -->
<g id="edge12" class="edge">
<title>Node10&#45;&gt;Node11</title>
<path fill="none" stroke="midnightblue" d="M147.34,-56.44C123.6,-47.48 86.09,-33.31 59.26,-23.18"/>
<polygon fill="midnightblue" stroke="midnightblue" points="60.14,-19.77 49.55,-19.52 57.67,-26.32 60.14,-19.77"/>
</g>
<!-- Node12 -->
<g id="node12" class="node">
<title>Node12</title>
<g id="a_node12"><a xlink:title=" ">
<polygon fill="white" stroke="#bfbfbf" points="72.5,-0.5 72.5,-19.5 125.5,-19.5 125.5,-0.5 72.5,-0.5"/>
<text text-anchor="middle" x="99" y="-7.5" font-family="Helvetica,sans-Serif" font-size="10.00">stdlib.h</text>
</a>
</g>
</g>
<!-- Node10&#45;&gt;Node12 -->
<g id="edge13" class="edge">
<title>Node10&#45;&gt;Node12</title>
<path fill="none" stroke="midnightblue" d="M158.59,-56.32C147.89,-48.18 131.66,-35.84 118.84,-26.09"/>
<polygon fill="midnightblue" stroke="midnightblue" points="120.69,-23.1 110.61,-19.83 116.46,-28.67 120.69,-23.1"/>
</g>
<!-- Node13 -->
<g id="node13" class="node">
<title>Node13</title>
<g id="a_node13"><a xlink:title=" ">
<polygon fill="white" stroke="#bfbfbf" points="143.5,-0.5 143.5,-19.5 196.5,-19.5 196.5,-0.5 143.5,-0.5"/>
<text text-anchor="middle" x="170" y="-7.5" font-family="Helvetica,sans-Serif" font-size="10.00">string.h</text>
</a>
</g>
</g>
<!-- Node10&#45;&gt;Node13 -->
<g id="edge14" class="edge">
<title>Node10&#45;&gt;Node13</title>
<path fill="none" stroke="midnightblue" d="M170,-56.08C170,-49.01 170,-38.86 170,-29.99"/>
<polygon fill="midnightblue" stroke="midnightblue" points="173.5,-29.75 170,-19.75 166.5,-29.75 173.5,-29.75"/>
</g>
<!-- Node14 -->
<g id="node14" class="node">
<title>Node14</title>
<g id="a_node14"><a xlink:title=" ">
<polygon fill="white" stroke="#bfbfbf" points="215,-0.5 215,-19.5 283,-19.5 283,-0.5 215,-0.5"/>
<text text-anchor="middle" x="249" y="-7.5" font-family="Helvetica,sans-Serif" font-size="10.00">sys/time.h</text>
</a>
</g>
</g>
<!-- Node10&#45;&gt;Node14 -->
<g id="edge15" class="edge">
<title>Node10&#45;&gt;Node14</title>
<path fill="none" stroke="midnightblue" d="M182.69,-56.32C194.9,-47.98 213.58,-35.21 228,-25.35"/>
<polygon fill="midnightblue" stroke="midnightblue" points="230.06,-28.19 236.34,-19.65 226.11,-22.41 230.06,-28.19"/>
</g>
<!-- Node15 -->
<g id="node15" class="node">
<title>Node15</title>
<g id="a_node15"><a xlink:title=" ">
<polygon fill="white" stroke="#bfbfbf" points="301,-0.5 301,-19.5 349,-19.5 349,-0.5 301,-0.5"/>
<text text-anchor="middle" x="325" y="-7.5" font-family="Helvetica,sans-Serif" font-size="10.00">time.h</text>
</a>
</g>
</g>
<!-- Node10&#45;&gt;Node15 -->
<g id="edge16" class="edge">
<title>Node10&#45;&gt;Node15</title>
<path fill="none" stroke="midnightblue" d="M194.56,-56.44C220.6,-47.37 261.91,-32.98 291.05,-22.83"/>
<polygon fill="midnightblue" stroke="midnightblue" points="292.52,-26.02 300.81,-19.43 290.22,-19.41 292.52,-26.02"/>
</g>
</g>
</svg>
