<?xml version="1.0" encoding="UTF-8" standalone="no"?>
<!DOCTYPE svg PUBLIC "-//W3C//DTD SVG 1.1//EN"
 "http://www.w3.org/Graphics/SVG/1.1/DTD/svg11.dtd">
<!-- Generated by graphviz version 2.43.0 (0)
 -->
<!-- Title: src/devices/lcec_generic.h Pages: 1 -->
<svg width="262pt" height="84pt"
 viewBox="0.00 0.00 261.50 84.00" xmlns="http://www.w3.org/2000/svg" xmlns:xlink="http://www.w3.org/1999/xlink">
<g id="graph0" class="graph" transform="scale(1 1) rotate(0) translate(4 80)">
<title>src/devices/lcec_generic.h</title>
<polygon fill="white" stroke="transparent" points="-4,4 -4,-80 257.5,-80 257.5,4 -4,4"/>
<!-- Node1 -->
<g id="node1" class="node">
<title>Node1</title>
<g id="a_node1"><a xlink:title="Driver for Generic devices, controlled by XML.">
<polygon fill="#bfbfbf" stroke="black" points="67.5,-56.5 67.5,-75.5 211.5,-75.5 211.5,-56.5 67.5,-56.5"/>
<text text-anchor="middle" x="139.5" y="-63.5" font-family="Helvetica,sans-Serif" font-size="10.00">src/devices/lcec_generic.h</text>
</a>
</g>
</g>
<!-- Node2 -->
<g id="node2" class="node">
<title>Node2</title>
<g id="a_node2"><a xlink:href="lcec__generic_8c.html" target="_top" xlink:title="Driver for Generic devices, controlled by XML.">
<polygon fill="white" stroke="black" points="0,-0.5 0,-19.5 143,-19.5 143,-0.5 0,-0.5"/>
<text text-anchor="middle" x="71.5" y="-7.5" font-family="Helvetica,sans-Serif" font-size="10.00">src/devices/lcec_generic.c</text>
</a>
</g>
</g>
<!-- Node1&#45;&gt;Node2 -->
<g id="edge1" class="edge">
<title>Node1&#45;&gt;Node2</title>
<path fill="none" stroke="midnightblue" d="M120.74,-50.1C108.5,-40.38 92.94,-28.03 82.62,-19.83"/>
<polygon fill="midnightblue" stroke="midnightblue" points="118.57,-52.85 128.57,-56.32 122.92,-47.36 118.57,-52.85"/>
</g>
<!-- Node3 -->
<g id="node3" class="node">
<title>Node3</title>
<g id="a_node3"><a xlink:href="lcec__main_8c.html" target="_top" xlink:title="Initialization code for LinuxCNC&#45;Ethercat.">
<polygon fill="white" stroke="black" points="161.5,-0.5 161.5,-19.5 253.5,-19.5 253.5,-0.5 161.5,-0.5"/>
<text text-anchor="middle" x="207.5" y="-7.5" font-family="Helvetica,sans-Serif" font-size="10.00">src/lcec_main.c</text>
</a>
</g>
</g>
<!-- Node1&#45;&gt;Node3 -->
<g id="edge2" class="edge">
<title>Node1&#45;&gt;Node3</title>
<path fill="none" stroke="midnightblue" d="M158.26,-50.1C170.5,-40.38 186.06,-28.03 196.38,-19.83"/>
<polygon fill="midnightblue" stroke="midnightblue" points="156.08,-47.36 150.43,-56.32 160.43,-52.85 156.08,-47.36"/>
</g>
</g>
</svg>
