<?xml version="1.0" encoding="UTF-8" standalone="no"?>
<!DOCTYPE svg PUBLIC "-//W3C//DTD SVG 1.1//EN"
 "http://www.w3.org/Graphics/SVG/1.1/DTD/svg11.dtd">
<!-- Generated by graphviz version 2.43.0 (0)
 -->
<!-- Title: src/devices/lcec_ax5805.c Pages: 1 -->
<svg width="553pt" height="420pt"
 viewBox="0.00 0.00 552.50 420.00" xmlns="http://www.w3.org/2000/svg" xmlns:xlink="http://www.w3.org/1999/xlink">
<g id="graph0" class="graph" transform="scale(1 1) rotate(0) translate(4 416)">
<title>src/devices/lcec_ax5805.c</title>
<polygon fill="white" stroke="transparent" points="-4,4 -4,-416 548.5,-416 548.5,4 -4,4"/>
<!-- Node1 -->
<g id="node1" class="node">
<title>Node1</title>
<g id="a_node1"><a xlink:title="Driver for Beckhoff AX5805 Servo controllers.">
<polygon fill="#bfbfbf" stroke="black" points="86.5,-392.5 86.5,-411.5 229.5,-411.5 229.5,-392.5 86.5,-392.5"/>
<text text-anchor="middle" x="158" y="-399.5" font-family="Helvetica,sans-Serif" font-size="10.00">src/devices/lcec_ax5805.c</text>
</a>
</g>
</g>
<!-- Node2 -->
<g id="node2" class="node">
<title>Node2</title>
<g id="a_node2"><a xlink:href="lcec_8h.html" target="_top" xlink:title="Header file for LinuxCNC&#45;Ethercat.">
<polygon fill="white" stroke="black" points="186,-168.5 186,-187.5 240,-187.5 240,-168.5 186,-168.5"/>
<text text-anchor="middle" x="213" y="-175.5" font-family="Helvetica,sans-Serif" font-size="10.00">../lcec.h</text>
</a>
</g>
</g>
<!-- Node1&#45;&gt;Node2 -->
<g id="edge1" class="edge">
<title>Node1&#45;&gt;Node2</title>
<path fill="none" stroke="midnightblue" d="M143.47,-392.48C113.06,-373.49 47.39,-325.76 71,-280 93.79,-235.83 145.81,-206.76 180.15,-191.59"/>
<polygon fill="midnightblue" stroke="midnightblue" points="181.93,-194.64 189.76,-187.51 179.19,-188.2 181.93,-194.64"/>
</g>
<!-- Node18 -->
<g id="node18" class="node">
<title>Node18</title>
<g id="a_node18"><a xlink:href="lcec__ax5805_8h.html" target="_top" xlink:title="Driver for Beckhoff AX5805 Servo controllers.">
<polygon fill="white" stroke="black" points="80,-280.5 80,-299.5 166,-299.5 166,-280.5 80,-280.5"/>
<text text-anchor="middle" x="123" y="-287.5" font-family="Helvetica,sans-Serif" font-size="10.00">lcec_ax5805.h</text>
</a>
</g>
</g>
<!-- Node1&#45;&gt;Node18 -->
<g id="edge19" class="edge">
<title>Node1&#45;&gt;Node18</title>
<path fill="none" stroke="midnightblue" d="M154.79,-392.42C151.44,-383.41 146.14,-368.78 142,-356 136.97,-340.44 131.79,-322.61 128.12,-309.56"/>
<polygon fill="midnightblue" stroke="midnightblue" points="131.48,-308.57 125.42,-299.88 124.74,-310.45 131.48,-308.57"/>
</g>
<!-- Node19 -->
<g id="node19" class="node">
<title>Node19</title>
<g id="a_node19"><a xlink:href="lcec__ax5100_8h.html" target="_top" xlink:title="Driver for Beckhoff AX5100 Servo controllers.">
<polygon fill="white" stroke="black" points="151,-336.5 151,-355.5 237,-355.5 237,-336.5 151,-336.5"/>
<text text-anchor="middle" x="194" y="-343.5" font-family="Helvetica,sans-Serif" font-size="10.00">lcec_ax5100.h</text>
</a>
</g>
</g>
<!-- Node1&#45;&gt;Node19 -->
<g id="edge21" class="edge">
<title>Node1&#45;&gt;Node19</title>
<path fill="none" stroke="midnightblue" d="M163.94,-392.08C168.98,-384.53 176.34,-373.49 182.51,-364.23"/>
<polygon fill="midnightblue" stroke="midnightblue" points="185.53,-366.01 188.17,-355.75 179.71,-362.13 185.53,-366.01"/>
</g>
<!-- Node22 -->
<g id="node22" class="node">
<title>Node22</title>
<g id="a_node22"><a xlink:href="lcec__ax5200_8h.html" target="_top" xlink:title="Driver for Beckhoff AX5200 Servo controllers.">
<polygon fill="white" stroke="black" points="255,-336.5 255,-355.5 341,-355.5 341,-336.5 255,-336.5"/>
<text text-anchor="middle" x="298" y="-343.5" font-family="Helvetica,sans-Serif" font-size="10.00">lcec_ax5200.h</text>
</a>
</g>
</g>
<!-- Node1&#45;&gt;Node22 -->
<g id="edge27" class="edge">
<title>Node1&#45;&gt;Node22</title>
<path fill="none" stroke="midnightblue" d="M180.18,-392.44C203.43,-383.48 240.15,-369.31 266.42,-359.18"/>
<polygon fill="midnightblue" stroke="midnightblue" points="267.85,-362.38 275.92,-355.52 265.33,-355.85 267.85,-362.38"/>
</g>
<!-- Node3 -->
<g id="node3" class="node">
<title>Node3</title>
<g id="a_node3"><a xlink:title=" ">
<polygon fill="white" stroke="#bfbfbf" points="0,-56.5 0,-75.5 44,-75.5 44,-56.5 0,-56.5"/>
<text text-anchor="middle" x="22" y="-63.5" font-family="Helvetica,sans-Serif" font-size="10.00">ecrt.h</text>
</a>
</g>
</g>
<!-- Node2&#45;&gt;Node3 -->
<g id="edge2" class="edge">
<title>Node2&#45;&gt;Node3</title>
<path fill="none" stroke="midnightblue" d="M185.98,-177.94C147.86,-177.73 78.55,-171.44 39,-132 27.01,-120.04 23.15,-100.74 22.06,-86.27"/>
<polygon fill="midnightblue" stroke="midnightblue" points="25.54,-85.8 21.67,-75.94 18.55,-86.06 25.54,-85.8"/>
</g>
<!-- Node4 -->
<g id="node4" class="node">
<title>Node4</title>
<g id="a_node4"><a xlink:title=" ">
<polygon fill="white" stroke="#bfbfbf" points="63.5,-56.5 63.5,-75.5 104.5,-75.5 104.5,-56.5 63.5,-56.5"/>
<text text-anchor="middle" x="84" y="-63.5" font-family="Helvetica,sans-Serif" font-size="10.00">hal.h</text>
</a>
</g>
</g>
<!-- Node2&#45;&gt;Node4 -->
<g id="edge3" class="edge">
<title>Node2&#45;&gt;Node4</title>
<path fill="none" stroke="midnightblue" d="M202.88,-168.37C181.02,-149.73 129.19,-105.53 101.75,-82.13"/>
<polygon fill="midnightblue" stroke="midnightblue" points="103.96,-79.42 94.08,-75.59 99.41,-84.74 103.96,-79.42"/>
</g>
<!-- Node5 -->
<g id="node5" class="node">
<title>Node5</title>
<g id="a_node5"><a xlink:href="lcec__conf_8h.html" target="_top" xlink:title=" ">
<polygon fill="white" stroke="black" points="48.5,-112.5 48.5,-131.5 119.5,-131.5 119.5,-112.5 48.5,-112.5"/>
<text text-anchor="middle" x="84" y="-119.5" font-family="Helvetica,sans-Serif" font-size="10.00">lcec_conf.h</text>
</a>
</g>
</g>
<!-- Node2&#45;&gt;Node5 -->
<g id="edge4" class="edge">
<title>Node2&#45;&gt;Node5</title>
<path fill="none" stroke="midnightblue" d="M192.56,-168.44C171.33,-159.56 137.9,-145.56 113.75,-135.45"/>
<polygon fill="midnightblue" stroke="midnightblue" points="114.92,-132.15 104.34,-131.52 112.22,-138.61 114.92,-132.15"/>
</g>
<!-- Node6 -->
<g id="node6" class="node">
<title>Node6</title>
<g id="a_node6"><a xlink:href="lcec__rtapi_8h.html" target="_top" xlink:title=" ">
<polygon fill="white" stroke="black" points="176.5,-112.5 176.5,-131.5 249.5,-131.5 249.5,-112.5 176.5,-112.5"/>
<text text-anchor="middle" x="213" y="-119.5" font-family="Helvetica,sans-Serif" font-size="10.00">lcec_rtapi.h</text>
</a>
</g>
</g>
<!-- Node2&#45;&gt;Node6 -->
<g id="edge7" class="edge">
<title>Node2&#45;&gt;Node6</title>
<path fill="none" stroke="midnightblue" d="M213,-168.08C213,-161.01 213,-150.86 213,-141.99"/>
<polygon fill="midnightblue" stroke="midnightblue" points="216.5,-141.75 213,-131.75 209.5,-141.75 216.5,-141.75"/>
</g>
<!-- Node15 -->
<g id="node15" class="node">
<title>Node15</title>
<g id="a_node15"><a xlink:title=" ">
<polygon fill="white" stroke="#bfbfbf" points="268,-112.5 268,-131.5 348,-131.5 348,-112.5 268,-112.5"/>
<text text-anchor="middle" x="308" y="-119.5" font-family="Helvetica,sans-Serif" font-size="10.00">rtapi_ctype.h</text>
</a>
</g>
</g>
<!-- Node2&#45;&gt;Node15 -->
<g id="edge16" class="edge">
<title>Node2&#45;&gt;Node15</title>
<path fill="none" stroke="midnightblue" d="M228.26,-168.32C243.22,-159.82 266.25,-146.73 283.73,-136.8"/>
<polygon fill="midnightblue" stroke="midnightblue" points="285.81,-139.64 292.77,-131.65 282.35,-133.55 285.81,-139.64"/>
</g>
<!-- Node16 -->
<g id="node16" class="node">
<title>Node16</title>
<g id="a_node16"><a xlink:title=" ">
<polygon fill="white" stroke="#bfbfbf" points="366.5,-112.5 366.5,-131.5 445.5,-131.5 445.5,-112.5 366.5,-112.5"/>
<text text-anchor="middle" x="406" y="-119.5" font-family="Helvetica,sans-Serif" font-size="10.00">rtapi_math.h</text>
</a>
</g>
</g>
<!-- Node2&#45;&gt;Node16 -->
<g id="edge17" class="edge">
<title>Node2&#45;&gt;Node16</title>
<path fill="none" stroke="midnightblue" d="M240.24,-169.38C272.96,-160.22 328.12,-144.79 365.75,-134.26"/>
<polygon fill="midnightblue" stroke="midnightblue" points="366.71,-137.63 375.39,-131.56 364.82,-130.89 366.71,-137.63"/>
</g>
<!-- Node17 -->
<g id="node17" class="node">
<title>Node17</title>
<g id="a_node17"><a xlink:title=" ">
<polygon fill="white" stroke="#bfbfbf" points="463.5,-112.5 463.5,-131.5 544.5,-131.5 544.5,-112.5 463.5,-112.5"/>
<text text-anchor="middle" x="504" y="-119.5" font-family="Helvetica,sans-Serif" font-size="10.00">rtapi_string.h</text>
</a>
</g>
</g>
<!-- Node2&#45;&gt;Node17 -->
<g id="edge18" class="edge">
<title>Node2&#45;&gt;Node17</title>
<path fill="none" stroke="midnightblue" d="M240.12,-171.97C288.77,-162.94 391.57,-143.86 453.52,-132.37"/>
<polygon fill="midnightblue" stroke="midnightblue" points="454.28,-135.79 463.47,-130.52 453,-128.9 454.28,-135.79"/>
</g>
<!-- Node5&#45;&gt;Node3 -->
<g id="edge5" class="edge">
<title>Node5&#45;&gt;Node3</title>
<path fill="none" stroke="midnightblue" d="M74.04,-112.32C64.87,-104.34 51.06,-92.31 39.97,-82.65"/>
<polygon fill="midnightblue" stroke="midnightblue" points="41.98,-79.76 32.14,-75.83 37.38,-85.04 41.98,-79.76"/>
</g>
<!-- Node5&#45;&gt;Node4 -->
<g id="edge6" class="edge">
<title>Node5&#45;&gt;Node4</title>
<path fill="none" stroke="midnightblue" d="M84,-112.08C84,-105.01 84,-94.86 84,-85.99"/>
<polygon fill="midnightblue" stroke="midnightblue" points="87.5,-85.75 84,-75.75 80.5,-85.75 87.5,-85.75"/>
</g>
<!-- Node7 -->
<g id="node7" class="node">
<title>Node7</title>
<g id="a_node7"><a xlink:title=" ">
<polygon fill="white" stroke="#bfbfbf" points="123,-56.5 123,-75.5 171,-75.5 171,-56.5 123,-56.5"/>
<text text-anchor="middle" x="147" y="-63.5" font-family="Helvetica,sans-Serif" font-size="10.00">rtapi.h</text>
</a>
</g>
</g>
<!-- Node6&#45;&gt;Node7 -->
<g id="edge8" class="edge">
<title>Node6&#45;&gt;Node7</title>
<path fill="none" stroke="midnightblue" d="M202.4,-112.32C192.54,-104.26 177.65,-92.08 165.78,-82.37"/>
<polygon fill="midnightblue" stroke="midnightblue" points="167.75,-79.46 157.8,-75.83 163.32,-84.88 167.75,-79.46"/>
</g>
<!-- Node8 -->
<g id="node8" class="node">
<title>Node8</title>
<g id="a_node8"><a xlink:title=" ">
<polygon fill="white" stroke="#bfbfbf" points="189.5,-56.5 189.5,-75.5 270.5,-75.5 270.5,-56.5 189.5,-56.5"/>
<text text-anchor="middle" x="230" y="-63.5" font-family="Helvetica,sans-Serif" font-size="10.00">rtapi_stdint.h</text>
</a>
</g>
</g>
<!-- Node6&#45;&gt;Node8 -->
<g id="edge9" class="edge">
<title>Node6&#45;&gt;Node8</title>
<path fill="none" stroke="midnightblue" d="M215.81,-112.08C218.08,-104.85 221.37,-94.41 224.21,-85.4"/>
<polygon fill="midnightblue" stroke="midnightblue" points="227.58,-86.34 227.25,-75.75 220.9,-84.24 227.58,-86.34"/>
</g>
<!-- Node9 -->
<g id="node9" class="node">
<title>Node9</title>
<g id="a_node9"><a xlink:href="lcec__rtapi__user_8h.html" target="_top" xlink:title=" ">
<polygon fill="white" stroke="black" points="289,-56.5 289,-75.5 387,-75.5 387,-56.5 289,-56.5"/>
<text text-anchor="middle" x="338" y="-63.5" font-family="Helvetica,sans-Serif" font-size="10.00">lcec_rtapi_user.h</text>
</a>
</g>
</g>
<!-- Node6&#45;&gt;Node9 -->
<g id="edge10" class="edge">
<title>Node6&#45;&gt;Node9</title>
<path fill="none" stroke="midnightblue" d="M232.81,-112.44C253.29,-103.6 285.48,-89.69 308.86,-79.59"/>
<polygon fill="midnightblue" stroke="midnightblue" points="310.49,-82.7 318.29,-75.52 307.72,-76.27 310.49,-82.7"/>
</g>
<!-- Node10 -->
<g id="node10" class="node">
<title>Node10</title>
<g id="a_node10"><a xlink:title=" ">
<polygon fill="white" stroke="#bfbfbf" points="168,-0.5 168,-19.5 222,-19.5 222,-0.5 168,-0.5"/>
<text text-anchor="middle" x="195" y="-7.5" font-family="Helvetica,sans-Serif" font-size="10.00">sched.h</text>
</a>
</g>
</g>
<!-- Node9&#45;&gt;Node10 -->
<g id="edge11" class="edge">
<title>Node9&#45;&gt;Node10</title>
<path fill="none" stroke="midnightblue" d="M315.34,-56.44C291.6,-47.48 254.09,-33.31 227.26,-23.18"/>
<polygon fill="midnightblue" stroke="midnightblue" points="228.14,-19.77 217.55,-19.52 225.67,-26.32 228.14,-19.77"/>
</g>
<!-- Node11 -->
<g id="node11" class="node">
<title>Node11</title>
<g id="a_node11"><a xlink:title=" ">
<polygon fill="white" stroke="#bfbfbf" points="240.5,-0.5 240.5,-19.5 293.5,-19.5 293.5,-0.5 240.5,-0.5"/>
<text text-anchor="middle" x="267" y="-7.5" font-family="Helvetica,sans-Serif" font-size="10.00">stdlib.h</text>
</a>
</g>
</g>
<!-- Node9&#45;&gt;Node11 -->
<g id="edge12" class="edge">
<title>Node9&#45;&gt;Node11</title>
<path fill="none" stroke="midnightblue" d="M326.59,-56.32C315.89,-48.18 299.66,-35.84 286.84,-26.09"/>
<polygon fill="midnightblue" stroke="midnightblue" points="288.69,-23.1 278.61,-19.83 284.46,-28.67 288.69,-23.1"/>
</g>
<!-- Node12 -->
<g id="node12" class="node">
<title>Node12</title>
<g id="a_node12"><a xlink:title=" ">
<polygon fill="white" stroke="#bfbfbf" points="311.5,-0.5 311.5,-19.5 364.5,-19.5 364.5,-0.5 311.5,-0.5"/>
<text text-anchor="middle" x="338" y="-7.5" font-family="Helvetica,sans-Serif" font-size="10.00">string.h</text>
</a>
</g>
</g>
<!-- Node9&#45;&gt;Node12 -->
<g id="edge13" class="edge">
<title>Node9&#45;&gt;Node12</title>
<path fill="none" stroke="midnightblue" d="M338,-56.08C338,-49.01 338,-38.86 338,-29.99"/>
<polygon fill="midnightblue" stroke="midnightblue" points="341.5,-29.75 338,-19.75 334.5,-29.75 341.5,-29.75"/>
</g>
<!-- Node13 -->
<g id="node13" class="node">
<title>Node13</title>
<g id="a_node13"><a xlink:title=" ">
<polygon fill="white" stroke="#bfbfbf" points="383,-0.5 383,-19.5 451,-19.5 451,-0.5 383,-0.5"/>
<text text-anchor="middle" x="417" y="-7.5" font-family="Helvetica,sans-Serif" font-size="10.00">sys/time.h</text>
</a>
</g>
</g>
<!-- Node9&#45;&gt;Node13 -->
<g id="edge14" class="edge">
<title>Node9&#45;&gt;Node13</title>
<path fill="none" stroke="midnightblue" d="M350.69,-56.32C362.9,-47.98 381.58,-35.21 396,-25.35"/>
<polygon fill="midnightblue" stroke="midnightblue" points="398.06,-28.19 404.34,-19.65 394.11,-22.41 398.06,-28.19"/>
</g>
<!-- Node14 -->
<g id="node14" class="node">
<title>Node14</title>
<g id="a_node14"><a xlink:title=" ">
<polygon fill="white" stroke="#bfbfbf" points="469,-0.5 469,-19.5 517,-19.5 517,-0.5 469,-0.5"/>
<text text-anchor="middle" x="493" y="-7.5" font-family="Helvetica,sans-Serif" font-size="10.00">time.h</text>
</a>
</g>
</g>
<!-- Node9&#45;&gt;Node14 -->
<g id="edge15" class="edge">
<title>Node9&#45;&gt;Node14</title>
<path fill="none" stroke="midnightblue" d="M362.56,-56.44C388.6,-47.37 429.91,-32.98 459.05,-22.83"/>
<polygon fill="midnightblue" stroke="midnightblue" points="460.52,-26.02 468.81,-19.43 458.22,-19.41 460.52,-26.02"/>
</g>
<!-- Node18&#45;&gt;Node2 -->
<g id="edge20" class="edge">
<title>Node18&#45;&gt;Node2</title>
<path fill="none" stroke="midnightblue" d="M130.06,-280.37C145.05,-262.05 180.23,-219.05 199.61,-195.36"/>
<polygon fill="midnightblue" stroke="midnightblue" points="202.35,-197.55 205.97,-187.59 196.93,-193.11 202.35,-197.55"/>
</g>
<!-- Node19&#45;&gt;Node2 -->
<g id="edge22" class="edge">
<title>Node19&#45;&gt;Node2</title>
<path fill="none" stroke="midnightblue" d="M195.02,-336.08C198.01,-309.95 206.8,-233.21 210.87,-197.58"/>
<polygon fill="midnightblue" stroke="midnightblue" points="214.36,-197.9 212.02,-187.57 207.4,-197.11 214.36,-197.9"/>
</g>
<!-- Node20 -->
<g id="node20" class="node">
<title>Node20</title>
<g id="a_node20"><a xlink:href="lcec__class__ax5_8h.html" target="_top" xlink:title="Library for Beckhoff AX5xxx controllers.">
<polygon fill="white" stroke="black" points="236,-280.5 236,-299.5 334,-299.5 334,-280.5 236,-280.5"/>
<text text-anchor="middle" x="285" y="-287.5" font-family="Helvetica,sans-Serif" font-size="10.00">lcec_class_ax5.h</text>
</a>
</g>
</g>
<!-- Node19&#45;&gt;Node20 -->
<g id="edge23" class="edge">
<title>Node19&#45;&gt;Node20</title>
<path fill="none" stroke="midnightblue" d="M208.62,-336.32C222.95,-327.82 245.01,-314.73 261.75,-304.8"/>
<polygon fill="midnightblue" stroke="midnightblue" points="263.6,-307.77 270.42,-299.65 260.03,-301.75 263.6,-307.77"/>
</g>
<!-- Node20&#45;&gt;Node2 -->
<g id="edge24" class="edge">
<title>Node20&#45;&gt;Node2</title>
<path fill="none" stroke="midnightblue" d="M277.91,-280.26C270.8,-271.35 259.69,-257.04 251,-244 240.6,-228.4 229.92,-209.88 222.55,-196.6"/>
<polygon fill="midnightblue" stroke="midnightblue" points="225.49,-194.69 217.61,-187.61 219.35,-198.06 225.49,-194.69"/>
</g>
<!-- Node21 -->
<g id="node21" class="node">
<title>Node21</title>
<g id="a_node21"><a xlink:href="lcec__class__enc_8h.html" target="_top" xlink:title="Library for encoder&#45;like devices.">
<polygon fill="white" stroke="black" points="260,-224.5 260,-243.5 358,-243.5 358,-224.5 260,-224.5"/>
<text text-anchor="middle" x="309" y="-231.5" font-family="Helvetica,sans-Serif" font-size="10.00">lcec_class_enc.h</text>
</a>
</g>
</g>
<!-- Node20&#45;&gt;Node21 -->
<g id="edge25" class="edge">
<title>Node20&#45;&gt;Node21</title>
<path fill="none" stroke="midnightblue" d="M288.96,-280.08C292.21,-272.77 296.92,-262.18 300.95,-253.1"/>
<polygon fill="midnightblue" stroke="midnightblue" points="304.25,-254.31 305.11,-243.75 297.85,-251.47 304.25,-254.31"/>
</g>
<!-- Node21&#45;&gt;Node2 -->
<g id="edge26" class="edge">
<title>Node21&#45;&gt;Node2</title>
<path fill="none" stroke="midnightblue" d="M293.58,-224.32C278.46,-215.82 255.18,-202.73 237.53,-192.8"/>
<polygon fill="midnightblue" stroke="midnightblue" points="238.82,-189.51 228.39,-187.65 235.39,-195.61 238.82,-189.51"/>
</g>
<!-- Node22&#45;&gt;Node2 -->
<g id="edge28" class="edge">
<title>Node22&#45;&gt;Node2</title>
<path fill="none" stroke="midnightblue" d="M309.83,-336.34C336.4,-315.83 396.3,-263.09 367,-224 352.95,-205.25 290.85,-191.71 249.93,-184.63"/>
<polygon fill="midnightblue" stroke="midnightblue" points="250.47,-181.17 240.02,-182.97 249.31,-188.07 250.47,-181.17"/>
</g>
<!-- Node22&#45;&gt;Node20 -->
<g id="edge29" class="edge">
<title>Node22&#45;&gt;Node20</title>
<path fill="none" stroke="midnightblue" d="M295.85,-336.08C294.13,-328.93 291.65,-318.64 289.5,-309.69"/>
<polygon fill="midnightblue" stroke="midnightblue" points="292.85,-308.65 287.11,-299.75 286.04,-310.29 292.85,-308.65"/>
</g>
</g>
</svg>
