<?xml version="1.0" encoding="UTF-8" standalone="no"?>
<!DOCTYPE svg PUBLIC "-//W3C//DTD SVG 1.1//EN"
 "http://www.w3.org/Graphics/SVG/1.1/DTD/svg11.dtd">
<!-- Generated by graphviz version 2.43.0 (0)
 -->
<!-- Title: src/devices/lcec_el1918_logic.h Pages: 1 -->
<svg width="140pt" height="106pt"
 viewBox="0.00 0.00 140.00 106.00" xmlns="http://www.w3.org/2000/svg" xmlns:xlink="http://www.w3.org/1999/xlink">
<g id="graph0" class="graph" transform="scale(1 1) rotate(0) translate(4 102)">
<title>src/devices/lcec_el1918_logic.h</title>
<polygon fill="white" stroke="transparent" points="-4,4 -4,-102 136,-102 136,4 -4,4"/>
<!-- Node1 -->
<g id="node1" class="node">
<title>Node1</title>
<g id="a_node1"><a xlink:title="Driver for Beckhoff EL1918&#45;LOGIC safety terminals.">
<polygon fill="#bfbfbf" stroke="black" points="0,-67.5 0,-97.5 132,-97.5 132,-67.5 0,-67.5"/>
<text text-anchor="start" x="8" y="-85.5" font-family="Helvetica,sans-Serif" font-size="10.00">src/devices/lcec_el1918</text>
<text text-anchor="middle" x="66" y="-74.5" font-family="Helvetica,sans-Serif" font-size="10.00">_logic.h</text>
</a>
</g>
</g>
<!-- Node2 -->
<g id="node2" class="node">
<title>Node2</title>
<g id="a_node2"><a xlink:href="lcec__el1918__logic_8c.html" target="_top" xlink:title="Driver for Beckhoff EL1918&#45;LOGIC safety terminals.">
<polygon fill="white" stroke="black" points="0,-0.5 0,-30.5 132,-30.5 132,-0.5 0,-0.5"/>
<text text-anchor="start" x="8" y="-18.5" font-family="Helvetica,sans-Serif" font-size="10.00">src/devices/lcec_el1918</text>
<text text-anchor="middle" x="66" y="-7.5" font-family="Helvetica,sans-Serif" font-size="10.00">_logic.c</text>
</a>
</g>
</g>
<!-- Node1&#45;&gt;Node2 -->
<g id="edge1" class="edge">
<title>Node1&#45;&gt;Node2</title>
<path fill="none" stroke="midnightblue" d="M66,-57.11C66,-48.15 66,-38.32 66,-30.58"/>
<polygon fill="midnightblue" stroke="midnightblue" points="62.5,-57.4 66,-67.4 69.5,-57.4 62.5,-57.4"/>
</g>
</g>
</svg>
