<?xml version="1.0" encoding="UTF-8" standalone="no"?>
<!DOCTYPE svg PUBLIC "-//W3C//DTD SVG 1.1//EN"
 "http://www.w3.org/Graphics/SVG/1.1/DTD/svg11.dtd">
<!-- Generated by graphviz version 2.43.0 (0)
 -->
<!-- Title: src/lcec_rtapi_kmod.h Pages: 1 -->
<svg width="480pt" height="84pt"
 viewBox="0.00 0.00 479.50 84.00" xmlns="http://www.w3.org/2000/svg" xmlns:xlink="http://www.w3.org/1999/xlink">
<g id="graph0" class="graph" transform="scale(1 1) rotate(0) translate(4 80)">
<title>src/lcec_rtapi_kmod.h</title>
<polygon fill="white" stroke="transparent" points="-4,4 -4,-80 475.5,-80 475.5,4 -4,4"/>
<!-- Node1 -->
<g id="node1" class="node">
<title>Node1</title>
<g id="a_node1"><a xlink:title=" ">
<polygon fill="#bfbfbf" stroke="black" points="185.5,-56.5 185.5,-75.5 308.5,-75.5 308.5,-56.5 185.5,-56.5"/>
<text text-anchor="middle" x="247" y="-63.5" font-family="Helvetica,sans-Serif" font-size="10.00">src/lcec_rtapi_kmod.h</text>
</a>
</g>
</g>
<!-- Node2 -->
<g id="node2" class="node">
<title>Node2</title>
<g id="a_node2"><a xlink:title=" ">
<polygon fill="white" stroke="#bfbfbf" points="0,-0.5 0,-19.5 80,-19.5 80,-0.5 0,-0.5"/>
<text text-anchor="middle" x="40" y="-7.5" font-family="Helvetica,sans-Serif" font-size="10.00">linux/jiffies.h</text>
</a>
</g>
</g>
<!-- Node1&#45;&gt;Node2 -->
<g id="edge1" class="edge">
<title>Node1&#45;&gt;Node2</title>
<path fill="none" stroke="midnightblue" d="M214.2,-56.44C178.62,-47.16 121.69,-32.31 82.65,-22.13"/>
<polygon fill="midnightblue" stroke="midnightblue" points="83.21,-18.65 72.65,-19.52 81.44,-25.43 83.21,-18.65"/>
</g>
<!-- Node3 -->
<g id="node3" class="node">
<title>Node3</title>
<g id="a_node3"><a xlink:title=" ">
<polygon fill="white" stroke="#bfbfbf" points="98,-0.5 98,-19.5 188,-19.5 188,-0.5 98,-0.5"/>
<text text-anchor="middle" x="143" y="-7.5" font-family="Helvetica,sans-Serif" font-size="10.00">linux/math64.h</text>
</a>
</g>
</g>
<!-- Node1&#45;&gt;Node3 -->
<g id="edge2" class="edge">
<title>Node1&#45;&gt;Node3</title>
<path fill="none" stroke="midnightblue" d="M230.29,-56.32C213.69,-47.7 188,-34.36 168.78,-24.39"/>
<polygon fill="midnightblue" stroke="midnightblue" points="170.16,-21.16 159.67,-19.65 166.93,-27.37 170.16,-21.16"/>
</g>
<!-- Node4 -->
<g id="node4" class="node">
<title>Node4</title>
<g id="a_node4"><a xlink:title=" ">
<polygon fill="white" stroke="#bfbfbf" points="206.5,-0.5 206.5,-19.5 287.5,-19.5 287.5,-0.5 206.5,-0.5"/>
<text text-anchor="middle" x="247" y="-7.5" font-family="Helvetica,sans-Serif" font-size="10.00">linux/sched.h</text>
</a>
</g>
</g>
<!-- Node1&#45;&gt;Node4 -->
<g id="edge3" class="edge">
<title>Node1&#45;&gt;Node4</title>
<path fill="none" stroke="midnightblue" d="M247,-56.08C247,-49.01 247,-38.86 247,-29.99"/>
<polygon fill="midnightblue" stroke="midnightblue" points="250.5,-29.75 247,-19.75 243.5,-29.75 250.5,-29.75"/>
</g>
<!-- Node5 -->
<g id="node5" class="node">
<title>Node5</title>
<g id="a_node5"><a xlink:title=" ">
<polygon fill="white" stroke="#bfbfbf" points="305.5,-0.5 305.5,-19.5 378.5,-19.5 378.5,-0.5 305.5,-0.5"/>
<text text-anchor="middle" x="342" y="-7.5" font-family="Helvetica,sans-Serif" font-size="10.00">linux/slab.h</text>
</a>
</g>
</g>
<!-- Node1&#45;&gt;Node5 -->
<g id="edge4" class="edge">
<title>Node1&#45;&gt;Node5</title>
<path fill="none" stroke="midnightblue" d="M262.26,-56.32C277.22,-47.82 300.25,-34.73 317.73,-24.8"/>
<polygon fill="midnightblue" stroke="midnightblue" points="319.81,-27.64 326.77,-19.65 316.35,-21.55 319.81,-27.64"/>
</g>
<!-- Node6 -->
<g id="node6" class="node">
<title>Node6</title>
<g id="a_node6"><a xlink:title=" ">
<polygon fill="white" stroke="#bfbfbf" points="396.5,-0.5 396.5,-19.5 471.5,-19.5 471.5,-0.5 396.5,-0.5"/>
<text text-anchor="middle" x="434" y="-7.5" font-family="Helvetica,sans-Serif" font-size="10.00">linux/time.h</text>
</a>
</g>
</g>
<!-- Node1&#45;&gt;Node6 -->
<g id="edge5" class="edge">
<title>Node1&#45;&gt;Node6</title>
<path fill="none" stroke="midnightblue" d="M276.63,-56.44C308.5,-47.24 359.33,-32.56 394.56,-22.39"/>
<polygon fill="midnightblue" stroke="midnightblue" points="395.87,-25.65 404.51,-19.52 393.93,-18.93 395.87,-25.65"/>
</g>
</g>
</svg>
