<?xml version="1.0" encoding="UTF-8" standalone="no"?>
<!DOCTYPE svg PUBLIC "-//W3C//DTD SVG 1.1//EN"
 "http://www.w3.org/Graphics/SVG/1.1/DTD/svg11.dtd">
<!-- Generated by graphviz version 2.43.0 (0)
 -->
<!-- Title: src/lcec_conf.c Pages: 1 -->
<svg width="839pt" height="252pt"
 viewBox="0.00 0.00 838.84 252.00" xmlns="http://www.w3.org/2000/svg" xmlns:xlink="http://www.w3.org/1999/xlink">
<g id="graph0" class="graph" transform="scale(1 1) rotate(0) translate(4 248)">
<title>src/lcec_conf.c</title>
<polygon fill="white" stroke="transparent" points="-4,4 -4,-248 834.84,-248 834.84,4 -4,4"/>
<!-- Node1 -->
<g id="node1" class="node">
<title>Node1</title>
<g id="a_node1"><a xlink:title="Code for lcec_conf configuration tool.">
<polygon fill="#bfbfbf" stroke="black" points="294.84,-224.5 294.84,-243.5 381.84,-243.5 381.84,-224.5 294.84,-224.5"/>
<text text-anchor="middle" x="338.34" y="-231.5" font-family="Helvetica,sans-Serif" font-size="10.00">src/lcec_conf.c</text>
</a>
</g>
</g>
<!-- Node2 -->
<g id="node2" class="node">
<title>Node2</title>
<g id="a_node2"><a xlink:href="lcec__conf_8h.html" target="_top" xlink:title=" ">
<polygon fill="white" stroke="black" points="226.84,-112.5 226.84,-131.5 297.84,-131.5 297.84,-112.5 226.84,-112.5"/>
<text text-anchor="middle" x="262.34" y="-119.5" font-family="Helvetica,sans-Serif" font-size="10.00">lcec_conf.h</text>
</a>
</g>
</g>
<!-- Node1&#45;&gt;Node2 -->
<g id="edge1" class="edge">
<title>Node1&#45;&gt;Node2</title>
<path fill="none" stroke="midnightblue" d="M382.08,-230.94C442.57,-227.07 546.94,-216.37 570.34,-188 575.99,-181.14 576.18,-174.7 570.34,-168 533.38,-125.63 380.8,-140.22 308.26,-131.79"/>
<polygon fill="midnightblue" stroke="midnightblue" points="308.55,-128.3 298.16,-130.37 307.58,-135.23 308.55,-128.3"/>
</g>
<!-- Node4 -->
<g id="node4" class="node">
<title>Node4</title>
<g id="a_node4"><a xlink:title=" ">
<polygon fill="white" stroke="#bfbfbf" points="241.84,-56.5 241.84,-75.5 282.84,-75.5 282.84,-56.5 241.84,-56.5"/>
<text text-anchor="middle" x="262.34" y="-63.5" font-family="Helvetica,sans-Serif" font-size="10.00">hal.h</text>
</a>
</g>
</g>
<!-- Node1&#45;&gt;Node4 -->
<g id="edge11" class="edge">
<title>Node1&#45;&gt;Node4</title>
<path fill="none" stroke="midnightblue" d="M294.64,-233.34C217.73,-232.9 63.12,-227.06 29.34,-188 -31.89,-117.21 155.02,-82.13 231.38,-71.02"/>
<polygon fill="midnightblue" stroke="midnightblue" points="231.98,-74.47 241.39,-69.61 231,-67.54 231.98,-74.47"/>
</g>
<!-- Node5 -->
<g id="node5" class="node">
<title>Node5</title>
<g id="a_node5"><a xlink:title=" ">
<polygon fill="white" stroke="#bfbfbf" points="38.84,-168.5 38.84,-187.5 91.84,-187.5 91.84,-168.5 38.84,-168.5"/>
<text text-anchor="middle" x="65.34" y="-175.5" font-family="Helvetica,sans-Serif" font-size="10.00">ctype.h</text>
</a>
</g>
</g>
<!-- Node1&#45;&gt;Node5 -->
<g id="edge4" class="edge">
<title>Node1&#45;&gt;Node5</title>
<path fill="none" stroke="midnightblue" d="M294.66,-224.86C247.98,-216.08 171.83,-201.54 106.34,-188 105.05,-187.73 103.75,-187.46 102.43,-187.18"/>
<polygon fill="midnightblue" stroke="midnightblue" points="102.74,-183.67 92.22,-185 101.27,-190.52 102.74,-183.67"/>
</g>
<!-- Node6 -->
<g id="node6" class="node">
<title>Node6</title>
<g id="a_node6"><a xlink:title=" ">
<polygon fill="white" stroke="#bfbfbf" points="124.84,-112.5 124.84,-131.5 177.84,-131.5 177.84,-112.5 124.84,-112.5"/>
<text text-anchor="middle" x="151.34" y="-119.5" font-family="Helvetica,sans-Serif" font-size="10.00">expat.h</text>
</a>
</g>
</g>
<!-- Node1&#45;&gt;Node6 -->
<g id="edge5" class="edge">
<title>Node1&#45;&gt;Node6</title>
<path fill="none" stroke="midnightblue" d="M294.72,-229.38C242.13,-224 158.41,-211.87 139.34,-188 128.73,-174.73 134.41,-155.06 141.08,-140.84"/>
<polygon fill="midnightblue" stroke="midnightblue" points="144.37,-142.1 145.9,-131.62 138.17,-138.86 144.37,-142.1"/>
</g>
<!-- Node7 -->
<g id="node7" class="node">
<title>Node7</title>
<g id="a_node7"><a xlink:title=" ">
<polygon fill="white" stroke="#bfbfbf" points="148.84,-168.5 148.84,-187.5 203.84,-187.5 203.84,-168.5 148.84,-168.5"/>
<text text-anchor="middle" x="176.34" y="-175.5" font-family="Helvetica,sans-Serif" font-size="10.00">signal.h</text>
</a>
</g>
</g>
<!-- Node1&#45;&gt;Node7 -->
<g id="edge6" class="edge">
<title>Node1&#45;&gt;Node7</title>
<path fill="none" stroke="midnightblue" d="M312.67,-224.44C285.42,-215.36 242.15,-200.94 211.69,-190.78"/>
<polygon fill="midnightblue" stroke="midnightblue" points="212.48,-187.36 201.89,-187.52 210.27,-194 212.48,-187.36"/>
</g>
<!-- Node8 -->
<g id="node8" class="node">
<title>Node8</title>
<g id="a_node8"><a xlink:title=" ">
<polygon fill="white" stroke="#bfbfbf" points="222.34,-168.5 222.34,-187.5 272.34,-187.5 272.34,-168.5 222.34,-168.5"/>
<text text-anchor="middle" x="247.34" y="-175.5" font-family="Helvetica,sans-Serif" font-size="10.00">stdio.h</text>
</a>
</g>
</g>
<!-- Node1&#45;&gt;Node8 -->
<g id="edge7" class="edge">
<title>Node1&#45;&gt;Node8</title>
<path fill="none" stroke="midnightblue" d="M323.72,-224.32C309.39,-215.82 287.33,-202.73 270.59,-192.8"/>
<polygon fill="midnightblue" stroke="midnightblue" points="272.31,-189.75 261.92,-187.65 268.74,-195.77 272.31,-189.75"/>
</g>
<!-- Node9 -->
<g id="node9" class="node">
<title>Node9</title>
<g id="a_node9"><a xlink:title=" ">
<polygon fill="white" stroke="#bfbfbf" points="240.84,-0.5 240.84,-19.5 293.84,-19.5 293.84,-0.5 240.84,-0.5"/>
<text text-anchor="middle" x="267.34" y="-7.5" font-family="Helvetica,sans-Serif" font-size="10.00">string.h</text>
</a>
</g>
</g>
<!-- Node1&#45;&gt;Node9 -->
<g id="edge8" class="edge">
<title>Node1&#45;&gt;Node9</title>
<path fill="none" stroke="midnightblue" d="M294.56,-233.66C214.87,-233.81 51.02,-229 15.34,-188 -56.08,-105.94 145.24,-42.51 230.85,-19.93"/>
<polygon fill="midnightblue" stroke="midnightblue" points="231.89,-23.28 240.69,-17.38 230.13,-16.5 231.89,-23.28"/>
</g>
<!-- Node10 -->
<g id="node10" class="node">
<title>Node10</title>
<g id="a_node10"><a xlink:title=" ">
<polygon fill="white" stroke="#bfbfbf" points="403.84,-168.5 403.84,-187.5 486.84,-187.5 486.84,-168.5 403.84,-168.5"/>
<text text-anchor="middle" x="445.34" y="-175.5" font-family="Helvetica,sans-Serif" font-size="10.00">sys/eventfd.h</text>
</a>
</g>
</g>
<!-- Node1&#45;&gt;Node10 -->
<g id="edge9" class="edge">
<title>Node1&#45;&gt;Node10</title>
<path fill="none" stroke="midnightblue" d="M355.53,-224.32C372.69,-215.66 399.28,-202.24 419.09,-192.25"/>
<polygon fill="midnightblue" stroke="midnightblue" points="420.84,-195.28 428.19,-187.65 417.68,-189.04 420.84,-195.28"/>
</g>
<!-- Node11 -->
<g id="node11" class="node">
<title>Node11</title>
<g id="a_node11"><a xlink:title=" ">
<polygon fill="white" stroke="#bfbfbf" points="505.34,-168.5 505.34,-187.5 561.34,-187.5 561.34,-168.5 505.34,-168.5"/>
<text text-anchor="middle" x="533.34" y="-175.5" font-family="Helvetica,sans-Serif" font-size="10.00">unistd.h</text>
</a>
</g>
</g>
<!-- Node1&#45;&gt;Node11 -->
<g id="edge10" class="edge">
<title>Node1&#45;&gt;Node11</title>
<path fill="none" stroke="midnightblue" d="M369.24,-224.44C403.4,-214.98 458.45,-199.74 495.25,-189.55"/>
<polygon fill="midnightblue" stroke="midnightblue" points="496.41,-192.86 505.12,-186.82 494.55,-186.11 496.41,-192.86"/>
</g>
<!-- Node12 -->
<g id="node12" class="node">
<title>Node12</title>
<g id="a_node12"><a xlink:href="lcec_8h.html" target="_top" xlink:title="Header file for LinuxCNC&#45;Ethercat.">
<polygon fill="white" stroke="black" points="617.84,-168.5 617.84,-187.5 662.84,-187.5 662.84,-168.5 617.84,-168.5"/>
<text text-anchor="middle" x="640.34" y="-175.5" font-family="Helvetica,sans-Serif" font-size="10.00">lcec.h</text>
</a>
</g>
</g>
<!-- Node1&#45;&gt;Node12 -->
<g id="edge12" class="edge">
<title>Node1&#45;&gt;Node12</title>
<path fill="none" stroke="midnightblue" d="M382.12,-226.53C434.81,-218.53 525.87,-203.98 603.34,-188 604.79,-187.7 606.28,-187.38 607.78,-187.05"/>
<polygon fill="midnightblue" stroke="midnightblue" points="608.73,-190.43 617.7,-184.77 607.17,-183.6 608.73,-190.43"/>
</g>
<!-- Node13 -->
<g id="node13" class="node">
<title>Node13</title>
<g id="a_node13"><a xlink:href="lcec__rtapi_8h.html" target="_top" xlink:title=" ">
<polygon fill="white" stroke="black" points="687.84,-112.5 687.84,-131.5 760.84,-131.5 760.84,-112.5 687.84,-112.5"/>
<text text-anchor="middle" x="724.34" y="-119.5" font-family="Helvetica,sans-Serif" font-size="10.00">lcec_rtapi.h</text>
</a>
</g>
</g>
<!-- Node1&#45;&gt;Node13 -->
<g id="edge30" class="edge">
<title>Node1&#45;&gt;Node13</title>
<path fill="none" stroke="midnightblue" d="M381.98,-231.12C460.87,-227.09 623.58,-215.59 672.34,-188 691.53,-177.14 706.31,-156.14 715.13,-140.94"/>
<polygon fill="midnightblue" stroke="midnightblue" points="718.32,-142.4 720.05,-131.95 712.18,-139.04 718.32,-142.4"/>
</g>
<!-- Node14 -->
<g id="node14" class="node">
<title>Node14</title>
<g id="a_node14"><a xlink:title=" ">
<polygon fill="white" stroke="#bfbfbf" points="765.34,-56.5 765.34,-75.5 813.34,-75.5 813.34,-56.5 765.34,-56.5"/>
<text text-anchor="middle" x="789.34" y="-63.5" font-family="Helvetica,sans-Serif" font-size="10.00">rtapi.h</text>
</a>
</g>
</g>
<!-- Node1&#45;&gt;Node14 -->
<g id="edge31" class="edge">
<title>Node1&#45;&gt;Node14</title>
<path fill="none" stroke="midnightblue" d="M382.03,-230.39C464.78,-224.98 641.12,-211.08 697.34,-188 735.17,-172.47 747.24,-165.74 770.34,-132 779.78,-118.21 784.6,-99.68 787.01,-85.94"/>
<polygon fill="midnightblue" stroke="midnightblue" points="790.52,-86.13 788.52,-75.73 783.6,-85.11 790.52,-86.13"/>
</g>
<!-- Node24 -->
<g id="node24" class="node">
<title>Node24</title>
<g id="a_node24"><a xlink:href="lcec__conf__priv_8h.html" target="_top" xlink:title=" ">
<polygon fill="white" stroke="black" points="290.84,-168.5 290.84,-187.5 385.84,-187.5 385.84,-168.5 290.84,-168.5"/>
<text text-anchor="middle" x="338.34" y="-175.5" font-family="Helvetica,sans-Serif" font-size="10.00">lcec_conf_priv.h</text>
</a>
</g>
</g>
<!-- Node1&#45;&gt;Node24 -->
<g id="edge28" class="edge">
<title>Node1&#45;&gt;Node24</title>
<path fill="none" stroke="midnightblue" d="M338.34,-224.08C338.34,-217.01 338.34,-206.86 338.34,-197.99"/>
<polygon fill="midnightblue" stroke="midnightblue" points="341.84,-197.75 338.34,-187.75 334.84,-197.75 341.84,-197.75"/>
</g>
<!-- Node3 -->
<g id="node3" class="node">
<title>Node3</title>
<g id="a_node3"><a xlink:title=" ">
<polygon fill="white" stroke="#bfbfbf" points="394.34,-56.5 394.34,-75.5 438.34,-75.5 438.34,-56.5 394.34,-56.5"/>
<text text-anchor="middle" x="416.34" y="-63.5" font-family="Helvetica,sans-Serif" font-size="10.00">ecrt.h</text>
</a>
</g>
</g>
<!-- Node2&#45;&gt;Node3 -->
<g id="edge2" class="edge">
<title>Node2&#45;&gt;Node3</title>
<path fill="none" stroke="midnightblue" d="M286.74,-112.44C313.14,-103.19 355.35,-88.39 384.38,-78.21"/>
<polygon fill="midnightblue" stroke="midnightblue" points="385.77,-81.43 394.05,-74.82 383.46,-74.82 385.77,-81.43"/>
</g>
<!-- Node2&#45;&gt;Node4 -->
<g id="edge3" class="edge">
<title>Node2&#45;&gt;Node4</title>
<path fill="none" stroke="midnightblue" d="M262.34,-112.08C262.34,-105.01 262.34,-94.86 262.34,-85.99"/>
<polygon fill="midnightblue" stroke="midnightblue" points="265.84,-85.75 262.34,-75.75 258.84,-85.75 265.84,-85.75"/>
</g>
<!-- Node12&#45;&gt;Node2 -->
<g id="edge15" class="edge">
<title>Node12&#45;&gt;Node2</title>
<path fill="none" stroke="midnightblue" d="M617.73,-171.05C613,-169.94 608.02,-168.85 603.34,-168 476.13,-144.88 439.94,-152.6 308.23,-132.02"/>
<polygon fill="midnightblue" stroke="midnightblue" points="308.58,-128.53 298.15,-130.42 307.48,-135.45 308.58,-128.53"/>
</g>
<!-- Node12&#45;&gt;Node3 -->
<g id="edge13" class="edge">
<title>Node12&#45;&gt;Node3</title>
<path fill="none" stroke="midnightblue" d="M642.64,-168.17C645.67,-154.37 649.11,-127.62 635.34,-112 611.1,-84.5 503.38,-73.08 448.59,-68.99"/>
<polygon fill="midnightblue" stroke="midnightblue" points="448.6,-65.48 438.37,-68.26 448.1,-72.46 448.6,-65.48"/>
</g>
<!-- Node12&#45;&gt;Node4 -->
<g id="edge14" class="edge">
<title>Node12&#45;&gt;Node4</title>
<path fill="none" stroke="midnightblue" d="M637.91,-168.1C633.47,-153.67 622.59,-125.46 602.34,-112 576.82,-95.04 372.56,-76.26 293.47,-69.55"/>
<polygon fill="midnightblue" stroke="midnightblue" points="293.43,-66.04 283.17,-68.69 292.84,-73.01 293.43,-66.04"/>
</g>
<!-- Node12&#45;&gt;Node13 -->
<g id="edge16" class="edge">
<title>Node12&#45;&gt;Node13</title>
<path fill="none" stroke="midnightblue" d="M653.83,-168.32C666.94,-159.9 687.05,-146.97 702.44,-137.07"/>
<polygon fill="midnightblue" stroke="midnightblue" points="704.36,-140.01 710.88,-131.65 700.57,-134.12 704.36,-140.01"/>
</g>
<!-- Node21 -->
<g id="node21" class="node">
<title>Node21</title>
<g id="a_node21"><a xlink:title=" ">
<polygon fill="white" stroke="#bfbfbf" points="316.34,-112.5 316.34,-131.5 396.34,-131.5 396.34,-112.5 316.34,-112.5"/>
<text text-anchor="middle" x="356.34" y="-119.5" font-family="Helvetica,sans-Serif" font-size="10.00">rtapi_ctype.h</text>
</a>
</g>
</g>
<!-- Node12&#45;&gt;Node21 -->
<g id="edge25" class="edge">
<title>Node12&#45;&gt;Node21</title>
<path fill="none" stroke="midnightblue" d="M617.69,-171.27C612.96,-170.13 607.99,-168.99 603.34,-168 593.75,-165.96 475.66,-144.57 406.3,-132.02"/>
<polygon fill="midnightblue" stroke="midnightblue" points="406.9,-128.58 396.44,-130.24 405.65,-135.47 406.9,-128.58"/>
</g>
<!-- Node22 -->
<g id="node22" class="node">
<title>Node22</title>
<g id="a_node22"><a xlink:title=" ">
<polygon fill="white" stroke="#bfbfbf" points="414.84,-112.5 414.84,-131.5 493.84,-131.5 493.84,-112.5 414.84,-112.5"/>
<text text-anchor="middle" x="454.34" y="-119.5" font-family="Helvetica,sans-Serif" font-size="10.00">rtapi_math.h</text>
</a>
</g>
</g>
<!-- Node12&#45;&gt;Node22 -->
<g id="edge26" class="edge">
<title>Node12&#45;&gt;Node22</title>
<path fill="none" stroke="midnightblue" d="M617.53,-170.38C586.63,-161.41 531.01,-145.26 493.4,-134.34"/>
<polygon fill="midnightblue" stroke="midnightblue" points="494.35,-130.97 483.77,-131.55 492.4,-137.69 494.35,-130.97"/>
</g>
<!-- Node23 -->
<g id="node23" class="node">
<title>Node23</title>
<g id="a_node23"><a xlink:title=" ">
<polygon fill="white" stroke="#bfbfbf" points="511.84,-112.5 511.84,-131.5 592.84,-131.5 592.84,-112.5 511.84,-112.5"/>
<text text-anchor="middle" x="552.34" y="-119.5" font-family="Helvetica,sans-Serif" font-size="10.00">rtapi_string.h</text>
</a>
</g>
</g>
<!-- Node12&#45;&gt;Node23 -->
<g id="edge27" class="edge">
<title>Node12&#45;&gt;Node23</title>
<path fill="none" stroke="midnightblue" d="M626.2,-168.32C612.47,-159.9 591.4,-146.97 575.27,-137.07"/>
<polygon fill="midnightblue" stroke="midnightblue" points="576.8,-133.9 566.44,-131.65 573.13,-139.87 576.8,-133.9"/>
</g>
<!-- Node13&#45;&gt;Node14 -->
<g id="edge17" class="edge">
<title>Node13&#45;&gt;Node14</title>
<path fill="none" stroke="midnightblue" d="M734.78,-112.32C744.48,-104.26 759.15,-92.08 770.84,-82.37"/>
<polygon fill="midnightblue" stroke="midnightblue" points="773.25,-84.92 778.7,-75.83 768.78,-79.53 773.25,-84.92"/>
</g>
<!-- Node15 -->
<g id="node15" class="node">
<title>Node15</title>
<g id="a_node15"><a xlink:title=" ">
<polygon fill="white" stroke="#bfbfbf" points="549.84,-56.5 549.84,-75.5 630.84,-75.5 630.84,-56.5 549.84,-56.5"/>
<text text-anchor="middle" x="590.34" y="-63.5" font-family="Helvetica,sans-Serif" font-size="10.00">rtapi_stdint.h</text>
</a>
</g>
</g>
<!-- Node13&#45;&gt;Node15 -->
<g id="edge18" class="edge">
<title>Node13&#45;&gt;Node15</title>
<path fill="none" stroke="midnightblue" d="M703.11,-112.44C680.95,-103.52 646.02,-89.44 620.9,-79.32"/>
<polygon fill="midnightblue" stroke="midnightblue" points="622.05,-76.01 611.47,-75.52 619.44,-82.5 622.05,-76.01"/>
</g>
<!-- Node16 -->
<g id="node16" class="node">
<title>Node16</title>
<g id="a_node16"><a xlink:href="lcec__rtapi__user_8h.html" target="_top" xlink:title=" ">
<polygon fill="white" stroke="black" points="649.34,-56.5 649.34,-75.5 747.34,-75.5 747.34,-56.5 649.34,-56.5"/>
<text text-anchor="middle" x="698.34" y="-63.5" font-family="Helvetica,sans-Serif" font-size="10.00">lcec_rtapi_user.h</text>
</a>
</g>
</g>
<!-- Node13&#45;&gt;Node16 -->
<g id="edge19" class="edge">
<title>Node13&#45;&gt;Node16</title>
<path fill="none" stroke="midnightblue" d="M720.04,-112.08C716.49,-104.69 711.32,-93.95 706.91,-84.81"/>
<polygon fill="midnightblue" stroke="midnightblue" points="710.04,-83.24 702.55,-75.75 703.74,-86.28 710.04,-83.24"/>
</g>
<!-- Node16&#45;&gt;Node9 -->
<g id="edge22" class="edge">
<title>Node16&#45;&gt;Node9</title>
<path fill="none" stroke="midnightblue" d="M649.31,-57.27C646.27,-56.83 643.27,-56.4 640.34,-56 517.36,-39.05 371.08,-22.43 304.11,-15.02"/>
<polygon fill="midnightblue" stroke="midnightblue" points="304.39,-11.53 294.06,-13.91 303.62,-18.49 304.39,-11.53"/>
</g>
<!-- Node17 -->
<g id="node17" class="node">
<title>Node17</title>
<g id="a_node17"><a xlink:title=" ">
<polygon fill="white" stroke="#bfbfbf" points="705.34,-0.5 705.34,-19.5 759.34,-19.5 759.34,-0.5 705.34,-0.5"/>
<text text-anchor="middle" x="732.34" y="-7.5" font-family="Helvetica,sans-Serif" font-size="10.00">sched.h</text>
</a>
</g>
</g>
<!-- Node16&#45;&gt;Node17 -->
<g id="edge20" class="edge">
<title>Node16&#45;&gt;Node17</title>
<path fill="none" stroke="midnightblue" d="M703.95,-56.08C708.71,-48.53 715.66,-37.49 721.49,-28.23"/>
<polygon fill="midnightblue" stroke="midnightblue" points="724.46,-30.08 726.83,-19.75 718.54,-26.35 724.46,-30.08"/>
</g>
<!-- Node18 -->
<g id="node18" class="node">
<title>Node18</title>
<g id="a_node18"><a xlink:title=" ">
<polygon fill="white" stroke="#bfbfbf" points="777.84,-0.5 777.84,-19.5 830.84,-19.5 830.84,-0.5 777.84,-0.5"/>
<text text-anchor="middle" x="804.34" y="-7.5" font-family="Helvetica,sans-Serif" font-size="10.00">stdlib.h</text>
</a>
</g>
</g>
<!-- Node16&#45;&gt;Node18 -->
<g id="edge21" class="edge">
<title>Node16&#45;&gt;Node18</title>
<path fill="none" stroke="midnightblue" d="M715.37,-56.32C732.37,-47.66 758.71,-34.24 778.33,-24.25"/>
<polygon fill="midnightblue" stroke="midnightblue" points="780.03,-27.31 787.35,-19.65 776.85,-21.08 780.03,-27.31"/>
</g>
<!-- Node19 -->
<g id="node19" class="node">
<title>Node19</title>
<g id="a_node19"><a xlink:title=" ">
<polygon fill="white" stroke="#bfbfbf" points="553.34,-0.5 553.34,-19.5 621.34,-19.5 621.34,-0.5 553.34,-0.5"/>
<text text-anchor="middle" x="587.34" y="-7.5" font-family="Helvetica,sans-Serif" font-size="10.00">sys/time.h</text>
</a>
</g>
</g>
<!-- Node16&#45;&gt;Node19 -->
<g id="edge23" class="edge">
<title>Node16&#45;&gt;Node19</title>
<path fill="none" stroke="midnightblue" d="M680.5,-56.32C662.62,-47.62 634.86,-34.12 614.29,-24.11"/>
<polygon fill="midnightblue" stroke="midnightblue" points="615.65,-20.88 605.13,-19.65 612.59,-27.18 615.65,-20.88"/>
</g>
<!-- Node20 -->
<g id="node20" class="node">
<title>Node20</title>
<g id="a_node20"><a xlink:title=" ">
<polygon fill="white" stroke="#bfbfbf" points="639.34,-0.5 639.34,-19.5 687.34,-19.5 687.34,-0.5 639.34,-0.5"/>
<text text-anchor="middle" x="663.34" y="-7.5" font-family="Helvetica,sans-Serif" font-size="10.00">time.h</text>
</a>
</g>
</g>
<!-- Node16&#45;&gt;Node20 -->
<g id="edge24" class="edge">
<title>Node16&#45;&gt;Node20</title>
<path fill="none" stroke="midnightblue" d="M692.56,-56.08C687.67,-48.53 680.51,-37.49 674.51,-28.23"/>
<polygon fill="midnightblue" stroke="midnightblue" points="677.39,-26.24 669.01,-19.75 671.51,-30.05 677.39,-26.24"/>
</g>
<!-- Node24&#45;&gt;Node6 -->
<g id="edge29" class="edge">
<title>Node24&#45;&gt;Node6</title>
<path fill="none" stroke="midnightblue" d="M308.71,-168.44C275.99,-159 223.3,-143.78 188.01,-133.59"/>
<polygon fill="midnightblue" stroke="midnightblue" points="188.68,-130.14 178.1,-130.73 186.74,-136.87 188.68,-130.14"/>
</g>
</g>
</svg>
