<?xml version="1.0" encoding="UTF-8" standalone="no"?>
<!DOCTYPE svg PUBLIC "-//W3C//DTD SVG 1.1//EN"
 "http://www.w3.org/Graphics/SVG/1.1/DTD/svg11.dtd">
<!-- Generated by graphviz version 2.43.0 (0)
 -->
<!-- Title: src/devices/lcec_el2521.c Pages: 1 -->
<svg width="553pt" height="308pt"
 viewBox="0.00 0.00 553.00 308.00" xmlns="http://www.w3.org/2000/svg" xmlns:xlink="http://www.w3.org/1999/xlink">
<g id="graph0" class="graph" transform="scale(1 1) rotate(0) translate(4 304)">
<title>src/devices/lcec_el2521.c</title>
<polygon fill="white" stroke="transparent" points="-4,4 -4,-304 549,-304 549,4 -4,4"/>
<!-- Node1 -->
<g id="node1" class="node">
<title>Node1</title>
<g id="a_node1"><a xlink:title="Driver for Beckhoff EL2521 pulse train output modules.">
<polygon fill="#bfbfbf" stroke="black" points="40.5,-280.5 40.5,-299.5 180.5,-299.5 180.5,-280.5 40.5,-280.5"/>
<text text-anchor="middle" x="110.5" y="-287.5" font-family="Helvetica,sans-Serif" font-size="10.00">src/devices/lcec_el2521.c</text>
</a>
</g>
</g>
<!-- Node2 -->
<g id="node2" class="node">
<title>Node2</title>
<g id="a_node2"><a xlink:title=" ">
<polygon fill="white" stroke="#bfbfbf" points="0,-56.5 0,-75.5 41,-75.5 41,-56.5 0,-56.5"/>
<text text-anchor="middle" x="20.5" y="-63.5" font-family="Helvetica,sans-Serif" font-size="10.00">hal.h</text>
</a>
</g>
</g>
<!-- Node1&#45;&gt;Node2 -->
<g id="edge1" class="edge">
<title>Node1&#45;&gt;Node2</title>
<path fill="none" stroke="midnightblue" d="M103.97,-280.41C87.13,-257.69 42.27,-193.51 24.5,-132 20.13,-116.88 19.33,-98.98 19.51,-85.8"/>
<polygon fill="midnightblue" stroke="midnightblue" points="23.01,-85.73 19.85,-75.62 16.02,-85.49 23.01,-85.73"/>
</g>
<!-- Node3 -->
<g id="node3" class="node">
<title>Node3</title>
<g id="a_node3"><a xlink:href="lcec_8h.html" target="_top" xlink:title="Header file for LinuxCNC&#45;Ethercat.">
<polygon fill="white" stroke="black" points="153.5,-168.5 153.5,-187.5 207.5,-187.5 207.5,-168.5 153.5,-168.5"/>
<text text-anchor="middle" x="180.5" y="-175.5" font-family="Helvetica,sans-Serif" font-size="10.00">../lcec.h</text>
</a>
</g>
</g>
<!-- Node1&#45;&gt;Node3 -->
<g id="edge2" class="edge">
<title>Node1&#45;&gt;Node3</title>
<path fill="none" stroke="midnightblue" d="M111.47,-280.37C113.26,-267.29 118.02,-242.06 129.5,-224 137.02,-212.17 148.54,-201.63 158.73,-193.73"/>
<polygon fill="midnightblue" stroke="midnightblue" points="160.88,-196.49 166.85,-187.75 156.73,-190.86 160.88,-196.49"/>
</g>
<!-- Node18 -->
<g id="node18" class="node">
<title>Node18</title>
<g id="a_node18"><a xlink:href="lcec__el2521_8h.html" target="_top" xlink:title="Driver for Beckhoff EL2521 pulse train output modules.">
<polygon fill="white" stroke="black" points="139,-224.5 139,-243.5 222,-243.5 222,-224.5 139,-224.5"/>
<text text-anchor="middle" x="180.5" y="-231.5" font-family="Helvetica,sans-Serif" font-size="10.00">lcec_el2521.h</text>
</a>
</g>
</g>
<!-- Node1&#45;&gt;Node18 -->
<g id="edge20" class="edge">
<title>Node1&#45;&gt;Node18</title>
<path fill="none" stroke="midnightblue" d="M121.75,-280.32C132.3,-272.18 148.3,-259.84 160.94,-250.09"/>
<polygon fill="midnightblue" stroke="midnightblue" points="163.27,-252.71 169.05,-243.83 158.99,-247.17 163.27,-252.71"/>
</g>
<!-- Node3&#45;&gt;Node2 -->
<g id="edge4" class="edge">
<title>Node3&#45;&gt;Node2</title>
<path fill="none" stroke="midnightblue" d="M153.22,-175.71C121.56,-172.74 69.83,-163.08 39.5,-132 27.58,-119.78 23.07,-100.52 21.4,-86.13"/>
<polygon fill="midnightblue" stroke="midnightblue" points="24.86,-85.55 20.58,-75.86 17.88,-86.11 24.86,-85.55"/>
</g>
<!-- Node4 -->
<g id="node4" class="node">
<title>Node4</title>
<g id="a_node4"><a xlink:title=" ">
<polygon fill="white" stroke="#bfbfbf" points="62.5,-56.5 62.5,-75.5 106.5,-75.5 106.5,-56.5 62.5,-56.5"/>
<text text-anchor="middle" x="84.5" y="-63.5" font-family="Helvetica,sans-Serif" font-size="10.00">ecrt.h</text>
</a>
</g>
</g>
<!-- Node3&#45;&gt;Node4 -->
<g id="edge3" class="edge">
<title>Node3&#45;&gt;Node4</title>
<path fill="none" stroke="midnightblue" d="M174.03,-168.37C164.44,-155.7 145.74,-131.48 128.5,-112 119.63,-101.98 109.17,-91.24 100.68,-82.77"/>
<polygon fill="midnightblue" stroke="midnightblue" points="103.11,-80.25 93.53,-75.72 98.19,-85.23 103.11,-80.25"/>
</g>
<!-- Node5 -->
<g id="node5" class="node">
<title>Node5</title>
<g id="a_node5"><a xlink:href="lcec__conf_8h.html" target="_top" xlink:title=" ">
<polygon fill="white" stroke="black" points="49,-112.5 49,-131.5 120,-131.5 120,-112.5 49,-112.5"/>
<text text-anchor="middle" x="84.5" y="-119.5" font-family="Helvetica,sans-Serif" font-size="10.00">lcec_conf.h</text>
</a>
</g>
</g>
<!-- Node3&#45;&gt;Node5 -->
<g id="edge5" class="edge">
<title>Node3&#45;&gt;Node5</title>
<path fill="none" stroke="midnightblue" d="M165.08,-168.32C149.96,-159.82 126.68,-146.73 109.03,-136.8"/>
<polygon fill="midnightblue" stroke="midnightblue" points="110.32,-133.51 99.89,-131.65 106.89,-139.61 110.32,-133.51"/>
</g>
<!-- Node6 -->
<g id="node6" class="node">
<title>Node6</title>
<g id="a_node6"><a xlink:href="lcec__rtapi_8h.html" target="_top" xlink:title=" ">
<polygon fill="white" stroke="black" points="177,-112.5 177,-131.5 250,-131.5 250,-112.5 177,-112.5"/>
<text text-anchor="middle" x="213.5" y="-119.5" font-family="Helvetica,sans-Serif" font-size="10.00">lcec_rtapi.h</text>
</a>
</g>
</g>
<!-- Node3&#45;&gt;Node6 -->
<g id="edge8" class="edge">
<title>Node3&#45;&gt;Node6</title>
<path fill="none" stroke="midnightblue" d="M185.95,-168.08C190.51,-160.61 197.17,-149.72 202.79,-140.52"/>
<polygon fill="midnightblue" stroke="midnightblue" points="205.92,-142.11 208.15,-131.75 199.95,-138.46 205.92,-142.11"/>
</g>
<!-- Node15 -->
<g id="node15" class="node">
<title>Node15</title>
<g id="a_node15"><a xlink:title=" ">
<polygon fill="white" stroke="#bfbfbf" points="268.5,-112.5 268.5,-131.5 348.5,-131.5 348.5,-112.5 268.5,-112.5"/>
<text text-anchor="middle" x="308.5" y="-119.5" font-family="Helvetica,sans-Serif" font-size="10.00">rtapi_ctype.h</text>
</a>
</g>
</g>
<!-- Node3&#45;&gt;Node15 -->
<g id="edge17" class="edge">
<title>Node3&#45;&gt;Node15</title>
<path fill="none" stroke="midnightblue" d="M200.78,-168.44C221.85,-159.56 255.02,-145.56 278.99,-135.45"/>
<polygon fill="midnightblue" stroke="midnightblue" points="280.46,-138.63 288.31,-131.52 277.74,-132.18 280.46,-138.63"/>
</g>
<!-- Node16 -->
<g id="node16" class="node">
<title>Node16</title>
<g id="a_node16"><a xlink:title=" ">
<polygon fill="white" stroke="#bfbfbf" points="367,-112.5 367,-131.5 446,-131.5 446,-112.5 367,-112.5"/>
<text text-anchor="middle" x="406.5" y="-119.5" font-family="Helvetica,sans-Serif" font-size="10.00">rtapi_math.h</text>
</a>
</g>
</g>
<!-- Node3&#45;&gt;Node16 -->
<g id="edge18" class="edge">
<title>Node3&#45;&gt;Node16</title>
<path fill="none" stroke="midnightblue" d="M207.76,-170.49C245.63,-161.44 314.68,-144.94 360.58,-133.97"/>
<polygon fill="midnightblue" stroke="midnightblue" points="361.66,-137.31 370.58,-131.58 360.04,-130.5 361.66,-137.31"/>
</g>
<!-- Node17 -->
<g id="node17" class="node">
<title>Node17</title>
<g id="a_node17"><a xlink:title=" ">
<polygon fill="white" stroke="#bfbfbf" points="464,-112.5 464,-131.5 545,-131.5 545,-112.5 464,-112.5"/>
<text text-anchor="middle" x="504.5" y="-119.5" font-family="Helvetica,sans-Serif" font-size="10.00">rtapi_string.h</text>
</a>
</g>
</g>
<!-- Node3&#45;&gt;Node17 -->
<g id="edge19" class="edge">
<title>Node3&#45;&gt;Node17</title>
<path fill="none" stroke="midnightblue" d="M207.85,-172.7C255.68,-165.16 357.85,-148.86 453.99,-132.24"/>
<polygon fill="midnightblue" stroke="midnightblue" points="454.61,-135.68 463.87,-130.53 453.42,-128.79 454.61,-135.68"/>
</g>
<!-- Node5&#45;&gt;Node2 -->
<g id="edge7" class="edge">
<title>Node5&#45;&gt;Node2</title>
<path fill="none" stroke="midnightblue" d="M74.22,-112.32C64.66,-104.26 50.22,-92.08 38.72,-82.37"/>
<polygon fill="midnightblue" stroke="midnightblue" points="40.87,-79.61 30.97,-75.83 36.36,-84.96 40.87,-79.61"/>
</g>
<!-- Node5&#45;&gt;Node4 -->
<g id="edge6" class="edge">
<title>Node5&#45;&gt;Node4</title>
<path fill="none" stroke="midnightblue" d="M84.5,-112.08C84.5,-105.01 84.5,-94.86 84.5,-85.99"/>
<polygon fill="midnightblue" stroke="midnightblue" points="88,-85.75 84.5,-75.75 81,-85.75 88,-85.75"/>
</g>
<!-- Node7 -->
<g id="node7" class="node">
<title>Node7</title>
<g id="a_node7"><a xlink:title=" ">
<polygon fill="white" stroke="#bfbfbf" points="124.5,-56.5 124.5,-75.5 172.5,-75.5 172.5,-56.5 124.5,-56.5"/>
<text text-anchor="middle" x="148.5" y="-63.5" font-family="Helvetica,sans-Serif" font-size="10.00">rtapi.h</text>
</a>
</g>
</g>
<!-- Node6&#45;&gt;Node7 -->
<g id="edge9" class="edge">
<title>Node6&#45;&gt;Node7</title>
<path fill="none" stroke="midnightblue" d="M203.06,-112.32C193.35,-104.26 178.68,-92.08 167,-82.37"/>
<polygon fill="midnightblue" stroke="midnightblue" points="169.06,-79.53 159.13,-75.83 164.59,-84.92 169.06,-79.53"/>
</g>
<!-- Node8 -->
<g id="node8" class="node">
<title>Node8</title>
<g id="a_node8"><a xlink:title=" ">
<polygon fill="white" stroke="#bfbfbf" points="191,-56.5 191,-75.5 272,-75.5 272,-56.5 191,-56.5"/>
<text text-anchor="middle" x="231.5" y="-63.5" font-family="Helvetica,sans-Serif" font-size="10.00">rtapi_stdint.h</text>
</a>
</g>
</g>
<!-- Node6&#45;&gt;Node8 -->
<g id="edge10" class="edge">
<title>Node6&#45;&gt;Node8</title>
<path fill="none" stroke="midnightblue" d="M216.47,-112.08C218.88,-104.85 222.36,-94.41 225.37,-85.4"/>
<polygon fill="midnightblue" stroke="midnightblue" points="228.74,-86.34 228.58,-75.75 222.1,-84.13 228.74,-86.34"/>
</g>
<!-- Node9 -->
<g id="node9" class="node">
<title>Node9</title>
<g id="a_node9"><a xlink:href="lcec__rtapi__user_8h.html" target="_top" xlink:title=" ">
<polygon fill="white" stroke="black" points="290.5,-56.5 290.5,-75.5 388.5,-75.5 388.5,-56.5 290.5,-56.5"/>
<text text-anchor="middle" x="339.5" y="-63.5" font-family="Helvetica,sans-Serif" font-size="10.00">lcec_rtapi_user.h</text>
</a>
</g>
</g>
<!-- Node6&#45;&gt;Node9 -->
<g id="edge11" class="edge">
<title>Node6&#45;&gt;Node9</title>
<path fill="none" stroke="midnightblue" d="M233.47,-112.44C254.11,-103.6 286.56,-89.69 310.13,-79.59"/>
<polygon fill="midnightblue" stroke="midnightblue" points="311.82,-82.67 319.63,-75.52 309.06,-76.24 311.82,-82.67"/>
</g>
<!-- Node10 -->
<g id="node10" class="node">
<title>Node10</title>
<g id="a_node10"><a xlink:title=" ">
<polygon fill="white" stroke="#bfbfbf" points="169.5,-0.5 169.5,-19.5 223.5,-19.5 223.5,-0.5 169.5,-0.5"/>
<text text-anchor="middle" x="196.5" y="-7.5" font-family="Helvetica,sans-Serif" font-size="10.00">sched.h</text>
</a>
</g>
</g>
<!-- Node9&#45;&gt;Node10 -->
<g id="edge12" class="edge">
<title>Node9&#45;&gt;Node10</title>
<path fill="none" stroke="midnightblue" d="M316.84,-56.44C293.1,-47.48 255.59,-33.31 228.76,-23.18"/>
<polygon fill="midnightblue" stroke="midnightblue" points="229.64,-19.77 219.05,-19.52 227.17,-26.32 229.64,-19.77"/>
</g>
<!-- Node11 -->
<g id="node11" class="node">
<title>Node11</title>
<g id="a_node11"><a xlink:title=" ">
<polygon fill="white" stroke="#bfbfbf" points="242,-0.5 242,-19.5 295,-19.5 295,-0.5 242,-0.5"/>
<text text-anchor="middle" x="268.5" y="-7.5" font-family="Helvetica,sans-Serif" font-size="10.00">stdlib.h</text>
</a>
</g>
</g>
<!-- Node9&#45;&gt;Node11 -->
<g id="edge13" class="edge">
<title>Node9&#45;&gt;Node11</title>
<path fill="none" stroke="midnightblue" d="M328.09,-56.32C317.39,-48.18 301.16,-35.84 288.34,-26.09"/>
<polygon fill="midnightblue" stroke="midnightblue" points="290.19,-23.1 280.11,-19.83 285.96,-28.67 290.19,-23.1"/>
</g>
<!-- Node12 -->
<g id="node12" class="node">
<title>Node12</title>
<g id="a_node12"><a xlink:title=" ">
<polygon fill="white" stroke="#bfbfbf" points="313,-0.5 313,-19.5 366,-19.5 366,-0.5 313,-0.5"/>
<text text-anchor="middle" x="339.5" y="-7.5" font-family="Helvetica,sans-Serif" font-size="10.00">string.h</text>
</a>
</g>
</g>
<!-- Node9&#45;&gt;Node12 -->
<g id="edge14" class="edge">
<title>Node9&#45;&gt;Node12</title>
<path fill="none" stroke="midnightblue" d="M339.5,-56.08C339.5,-49.01 339.5,-38.86 339.5,-29.99"/>
<polygon fill="midnightblue" stroke="midnightblue" points="343,-29.75 339.5,-19.75 336,-29.75 343,-29.75"/>
</g>
<!-- Node13 -->
<g id="node13" class="node">
<title>Node13</title>
<g id="a_node13"><a xlink:title=" ">
<polygon fill="white" stroke="#bfbfbf" points="384.5,-0.5 384.5,-19.5 452.5,-19.5 452.5,-0.5 384.5,-0.5"/>
<text text-anchor="middle" x="418.5" y="-7.5" font-family="Helvetica,sans-Serif" font-size="10.00">sys/time.h</text>
</a>
</g>
</g>
<!-- Node9&#45;&gt;Node13 -->
<g id="edge15" class="edge">
<title>Node9&#45;&gt;Node13</title>
<path fill="none" stroke="midnightblue" d="M352.19,-56.32C364.4,-47.98 383.08,-35.21 397.5,-25.35"/>
<polygon fill="midnightblue" stroke="midnightblue" points="399.56,-28.19 405.84,-19.65 395.61,-22.41 399.56,-28.19"/>
</g>
<!-- Node14 -->
<g id="node14" class="node">
<title>Node14</title>
<g id="a_node14"><a xlink:title=" ">
<polygon fill="white" stroke="#bfbfbf" points="470.5,-0.5 470.5,-19.5 518.5,-19.5 518.5,-0.5 470.5,-0.5"/>
<text text-anchor="middle" x="494.5" y="-7.5" font-family="Helvetica,sans-Serif" font-size="10.00">time.h</text>
</a>
</g>
</g>
<!-- Node9&#45;&gt;Node14 -->
<g id="edge16" class="edge">
<title>Node9&#45;&gt;Node14</title>
<path fill="none" stroke="midnightblue" d="M364.06,-56.44C390.1,-47.37 431.41,-32.98 460.55,-22.83"/>
<polygon fill="midnightblue" stroke="midnightblue" points="462.02,-26.02 470.31,-19.43 459.72,-19.41 462.02,-26.02"/>
</g>
<!-- Node18&#45;&gt;Node3 -->
<g id="edge21" class="edge">
<title>Node18&#45;&gt;Node3</title>
<path fill="none" stroke="midnightblue" d="M180.5,-224.08C180.5,-217.01 180.5,-206.86 180.5,-197.99"/>
<polygon fill="midnightblue" stroke="midnightblue" points="184,-197.75 180.5,-187.75 177,-197.75 184,-197.75"/>
</g>
</g>
</svg>
