<?xml version="1.0" encoding="UTF-8" standalone="no"?>
<!DOCTYPE svg PUBLIC "-//W3C//DTD SVG 1.1//EN"
 "http://www.w3.org/Graphics/SVG/1.1/DTD/svg11.dtd">
<!-- Generated by graphviz version 2.43.0 (0)
 -->
<!-- Title: lcec_el1918_logic_data_t Pages: 1 -->
<svg width="1019pt" height="275pt"
 viewBox="0.00 0.00 1019.00 275.00" xmlns="http://www.w3.org/2000/svg" xmlns:xlink="http://www.w3.org/1999/xlink">
<g id="graph0" class="graph" transform="scale(1 1) rotate(0) translate(4 271)">
<title>lcec_el1918_logic_data_t</title>
<polygon fill="white" stroke="transparent" points="-4,4 -4,-271 1015,-271 1015,4 -4,4"/>
<!-- Node1 -->
<g id="node1" class="node">
<title>Node1</title>
<g id="a_node1"><a xlink:title=" ">
<polygon fill="#bfbfbf" stroke="black" points="872,-75.5 872,-94.5 1011,-94.5 1011,-75.5 872,-75.5"/>
<text text-anchor="middle" x="941.5" y="-82.5" font-family="Helvetica,sans-Serif" font-size="10.00">lcec_el1918_logic_data_t</text>
</a>
</g>
</g>
<!-- Node2 -->
<g id="node2" class="node">
<title>Node2</title>
<g id="a_node2"><a xlink:href="structlcec__el1918__logic__fsoe__t.html" target="_top" xlink:title=" ">
<polygon fill="white" stroke="black" points="673,-75.5 673,-94.5 811,-94.5 811,-75.5 673,-75.5"/>
<text text-anchor="middle" x="742" y="-82.5" font-family="Helvetica,sans-Serif" font-size="10.00">lcec_el1918_logic_fsoe_t</text>
</a>
</g>
</g>
<!-- Node2&#45;&gt;Node1 -->
<g id="edge1" class="edge">
<title>Node2&#45;&gt;Node1</title>
<path fill="none" stroke="#9a32cd" stroke-dasharray="5,2" d="M821.5,-85C838.17,-85 855.65,-85 871.92,-85"/>
<polygon fill="#9a32cd" stroke="#9a32cd" points="821.24,-81.5 811.24,-85 821.24,-88.5 821.24,-81.5"/>
<text text-anchor="middle" x="841.5" y="-88" font-family="Helvetica,sans-Serif" font-size="10.00"> fsoe</text>
</g>
<!-- Node3 -->
<g id="node3" class="node">
<title>Node3</title>
<g id="a_node3"><a xlink:href="structlcec__slave.html" target="_top" xlink:title=" ">
<polygon fill="white" stroke="black" points="482.5,-114.5 482.5,-133.5 550.5,-133.5 550.5,-114.5 482.5,-114.5"/>
<text text-anchor="middle" x="516.5" y="-121.5" font-family="Helvetica,sans-Serif" font-size="10.00">lcec_slave</text>
</a>
</g>
</g>
<!-- Node3&#45;&gt;Node2 -->
<g id="edge2" class="edge">
<title>Node3&#45;&gt;Node2</title>
<path fill="none" stroke="#9a32cd" stroke-dasharray="5,2" d="M560.62,-111.81C572.95,-108.62 586.44,-105.4 599,-103 622.92,-98.42 649.33,-94.71 672.83,-91.87"/>
<polygon fill="#9a32cd" stroke="#9a32cd" points="559.37,-108.52 550.59,-114.46 561.16,-115.29 559.37,-108.52"/>
<text text-anchor="middle" x="627" y="-106" font-family="Helvetica,sans-Serif" font-size="10.00"> fsoe_slave</text>
</g>
<!-- Node3&#45;&gt;Node3 -->
<g id="edge4" class="edge">
<title>Node3&#45;&gt;Node3</title>
<path fill="none" stroke="#9a32cd" stroke-dasharray="5,2" d="M496.13,-143.4C497.49,-148.31 504.28,-152 516.5,-152 536.05,-152 541.7,-142.57 533.45,-133.76"/>
<polygon fill="#9a32cd" stroke="#9a32cd" points="499.51,-144.35 499.55,-133.76 492.91,-142.01 499.51,-144.35"/>
<text text-anchor="middle" x="516.5" y="-221" font-family="Helvetica,sans-Serif" font-size="10.00"> next</text>
<text text-anchor="middle" x="516.5" y="-210" font-family="Helvetica,sans-Serif" font-size="10.00">prev</text>
<text text-anchor="middle" x="516.5" y="-199" font-family="Helvetica,sans-Serif" font-size="10.00">proc_cleanup</text>
<text text-anchor="middle" x="516.5" y="-188" font-family="Helvetica,sans-Serif" font-size="10.00">proc_init</text>
<text text-anchor="middle" x="516.5" y="-177" font-family="Helvetica,sans-Serif" font-size="10.00">proc_preinit</text>
<text text-anchor="middle" x="516.5" y="-166" font-family="Helvetica,sans-Serif" font-size="10.00">proc_read</text>
<text text-anchor="middle" x="516.5" y="-155" font-family="Helvetica,sans-Serif" font-size="10.00">proc_write</text>
</g>
<!-- Node10 -->
<g id="node10" class="node">
<title>Node10</title>
<g id="a_node10"><a xlink:href="structlcec__master.html" target="_top" xlink:title=" ">
<polygon fill="white" stroke="black" points="704,-160.5 704,-179.5 780,-179.5 780,-160.5 704,-160.5"/>
<text text-anchor="middle" x="742" y="-167.5" font-family="Helvetica,sans-Serif" font-size="10.00">lcec_master</text>
</a>
</g>
</g>
<!-- Node3&#45;&gt;Node10 -->
<g id="edge11" class="edge">
<title>Node3&#45;&gt;Node10</title>
<path fill="none" stroke="#9a32cd" stroke-dasharray="5,2" d="M556.52,-136.63C569.89,-140.66 585.01,-144.87 599,-148 634.3,-155.9 675.17,-161.9 703.97,-165.63"/>
<polygon fill="#9a32cd" stroke="#9a32cd" points="557.27,-133.2 546.68,-133.61 555.21,-139.89 557.27,-133.2"/>
<text text-anchor="middle" x="627" y="-172" font-family="Helvetica,sans-Serif" font-size="10.00"> first_slave</text>
<text text-anchor="middle" x="627" y="-161" font-family="Helvetica,sans-Serif" font-size="10.00">last_slave</text>
</g>
<!-- Node4 -->
<g id="node4" class="node">
<title>Node4</title>
<g id="a_node4"><a xlink:href="structlcec__slave__state.html" target="_top" xlink:title=" ">
<polygon fill="white" stroke="black" points="223.5,-228.5 223.5,-247.5 321.5,-247.5 321.5,-228.5 223.5,-228.5"/>
<text text-anchor="middle" x="272.5" y="-235.5" font-family="Helvetica,sans-Serif" font-size="10.00">lcec_slave_state</text>
</a>
</g>
</g>
<!-- Node4&#45;&gt;Node3 -->
<g id="edge3" class="edge">
<title>Node4&#45;&gt;Node3</title>
<path fill="none" stroke="#9a32cd" stroke-dasharray="5,2" d="M331.8,-231.6C363.45,-226.34 402.45,-216.89 434,-200 466.07,-182.83 494.99,-149.89 508.09,-133.6"/>
<polygon fill="#9a32cd" stroke="#9a32cd" points="331.14,-228.16 321.8,-233.16 332.22,-235.08 331.14,-228.16"/>
<text text-anchor="middle" x="396" y="-228" font-family="Helvetica,sans-Serif" font-size="10.00"> hal_state_data</text>
</g>
<!-- Node5 -->
<g id="node5" class="node">
<title>Node5</title>
<g id="a_node5"><a xlink:href="structlcec__slave__watchdog__t.html" target="_top" xlink:title=" ">
<polygon fill="white" stroke="black" points="208,-190.5 208,-209.5 337,-209.5 337,-190.5 208,-190.5"/>
<text text-anchor="middle" x="272.5" y="-197.5" font-family="Helvetica,sans-Serif" font-size="10.00">lcec_slave_watchdog_t</text>
</a>
</g>
</g>
<!-- Node5&#45;&gt;Node3 -->
<g id="edge5" class="edge">
<title>Node5&#45;&gt;Node3</title>
<path fill="none" stroke="#9a32cd" stroke-dasharray="5,2" d="M344.17,-188.57C372.54,-182.96 405.26,-175.18 434,-165 457.74,-156.59 483.43,-142.81 499.49,-133.58"/>
<polygon fill="#9a32cd" stroke="#9a32cd" points="343.49,-185.14 334.33,-190.46 344.81,-192.01 343.49,-185.14"/>
<text text-anchor="middle" x="396" y="-188" font-family="Helvetica,sans-Serif" font-size="10.00"> wd_conf</text>
</g>
<!-- Node6 -->
<g id="node6" class="node">
<title>Node6</title>
<g id="a_node6"><a xlink:href="structlcec__slave__idnconf__t.html" target="_top" xlink:title=" ">
<polygon fill="white" stroke="black" points="213.5,-152.5 213.5,-171.5 331.5,-171.5 331.5,-152.5 213.5,-152.5"/>
<text text-anchor="middle" x="272.5" y="-159.5" font-family="Helvetica,sans-Serif" font-size="10.00">lcec_slave_idnconf_t</text>
</a>
</g>
</g>
<!-- Node6&#45;&gt;Node3 -->
<g id="edge6" class="edge">
<title>Node6&#45;&gt;Node3</title>
<path fill="none" stroke="#9a32cd" stroke-dasharray="5,2" d="M341.81,-152.82C370.34,-148.83 403.82,-143.94 434,-139 449.9,-136.4 467.49,-133.2 482.24,-130.43"/>
<polygon fill="#9a32cd" stroke="#9a32cd" points="340.95,-149.41 331.53,-154.25 341.92,-156.34 340.95,-149.41"/>
<text text-anchor="middle" x="396" y="-153" font-family="Helvetica,sans-Serif" font-size="10.00"> idn_config</text>
</g>
<!-- Node7 -->
<g id="node7" class="node">
<title>Node7</title>
<g id="a_node7"><a xlink:href="structlcec__slave__modparam__t.html" target="_top" xlink:title=" ">
<polygon fill="white" stroke="black" points="205,-114.5 205,-133.5 340,-133.5 340,-114.5 205,-114.5"/>
<text text-anchor="middle" x="272.5" y="-121.5" font-family="Helvetica,sans-Serif" font-size="10.00">lcec_slave_modparam_t</text>
</a>
</g>
</g>
<!-- Node7&#45;&gt;Node3 -->
<g id="edge7" class="edge">
<title>Node7&#45;&gt;Node3</title>
<path fill="none" stroke="#9a32cd" stroke-dasharray="5,2" d="M350.47,-124C394.91,-124 448.52,-124 482.32,-124"/>
<polygon fill="#9a32cd" stroke="#9a32cd" points="350.27,-120.5 340.27,-124 350.27,-127.5 350.27,-120.5"/>
<text text-anchor="middle" x="396" y="-127" font-family="Helvetica,sans-Serif" font-size="10.00"> modparams</text>
</g>
<!-- Node8 -->
<g id="node8" class="node">
<title>Node8</title>
<g id="a_node8"><a xlink:href="unionLCEC__CONF__MODPARAM__VAL__T.html" target="_top" xlink:title=" ">
<polygon fill="white" stroke="black" points="0,-109 0,-139 138,-139 138,-109 0,-109"/>
<text text-anchor="start" x="8" y="-127" font-family="Helvetica,sans-Serif" font-size="10.00">LCEC_CONF_MODPARAM</text>
<text text-anchor="middle" x="69" y="-116" font-family="Helvetica,sans-Serif" font-size="10.00">_VAL_T</text>
</a>
</g>
</g>
<!-- Node8&#45;&gt;Node7 -->
<g id="edge8" class="edge">
<title>Node8&#45;&gt;Node7</title>
<path fill="none" stroke="#9a32cd" stroke-dasharray="5,2" d="M148.42,-124C167.02,-124 186.69,-124 204.72,-124"/>
<polygon fill="#9a32cd" stroke="#9a32cd" points="148.22,-120.5 138.22,-124 148.22,-127.5 148.22,-120.5"/>
<text text-anchor="middle" x="171.5" y="-127" font-family="Helvetica,sans-Serif" font-size="10.00"> value</text>
</g>
<!-- Node9 -->
<g id="node9" class="node">
<title>Node9</title>
<g id="a_node9"><a xlink:href="structlcec__slave__dc__t.html" target="_top" xlink:title=" ">
<polygon fill="white" stroke="black" points="226,-76.5 226,-95.5 319,-95.5 319,-76.5 226,-76.5"/>
<text text-anchor="middle" x="272.5" y="-83.5" font-family="Helvetica,sans-Serif" font-size="10.00">lcec_slave_dc_t</text>
</a>
</g>
</g>
<!-- Node9&#45;&gt;Node3 -->
<g id="edge9" class="edge">
<title>Node9&#45;&gt;Node3</title>
<path fill="none" stroke="#9a32cd" stroke-dasharray="5,2" d="M329.38,-93.45C360.27,-97.71 399.31,-103.32 434,-109 449.9,-111.6 467.49,-114.8 482.24,-117.57"/>
<polygon fill="#9a32cd" stroke="#9a32cd" points="329.62,-89.95 319.23,-92.06 328.67,-96.89 329.62,-89.95"/>
<text text-anchor="middle" x="396" y="-112" font-family="Helvetica,sans-Serif" font-size="10.00"> dc_conf</text>
</g>
<!-- Node10&#45;&gt;Node3 -->
<g id="edge10" class="edge">
<title>Node10&#45;&gt;Node3</title>
<path fill="none" stroke="#9a32cd" stroke-dasharray="5,2" d="M711.14,-156.24C694.88,-149.33 674.21,-141.5 655,-137 619.98,-128.79 578.79,-125.74 550.69,-124.62"/>
<polygon fill="#9a32cd" stroke="#9a32cd" points="710.08,-159.59 720.65,-160.38 712.88,-153.17 710.08,-159.59"/>
<text text-anchor="middle" x="627" y="-140" font-family="Helvetica,sans-Serif" font-size="10.00"> master</text>
</g>
<!-- Node10&#45;&gt;Node10 -->
<g id="edge13" class="edge">
<title>Node10&#45;&gt;Node10</title>
<path fill="none" stroke="#9a32cd" stroke-dasharray="5,2" d="M723.85,-189.4C725.06,-194.31 731.11,-198 742,-198 759.42,-198 764.45,-188.57 757.1,-179.76"/>
<polygon fill="#9a32cd" stroke="#9a32cd" points="727.22,-190.35 726.9,-179.76 720.55,-188.24 727.22,-190.35"/>
<text text-anchor="middle" x="742" y="-212" font-family="Helvetica,sans-Serif" font-size="10.00"> next</text>
<text text-anchor="middle" x="742" y="-201" font-family="Helvetica,sans-Serif" font-size="10.00">prev</text>
</g>
<!-- Node11 -->
<g id="node11" class="node">
<title>Node11</title>
<g id="a_node11"><a xlink:href="structlcec__master__data.html" target="_top" xlink:title=" ">
<polygon fill="white" stroke="black" points="465,-247.5 465,-266.5 568,-266.5 568,-247.5 465,-247.5"/>
<text text-anchor="middle" x="516.5" y="-254.5" font-family="Helvetica,sans-Serif" font-size="10.00">lcec_master_data</text>
</a>
</g>
</g>
<!-- Node11&#45;&gt;Node10 -->
<g id="edge12" class="edge">
<title>Node11&#45;&gt;Node10</title>
<path fill="none" stroke="#9a32cd" stroke-dasharray="5,2" d="M561.97,-244.38C568.39,-242.36 574.89,-240.2 581,-238 632.1,-219.56 690.44,-193.43 720.58,-179.55"/>
<polygon fill="#9a32cd" stroke="#9a32cd" points="560.54,-241.16 552,-247.44 562.59,-247.85 560.54,-241.16"/>
<text text-anchor="middle" x="627" y="-232" font-family="Helvetica,sans-Serif" font-size="10.00"> hal_data</text>
</g>
<!-- Node12 -->
<g id="node12" class="node">
<title>Node12</title>
<g id="a_node12"><a xlink:href="structlcec__slave__sdoconf__t.html" target="_top" xlink:title=" ">
<polygon fill="white" stroke="black" points="212.5,-38.5 212.5,-57.5 332.5,-57.5 332.5,-38.5 212.5,-38.5"/>
<text text-anchor="middle" x="272.5" y="-45.5" font-family="Helvetica,sans-Serif" font-size="10.00">lcec_slave_sdoconf_t</text>
</a>
</g>
</g>
<!-- Node12&#45;&gt;Node3 -->
<g id="edge14" class="edge">
<title>Node12&#45;&gt;Node3</title>
<path fill="none" stroke="#9a32cd" stroke-dasharray="5,2" d="M342.62,-57.98C371.43,-63.33 404.89,-71.11 434,-82 442.57,-85.21 443.91,-87.72 452,-92 466.62,-99.74 483.33,-108.15 495.94,-114.4"/>
<polygon fill="#9a32cd" stroke="#9a32cd" points="343.1,-54.51 332.64,-56.19 341.86,-61.4 343.1,-54.51"/>
<text text-anchor="middle" x="396" y="-85" font-family="Helvetica,sans-Serif" font-size="10.00"> sdo_config</text>
</g>
<!-- Node13 -->
<g id="node13" class="node">
<title>Node13</title>
<g id="a_node13"><a xlink:href="structLCEC__CONF__FSOE__T.html" target="_top" xlink:title=" ">
<polygon fill="white" stroke="black" points="214.5,-0.5 214.5,-19.5 330.5,-19.5 330.5,-0.5 214.5,-0.5"/>
<text text-anchor="middle" x="272.5" y="-7.5" font-family="Helvetica,sans-Serif" font-size="10.00">LCEC_CONF_FSOE_T</text>
</a>
</g>
</g>
<!-- Node13&#45;&gt;Node3 -->
<g id="edge15" class="edge">
<title>Node13&#45;&gt;Node3</title>
<path fill="none" stroke="#9a32cd" stroke-dasharray="5,2" d="M340.63,-11.5C372.15,-15.44 408.33,-25.01 434,-47 450.36,-61.02 437.44,-76.13 452,-92 461.18,-102.01 474.19,-109.32 486.05,-114.41"/>
<polygon fill="#9a32cd" stroke="#9a32cd" points="340.9,-8.01 330.58,-10.42 340.15,-14.97 340.9,-8.01"/>
<text text-anchor="middle" x="396" y="-50" font-family="Helvetica,sans-Serif" font-size="10.00"> fsoeConf</text>
</g>
<!-- Node14 -->
<g id="node14" class="node">
<title>Node14</title>
<g id="a_node14"><a xlink:href="structlcec__el1918__logic__fsoe__crc__t.html" target="_top" xlink:title=" ">
<polygon fill="white" stroke="black" points="452,-53 452,-83 581,-83 581,-53 452,-53"/>
<text text-anchor="start" x="460" y="-71" font-family="Helvetica,sans-Serif" font-size="10.00">lcec_el1918_logic_fsoe</text>
<text text-anchor="middle" x="516.5" y="-60" font-family="Helvetica,sans-Serif" font-size="10.00">_crc_t</text>
</a>
</g>
</g>
<!-- Node14&#45;&gt;Node2 -->
<g id="edge16" class="edge">
<title>Node14&#45;&gt;Node2</title>
<path fill="none" stroke="#9a32cd" stroke-dasharray="5,2" d="M591.55,-66.14C612.13,-66.28 634.47,-67.03 655,-69 669.06,-70.35 684.25,-72.83 697.9,-75.44"/>
<polygon fill="#9a32cd" stroke="#9a32cd" points="591.29,-62.64 581.28,-66.12 591.28,-69.64 591.29,-62.64"/>
<text text-anchor="middle" x="627" y="-72" font-family="Helvetica,sans-Serif" font-size="10.00"> fsoe_crc</text>
</g>
</g>
</svg>
