<?xml version="1.0" encoding="UTF-8" standalone="no"?>
<!DOCTYPE svg PUBLIC "-//W3C//DTD SVG 1.1//EN"
 "http://www.w3.org/Graphics/SVG/1.1/DTD/svg11.dtd">
<!-- Generated by graphviz version 2.43.0 (0)
 -->
<!-- Title: lcec_el1859_data_t Pages: 1 -->
<svg width="276pt" height="162pt"
 viewBox="0.00 0.00 275.50 162.00" xmlns="http://www.w3.org/2000/svg" xmlns:xlink="http://www.w3.org/1999/xlink">
<g id="graph0" class="graph" transform="scale(1 1) rotate(0) translate(4 158)">
<title>lcec_el1859_data_t</title>
<polygon fill="white" stroke="transparent" points="-4,4 -4,-158 271.5,-158 271.5,4 -4,4"/>
<!-- Node1 -->
<g id="node1" class="node">
<title>Node1</title>
<g id="a_node1"><a xlink:title=" ">
<polygon fill="#bfbfbf" stroke="black" points="80,-0.5 80,-19.5 190,-19.5 190,-0.5 80,-0.5"/>
<text text-anchor="middle" x="135" y="-7.5" font-family="Helvetica,sans-Serif" font-size="10.00">lcec_el1859_data_t</text>
</a>
</g>
</g>
<!-- Node2 -->
<g id="node2" class="node">
<title>Node2</title>
<g id="a_node2"><a xlink:href="structlcec__class__dout__pins__t.html" target="_top" xlink:title=" ">
<polygon fill="white" stroke="black" points="0,-67.5 0,-86.5 128,-86.5 128,-67.5 0,-67.5"/>
<text text-anchor="middle" x="64" y="-74.5" font-family="Helvetica,sans-Serif" font-size="10.00">lcec_class_dout_pins_t</text>
</a>
</g>
</g>
<!-- Node2&#45;&gt;Node1 -->
<g id="edge1" class="edge">
<title>Node2&#45;&gt;Node1</title>
<path fill="none" stroke="#9a32cd" stroke-dasharray="5,2" d="M81.09,-60.36C95.05,-47.58 114.26,-29.99 125.58,-19.63"/>
<polygon fill="#9a32cd" stroke="#9a32cd" points="78.59,-57.9 73.58,-67.23 83.31,-63.06 78.59,-57.9"/>
<text text-anchor="middle" x="126.5" y="-41" font-family="Helvetica,sans-Serif" font-size="10.00"> pins_out</text>
</g>
<!-- Node3 -->
<g id="node3" class="node">
<title>Node3</title>
<g id="a_node3"><a xlink:href="structlcec__class__dout__pin__t.html" target="_top" xlink:title=" ">
<polygon fill="white" stroke="black" points="3,-134.5 3,-153.5 125,-153.5 125,-134.5 3,-134.5"/>
<text text-anchor="middle" x="64" y="-141.5" font-family="Helvetica,sans-Serif" font-size="10.00">lcec_class_dout_pin_t</text>
</a>
</g>
</g>
<!-- Node3&#45;&gt;Node2 -->
<g id="edge2" class="edge">
<title>Node3&#45;&gt;Node2</title>
<path fill="none" stroke="#9a32cd" stroke-dasharray="5,2" d="M64,-124.04C64,-111.67 64,-96.12 64,-86.63"/>
<polygon fill="#9a32cd" stroke="#9a32cd" points="60.5,-124.23 64,-134.23 67.5,-124.23 60.5,-124.23"/>
<text text-anchor="middle" x="76" y="-108" font-family="Helvetica,sans-Serif" font-size="10.00"> pins</text>
</g>
<!-- Node4 -->
<g id="node4" class="node">
<title>Node4</title>
<g id="a_node4"><a xlink:href="structlcec__class__din__pins__t.html" target="_top" xlink:title=" ">
<polygon fill="white" stroke="black" points="146.5,-67.5 146.5,-86.5 267.5,-86.5 267.5,-67.5 146.5,-67.5"/>
<text text-anchor="middle" x="207" y="-74.5" font-family="Helvetica,sans-Serif" font-size="10.00">lcec_class_din_pins_t</text>
</a>
</g>
</g>
<!-- Node4&#45;&gt;Node1 -->
<g id="edge3" class="edge">
<title>Node4&#45;&gt;Node1</title>
<path fill="none" stroke="#9a32cd" stroke-dasharray="5,2" d="M189.67,-60.36C175.52,-47.58 156.04,-29.99 144.56,-19.63"/>
<polygon fill="#9a32cd" stroke="#9a32cd" points="187.52,-63.13 197.29,-67.23 192.21,-57.93 187.52,-63.13"/>
<text text-anchor="middle" x="195" y="-41" font-family="Helvetica,sans-Serif" font-size="10.00"> pins_in</text>
</g>
<!-- Node5 -->
<g id="node5" class="node">
<title>Node5</title>
<g id="a_node5"><a xlink:href="structlcec__class__din__pin__t.html" target="_top" xlink:title=" ">
<polygon fill="white" stroke="black" points="149,-134.5 149,-153.5 265,-153.5 265,-134.5 149,-134.5"/>
<text text-anchor="middle" x="207" y="-141.5" font-family="Helvetica,sans-Serif" font-size="10.00">lcec_class_din_pin_t</text>
</a>
</g>
</g>
<!-- Node5&#45;&gt;Node4 -->
<g id="edge4" class="edge">
<title>Node5&#45;&gt;Node4</title>
<path fill="none" stroke="#9a32cd" stroke-dasharray="5,2" d="M207,-124.04C207,-111.67 207,-96.12 207,-86.63"/>
<polygon fill="#9a32cd" stroke="#9a32cd" points="203.5,-124.23 207,-134.23 210.5,-124.23 203.5,-124.23"/>
<text text-anchor="middle" x="219" y="-108" font-family="Helvetica,sans-Serif" font-size="10.00"> pins</text>
</g>
</g>
</svg>
