<?xml version="1.0" encoding="UTF-8" standalone="no"?>
<!DOCTYPE svg PUBLIC "-//W3C//DTD SVG 1.1//EN"
 "http://www.w3.org/Graphics/SVG/1.1/DTD/svg11.dtd">
<!-- Generated by graphviz version 2.43.0 (0)
 -->
<!-- Title: LCEC_CONF_MODPARAM_T Pages: 1 -->
<svg width="157pt" height="106pt"
 viewBox="0.00 0.00 157.00 106.00" xmlns="http://www.w3.org/2000/svg" xmlns:xlink="http://www.w3.org/1999/xlink">
<g id="graph0" class="graph" transform="scale(1 1) rotate(0) translate(4 102)">
<title>LCEC_CONF_MODPARAM_T</title>
<polygon fill="white" stroke="transparent" points="-4,4 -4,-102 153,-102 153,4 -4,4"/>
<!-- Node1 -->
<g id="node1" class="node">
<title>Node1</title>
<g id="a_node1"><a xlink:title=" ">
<polygon fill="#bfbfbf" stroke="black" points="0,-0.5 0,-19.5 149,-19.5 149,-0.5 0,-0.5"/>
<text text-anchor="middle" x="74.5" y="-7.5" font-family="Helvetica,sans-Serif" font-size="10.00">LCEC_CONF_MODPARAM_T</text>
</a>
</g>
</g>
<!-- Node2 -->
<g id="node2" class="node">
<title>Node2</title>
<g id="a_node2"><a xlink:href="unionLCEC__CONF__MODPARAM__VAL__T.html" target="_top" xlink:title=" ">
<polygon fill="white" stroke="black" points="5.5,-67.5 5.5,-97.5 143.5,-97.5 143.5,-67.5 5.5,-67.5"/>
<text text-anchor="start" x="13.5" y="-85.5" font-family="Helvetica,sans-Serif" font-size="10.00">LCEC_CONF_MODPARAM</text>
<text text-anchor="middle" x="74.5" y="-74.5" font-family="Helvetica,sans-Serif" font-size="10.00">_VAL_T</text>
</a>
</g>
</g>
<!-- Node2&#45;&gt;Node1 -->
<g id="edge1" class="edge">
<title>Node2&#45;&gt;Node1</title>
<path fill="none" stroke="#9a32cd" stroke-dasharray="5,2" d="M74.5,-57.09C74.5,-44.21 74.5,-29.2 74.5,-19.89"/>
<polygon fill="#9a32cd" stroke="#9a32cd" points="71,-57.23 74.5,-67.23 78,-57.23 71,-57.23"/>
<text text-anchor="middle" x="90" y="-41" font-family="Helvetica,sans-Serif" font-size="10.00"> value</text>
</g>
</g>
</svg>
