<?xml version="1.0" encoding="UTF-8" standalone="no"?>
<!DOCTYPE svg PUBLIC "-//W3C//DTD SVG 1.1//EN"
 "http://www.w3.org/Graphics/SVG/1.1/DTD/svg11.dtd">
<!-- Generated by graphviz version 2.43.0 (0)
 -->
<!-- Title: lcec_master Pages: 1 -->
<!--zoomable 342 -->
<svg id="main" version="1.1" xmlns="http://www.w3.org/2000/svg" xmlns:xlink="http://www.w3.org/1999/xlink" xml:space="preserve" onload="init(evt)">
<style type="text/css"><![CDATA[
.edge:hover path { stroke: red; }
.edge:hover polygon { stroke: red; fill: red; }
]]></style>
<script type="text/javascript"><![CDATA[
var edges = document.getElementsByTagName('g');
if (edges && edges.length) {
  for (var i=0;i<edges.length;i++) {
    if (edges[i].id.substr(0,4)=='edge') {
      edges[i].setAttribute('class','edge');
    }
  }
}
]]></script>
        <defs>
                <circle id="rim" cx="0" cy="0" r="7"/>
                <circle id="rim2" cx="0" cy="0" r="3.5"/>
                <g id="zoomPlus">
                        <use xlink:href="#rim" fill="#404040">
                                <set attributeName="fill" to="#808080" begin="zoomplus.mouseover" end="zoomplus.mouseout"/>
                        </use>
                        <path d="M-4,0h8M0,-4v8" fill="none" stroke="white" stroke-width="1.5" pointer-events="none"/>
                </g>
                <g id="zoomMin">
                        <use xlink:href="#rim" fill="#404040">
                                <set attributeName="fill" to="#808080" begin="zoomminus.mouseover" end="zoomminus.mouseout"/>
                        </use>
                        <path d="M-4,0h8" fill="none" stroke="white" stroke-width="1.5" pointer-events="none"/>
                </g>
                <g id="dirArrow">
                        <path fill="none" stroke="white" stroke-width="1.5" d="M0,-3.0v7 M-2.5,-0.5L0,-3.0L2.5,-0.5"/>
                </g>
               <g id="resetDef">
                       <use xlink:href="#rim2" fill="#404040">
                               <set attributeName="fill" to="#808080" begin="reset.mouseover" end="reset.mouseout"/>
                       </use>
               </g>
        </defs>

<script type="text/javascript">
var viewWidth = 552;
var viewHeight = 342;
var sectionId = 'dynsection-0';
</script>
<script xlink:href="svgpan.js"/>
<svg id="graph" class="graph">
<g id="viewport">
<title>lcec_master</title>
<polygon fill="white" stroke="transparent" points="-4,4 -4,-337.7 548,-337.7 548,4 -4,4"/>
<!-- Node1 -->
<g id="node1" class="node">
<title>Node1</title>
<g id="a_node1"><a xlink:title=" ">
<polygon fill="#bfbfbf" stroke="black" points="249.5,-8.2 249.5,-27.2 325.5,-27.2 325.5,-8.2 249.5,-8.2"/>
<text text-anchor="middle" x="287.5" y="-15.2" font-family="Helvetica,sans-Serif" font-size="10.00">lcec_master</text>
</a>
</g>
</g>
<!-- Node1&#45;&gt;Node1 -->
<g id="edge13" class="edge">
<title>Node1&#45;&gt;Node1</title>
<path fill="none" stroke="#9a32cd" stroke-dasharray="5,2" d="M267.5,-37.1C268.84,-42.02 275.5,-45.7 287.5,-45.7 306.7,-45.7 312.24,-36.27 304.15,-27.46"/>
<polygon fill="#9a32cd" stroke="#9a32cd" points="270.88,-38.05 270.85,-27.46 264.26,-35.75 270.88,-38.05"/>
<text text-anchor="middle" x="287.5" y="-59.7" font-family="Helvetica,sans-Serif" font-size="10.00"> next</text>
<text text-anchor="middle" x="287.5" y="-48.7" font-family="Helvetica,sans-Serif" font-size="10.00">prev</text>
</g>
<!-- Node2 -->
<g id="node2" class="node">
<title>Node2</title>
<g id="a_node2"><a xlink:href="structlcec__slave.html" target="_top" xlink:title=" ">
<polygon fill="white" stroke="black" points="471.5,-162.2 471.5,-181.2 539.5,-181.2 539.5,-162.2 471.5,-162.2"/>
<text text-anchor="middle" x="505.5" y="-169.2" font-family="Helvetica,sans-Serif" font-size="10.00">lcec_slave</text>
</a>
</g>
</g>
<!-- Node1&#45;&gt;Node2 -->
<g id="edge9" class="edge">
<title>Node1&#45;&gt;Node2</title>
<path fill="none" stroke="#9a32cd" stroke-dasharray="5,2" d="M332.28,-30.4C366.74,-41.99 414.54,-61.77 449,-90.7 473.54,-111.31 491.97,-145.33 500.03,-161.95"/>
<polygon fill="#9a32cd" stroke="#9a32cd" points="333.08,-26.98 322.49,-27.2 330.91,-33.63 333.08,-26.98"/>
<text text-anchor="middle" x="411" y="-93.7" font-family="Helvetica,sans-Serif" font-size="10.00"> master</text>
</g>
<!-- Node2&#45;&gt;Node1 -->
<g id="edge1" class="edge">
<title>Node2&#45;&gt;Node1</title>
<path fill="none" stroke="#9a32cd" stroke-dasharray="5,2" d="M504.04,-151.9C502.06,-117.97 492.56,-49.44 449,-18.7 411.09,8.05 354.6,0.43 319.74,-8.17"/>
<polygon fill="#9a32cd" stroke="#9a32cd" points="500.55,-152.13 504.46,-161.97 507.54,-151.83 500.55,-152.13"/>
<text text-anchor="middle" x="411" y="-32.7" font-family="Helvetica,sans-Serif" font-size="10.00"> first_slave</text>
<text text-anchor="middle" x="411" y="-21.7" font-family="Helvetica,sans-Serif" font-size="10.00">last_slave</text>
</g>
<!-- Node2&#45;&gt;Node2 -->
<g id="edge3" class="edge">
<title>Node2&#45;&gt;Node2</title>
<path fill="none" stroke="#9a32cd" stroke-dasharray="5,2" d="M488.09,-191.1C489.26,-196.02 495.06,-199.7 505.5,-199.7 522.21,-199.7 527.04,-190.27 519.99,-181.46"/>
<polygon fill="#9a32cd" stroke="#9a32cd" points="491.47,-192.04 491.01,-181.46 484.77,-190.02 491.47,-192.04"/>
<text text-anchor="middle" x="505.5" y="-268.7" font-family="Helvetica,sans-Serif" font-size="10.00"> next</text>
<text text-anchor="middle" x="505.5" y="-257.7" font-family="Helvetica,sans-Serif" font-size="10.00">prev</text>
<text text-anchor="middle" x="505.5" y="-246.7" font-family="Helvetica,sans-Serif" font-size="10.00">proc_cleanup</text>
<text text-anchor="middle" x="505.5" y="-235.7" font-family="Helvetica,sans-Serif" font-size="10.00">proc_init</text>
<text text-anchor="middle" x="505.5" y="-224.7" font-family="Helvetica,sans-Serif" font-size="10.00">proc_preinit</text>
<text text-anchor="middle" x="505.5" y="-213.7" font-family="Helvetica,sans-Serif" font-size="10.00">proc_read</text>
<text text-anchor="middle" x="505.5" y="-202.7" font-family="Helvetica,sans-Serif" font-size="10.00">proc_write</text>
</g>
<!-- Node3 -->
<g id="node3" class="node">
<title>Node3</title>
<g id="a_node3"><a xlink:href="structlcec__slave__state.html" target="_top" xlink:title=" ">
<polygon fill="white" stroke="black" points="238.5,-314.2 238.5,-333.2 336.5,-333.2 336.5,-314.2 238.5,-314.2"/>
<text text-anchor="middle" x="287.5" y="-321.2" font-family="Helvetica,sans-Serif" font-size="10.00">lcec_slave_state</text>
</a>
</g>
</g>
<!-- Node3&#45;&gt;Node2 -->
<g id="edge2" class="edge">
<title>Node3&#45;&gt;Node2</title>
<path fill="none" stroke="#9a32cd" stroke-dasharray="5,2" d="M346.79,-325.06C379.88,-322.97 420.28,-315.26 449,-292.7 485.9,-263.72 499.18,-204.62 503.09,-181.39"/>
<polygon fill="#9a32cd" stroke="#9a32cd" points="346.6,-321.57 336.78,-325.54 346.94,-328.56 346.6,-321.57"/>
<text text-anchor="middle" x="411" y="-324.7" font-family="Helvetica,sans-Serif" font-size="10.00"> hal_state_data</text>
</g>
<!-- Node4 -->
<g id="node4" class="node">
<title>Node4</title>
<g id="a_node4"><a xlink:href="structlcec__slave__watchdog__t.html" target="_top" xlink:title=" ">
<polygon fill="white" stroke="black" points="223,-276.2 223,-295.2 352,-295.2 352,-276.2 223,-276.2"/>
<text text-anchor="middle" x="287.5" y="-283.2" font-family="Helvetica,sans-Serif" font-size="10.00">lcec_slave_watchdog_t</text>
</a>
</g>
</g>
<!-- Node4&#45;&gt;Node2 -->
<g id="edge4" class="edge">
<title>Node4&#45;&gt;Node2</title>
<path fill="none" stroke="#9a32cd" stroke-dasharray="5,2" d="M362.18,-280.54C391.13,-275.73 423.47,-266.67 449,-249.7 475.16,-232.32 492.94,-198.09 500.46,-181.36"/>
<polygon fill="#9a32cd" stroke="#9a32cd" points="361.46,-277.11 352.1,-282.07 362.51,-284.03 361.46,-277.11"/>
<text text-anchor="middle" x="411" y="-280.7" font-family="Helvetica,sans-Serif" font-size="10.00"> wd_conf</text>
</g>
<!-- Node5 -->
<g id="node5" class="node">
<title>Node5</title>
<g id="a_node5"><a xlink:href="structlcec__slave__idnconf__t.html" target="_top" xlink:title=" ">
<polygon fill="white" stroke="black" points="228.5,-238.2 228.5,-257.2 346.5,-257.2 346.5,-238.2 228.5,-238.2"/>
<text text-anchor="middle" x="287.5" y="-245.2" font-family="Helvetica,sans-Serif" font-size="10.00">lcec_slave_idnconf_t</text>
</a>
</g>
</g>
<!-- Node5&#45;&gt;Node2 -->
<g id="edge5" class="edge">
<title>Node5&#45;&gt;Node2</title>
<path fill="none" stroke="#9a32cd" stroke-dasharray="5,2" d="M356.95,-239.3C386.21,-234.07 420.19,-225.76 449,-212.7 466.46,-204.79 483.77,-190.75 494.3,-181.34"/>
<polygon fill="#9a32cd" stroke="#9a32cd" points="356.09,-235.9 346.82,-241.02 357.26,-242.8 356.09,-235.9"/>
<text text-anchor="middle" x="411" y="-237.7" font-family="Helvetica,sans-Serif" font-size="10.00"> idn_config</text>
</g>
<!-- Node6 -->
<g id="node6" class="node">
<title>Node6</title>
<g id="a_node6"><a xlink:href="structlcec__slave__modparam__t.html" target="_top" xlink:title=" ">
<polygon fill="white" stroke="black" points="220,-200.2 220,-219.2 355,-219.2 355,-200.2 220,-200.2"/>
<text text-anchor="middle" x="287.5" y="-207.2" font-family="Helvetica,sans-Serif" font-size="10.00">lcec_slave_modparam_t</text>
</a>
</g>
</g>
<!-- Node6&#45;&gt;Node2 -->
<g id="edge6" class="edge">
<title>Node6&#45;&gt;Node2</title>
<path fill="none" stroke="#9a32cd" stroke-dasharray="5,2" d="M365.16,-199.81C391.8,-195.96 421.81,-191.15 449,-185.7 456.31,-184.24 464.1,-182.43 471.46,-180.6"/>
<polygon fill="#9a32cd" stroke="#9a32cd" points="364.54,-196.36 355.13,-201.24 365.52,-203.29 364.54,-196.36"/>
<text text-anchor="middle" x="411" y="-200.7" font-family="Helvetica,sans-Serif" font-size="10.00"> modparams</text>
</g>
<!-- Node7 -->
<g id="node7" class="node">
<title>Node7</title>
<g id="a_node7"><a xlink:href="unionLCEC__CONF__MODPARAM__VAL__T.html" target="_top" xlink:title=" ">
<polygon fill="white" stroke="black" points="0,-194.7 0,-224.7 138,-224.7 138,-194.7 0,-194.7"/>
<text text-anchor="start" x="8" y="-212.7" font-family="Helvetica,sans-Serif" font-size="10.00">LCEC_CONF_MODPARAM</text>
<text text-anchor="middle" x="69" y="-201.7" font-family="Helvetica,sans-Serif" font-size="10.00">_VAL_T</text>
</a>
</g>
</g>
<!-- Node7&#45;&gt;Node6 -->
<g id="edge7" class="edge">
<title>Node7&#45;&gt;Node6</title>
<path fill="none" stroke="#9a32cd" stroke-dasharray="5,2" d="M148.43,-209.7C171.81,-209.7 197.2,-209.7 219.75,-209.7"/>
<polygon fill="#9a32cd" stroke="#9a32cd" points="148.2,-206.2 138.2,-209.7 148.2,-213.2 148.2,-206.2"/>
<text text-anchor="middle" x="179" y="-212.7" font-family="Helvetica,sans-Serif" font-size="10.00"> value</text>
</g>
<!-- Node8 -->
<g id="node8" class="node">
<title>Node8</title>
<g id="a_node8"><a xlink:href="structlcec__slave__dc__t.html" target="_top" xlink:title=" ">
<polygon fill="white" stroke="black" points="241,-162.2 241,-181.2 334,-181.2 334,-162.2 241,-162.2"/>
<text text-anchor="middle" x="287.5" y="-169.2" font-family="Helvetica,sans-Serif" font-size="10.00">lcec_slave_dc_t</text>
</a>
</g>
</g>
<!-- Node8&#45;&gt;Node2 -->
<g id="edge8" class="edge">
<title>Node8&#45;&gt;Node2</title>
<path fill="none" stroke="#9a32cd" stroke-dasharray="5,2" d="M344.25,-171.7C384.52,-171.7 437.55,-171.7 471.35,-171.7"/>
<polygon fill="#9a32cd" stroke="#9a32cd" points="344.04,-168.2 334.04,-171.7 344.04,-175.2 344.04,-168.2"/>
<text text-anchor="middle" x="411" y="-174.7" font-family="Helvetica,sans-Serif" font-size="10.00"> dc_conf</text>
</g>
<!-- Node9 -->
<g id="node9" class="node">
<title>Node9</title>
<g id="a_node9"><a xlink:href="structlcec__slave__sdoconf__t.html" target="_top" xlink:title=" ">
<polygon fill="white" stroke="black" points="227.5,-124.2 227.5,-143.2 347.5,-143.2 347.5,-124.2 227.5,-124.2"/>
<text text-anchor="middle" x="287.5" y="-131.2" font-family="Helvetica,sans-Serif" font-size="10.00">lcec_slave_sdoconf_t</text>
</a>
</g>
</g>
<!-- Node9&#45;&gt;Node2 -->
<g id="edge10" class="edge">
<title>Node9&#45;&gt;Node2</title>
<path fill="none" stroke="#9a32cd" stroke-dasharray="5,2" d="M358.09,-141.8C386.42,-145.58 419.41,-150.61 449,-156.7 456.43,-158.23 464.34,-160.18 471.79,-162.15"/>
<polygon fill="#9a32cd" stroke="#9a32cd" points="358.24,-138.29 347.87,-140.46 357.33,-145.23 358.24,-138.29"/>
<text text-anchor="middle" x="411" y="-159.7" font-family="Helvetica,sans-Serif" font-size="10.00"> sdo_config</text>
</g>
<!-- Node10 -->
<g id="node10" class="node">
<title>Node10</title>
<g id="a_node10"><a xlink:href="structLCEC__CONF__FSOE__T.html" target="_top" xlink:title=" ">
<polygon fill="white" stroke="black" points="229.5,-86.2 229.5,-105.2 345.5,-105.2 345.5,-86.2 229.5,-86.2"/>
<text text-anchor="middle" x="287.5" y="-93.2" font-family="Helvetica,sans-Serif" font-size="10.00">LCEC_CONF_FSOE_T</text>
</a>
</g>
</g>
<!-- Node10&#45;&gt;Node2 -->
<g id="edge11" class="edge">
<title>Node10&#45;&gt;Node2</title>
<path fill="none" stroke="#9a32cd" stroke-dasharray="5,2" d="M356.03,-102.61C385.55,-107.37 419.98,-115.36 449,-128.7 466.94,-136.95 484.4,-151.98 494.8,-161.9"/>
<polygon fill="#9a32cd" stroke="#9a32cd" points="356.23,-99.1 345.81,-101.06 355.17,-106.02 356.23,-99.1"/>
<text text-anchor="middle" x="411" y="-131.7" font-family="Helvetica,sans-Serif" font-size="10.00"> fsoeConf</text>
</g>
<!-- Node11 -->
<g id="node11" class="node">
<title>Node11</title>
<g id="a_node11"><a xlink:href="structlcec__master__data.html" target="_top" xlink:title=" ">
<polygon fill="white" stroke="black" points="17.5,-8.2 17.5,-27.2 120.5,-27.2 120.5,-8.2 17.5,-8.2"/>
<text text-anchor="middle" x="69" y="-15.2" font-family="Helvetica,sans-Serif" font-size="10.00">lcec_master_data</text>
</a>
</g>
</g>
<!-- Node11&#45;&gt;Node1 -->
<g id="edge12" class="edge">
<title>Node11&#45;&gt;Node1</title>
<path fill="none" stroke="#9a32cd" stroke-dasharray="5,2" d="M131.21,-17.7C169.22,-17.7 216.84,-17.7 249.26,-17.7"/>
<polygon fill="#9a32cd" stroke="#9a32cd" points="130.76,-14.2 120.76,-17.7 130.76,-21.2 130.76,-14.2"/>
<text text-anchor="middle" x="179" y="-20.7" font-family="Helvetica,sans-Serif" font-size="10.00"> hal_data</text>
</g>
</g>
</svg>
        <g id="navigator" transform="translate(0 0)" fill="#404254">
                <rect fill="#f2f5e9" fill-opacity="0.5" stroke="#606060" stroke-width=".5" x="0" y="0" width="60" height="60"/>
                <use id="zoomplus" xlink:href="#zoomPlus" x="17" y="9" onmousedown="handleZoom(evt,'in')"/>
                <use id="zoomminus" xlink:href="#zoomMin" x="42" y="9" onmousedown="handleZoom(evt,'out')"/>
                <use id="reset" xlink:href="#resetDef" x="30" y="36" onmousedown="handleReset()"/>
                <g id="arrowUp" xlink:href="#dirArrow" transform="translate(30 24)" onmousedown="handlePan(0,-1)">
                  <use xlink:href="#rim" fill="#404040">
                        <set attributeName="fill" to="#808080" begin="arrowUp.mouseover" end="arrowUp.mouseout"/>
                  </use>
                  <path fill="none" stroke="white" stroke-width="1.5" d="M0,-3.0v7 M-2.5,-0.5L0,-3.0L2.5,-0.5"/>
                </g>
                <g id="arrowRight" xlink:href="#dirArrow" transform="rotate(90) translate(36 -43)" onmousedown="handlePan(1,0)">
                  <use xlink:href="#rim" fill="#404040">
                        <set attributeName="fill" to="#808080" begin="arrowRight.mouseover" end="arrowRight.mouseout"/>
                  </use>
                  <path fill="none" stroke="white" stroke-width="1.5" d="M0,-3.0v7 M-2.5,-0.5L0,-3.0L2.5,-0.5"/>
                </g>
                <g id="arrowDown" xlink:href="#dirArrow" transform="rotate(180) translate(-30 -48)" onmousedown="handlePan(0,1)">
                  <use xlink:href="#rim" fill="#404040">
                        <set attributeName="fill" to="#808080" begin="arrowDown.mouseover" end="arrowDown.mouseout"/>
                  </use>
                  <path fill="none" stroke="white" stroke-width="1.5" d="M0,-3.0v7 M-2.5,-0.5L0,-3.0L2.5,-0.5"/>
                </g>
                <g id="arrowLeft" xlink:href="#dirArrow" transform="rotate(270) translate(-36 17)" onmousedown="handlePan(-1,0)">
                  <use xlink:href="#rim" fill="#404040">
                        <set attributeName="fill" to="#808080" begin="arrowLeft.mouseover" end="arrowLeft.mouseout"/>
                  </use>
                  <path fill="none" stroke="white" stroke-width="1.5" d="M0,-3.0v7 M-2.5,-0.5L0,-3.0L2.5,-0.5"/>
                </g>
        </g>
        <svg viewBox="0 0 15 15" width="100%" height="30px" preserveAspectRatio="xMaxYMin meet">
         <g id="arrow_out" transform="scale(0.3 0.3)">
          <a xlink:href="structlcec__master__coll__graph_org.svg" target="_base">
           <rect id="button" ry="5" rx="5" y="6" x="6" height="38" width="38"
                fill="#f2f5e9" fill-opacity="0.5" stroke="#606060" stroke-width="1.0"/>
           <path id="arrow"
             d="M 11.500037,31.436501 C 11.940474,20.09759 22.043105,11.32322 32.158766,21.979434 L 37.068811,17.246167 C 37.068811,17.246167 37.088388,32 37.088388,32 L 22.160133,31.978069 C 22.160133,31.978069 26.997745,27.140456 26.997745,27.140456 C 18.528582,18.264221 13.291696,25.230495 11.500037,31.436501 z"
             style="fill:#404040;"/>
          </a>
         </g>
        </svg>
</svg>
