<?xml version="1.0" encoding="UTF-8" standalone="no"?>
<!DOCTYPE svg PUBLIC "-//W3C//DTD SVG 1.1//EN"
 "http://www.w3.org/Graphics/SVG/1.1/DTD/svg11.dtd">
<!-- Generated by graphviz version 2.43.0 (0)
 -->
<!-- Title: LCEC_CONF_OUTBUF_T Pages: 1 -->
<svg width="201pt" height="106pt"
 viewBox="0.00 0.00 201.00 106.00" xmlns="http://www.w3.org/2000/svg" xmlns:xlink="http://www.w3.org/1999/xlink">
<g id="graph0" class="graph" transform="scale(1 1) rotate(0) translate(4 102)">
<title>LCEC_CONF_OUTBUF_T</title>
<polygon fill="white" stroke="transparent" points="-4,4 -4,-102 197,-102 197,4 -4,4"/>
<!-- Node1 -->
<g id="node1" class="node">
<title>Node1</title>
<g id="a_node1"><a xlink:title=" ">
<polygon fill="#bfbfbf" stroke="black" points="9,-0.5 9,-19.5 141,-19.5 141,-0.5 9,-0.5"/>
<text text-anchor="middle" x="75" y="-7.5" font-family="Helvetica,sans-Serif" font-size="10.00">LCEC_CONF_OUTBUF_T</text>
</a>
</g>
</g>
<!-- Node2 -->
<g id="node2" class="node">
<title>Node2</title>
<g id="a_node2"><a xlink:href="structLCEC__CONF__OUTBUF__ITEM.html" target="_top" xlink:title=" ">
<polygon fill="white" stroke="black" points="0,-78.5 0,-97.5 150,-97.5 150,-78.5 0,-78.5"/>
<text text-anchor="middle" x="75" y="-85.5" font-family="Helvetica,sans-Serif" font-size="10.00">LCEC_CONF_OUTBUF_ITEM</text>
</a>
</g>
</g>
<!-- Node2&#45;&gt;Node1 -->
<g id="edge1" class="edge">
<title>Node2&#45;&gt;Node1</title>
<path fill="none" stroke="#9a32cd" stroke-dasharray="5,2" d="M75,-68.22C75,-52.7 75,-31.36 75,-19.62"/>
<polygon fill="#9a32cd" stroke="#9a32cd" points="71.5,-68.28 75,-78.28 78.5,-68.28 71.5,-68.28"/>
<text text-anchor="middle" x="89" y="-52" font-family="Helvetica,sans-Serif" font-size="10.00"> head</text>
<text text-anchor="middle" x="89" y="-41" font-family="Helvetica,sans-Serif" font-size="10.00">tail</text>
</g>
<!-- Node2&#45;&gt;Node2 -->
<g id="edge2" class="edge">
<title>Node2&#45;&gt;Node2</title>
<path fill="none" stroke="#9a32cd" stroke-dasharray="5,2" d="M160.14,-92.85C165.06,-91.69 168,-90.07 168,-88 168,-84.77 160.84,-82.64 150.17,-81.61"/>
<polygon fill="#9a32cd" stroke="#9a32cd" points="159.52,-89.41 150.17,-94.39 160.59,-96.33 159.52,-89.41"/>
<text text-anchor="middle" x="180.5" y="-85.5" font-family="Helvetica,sans-Serif" font-size="10.00"> next</text>
</g>
</g>
</svg>
