<?xml version="1.0" encoding="UTF-8" standalone="no"?>
<!DOCTYPE svg PUBLIC "-//W3C//DTD SVG 1.1//EN"
 "http://www.w3.org/Graphics/SVG/1.1/DTD/svg11.dtd">
<!-- Generated by graphviz version 2.43.0 (0)
 -->
<!-- Title: lcec_el6900_data_t Pages: 1 -->
<svg width="993pt" height="275pt"
 viewBox="0.00 0.00 993.00 275.00" xmlns="http://www.w3.org/2000/svg" xmlns:xlink="http://www.w3.org/1999/xlink">
<g id="graph0" class="graph" transform="scale(1 1) rotate(0) translate(4 271)">
<title>lcec_el6900_data_t</title>
<polygon fill="white" stroke="transparent" points="-4,4 -4,-271 989,-271 989,4 -4,4"/>
<!-- Node1 -->
<g id="node1" class="node">
<title>Node1</title>
<g id="a_node1"><a xlink:title=" ">
<polygon fill="#bfbfbf" stroke="black" points="875,-168.5 875,-187.5 985,-187.5 985,-168.5 875,-168.5"/>
<text text-anchor="middle" x="930" y="-175.5" font-family="Helvetica,sans-Serif" font-size="10.00">lcec_el6900_data_t</text>
</a>
</g>
</g>
<!-- Node2 -->
<g id="node2" class="node">
<title>Node2</title>
<g id="a_node2"><a xlink:href="structlcec__el6900__fsoe__io__t.html" target="_top" xlink:title=" ">
<polygon fill="white" stroke="black" points="673,-226.5 673,-245.5 797,-245.5 797,-226.5 673,-226.5"/>
<text text-anchor="middle" x="735" y="-233.5" font-family="Helvetica,sans-Serif" font-size="10.00">lcec_el6900_fsoe_io_t</text>
</a>
</g>
</g>
<!-- Node2&#45;&gt;Node1 -->
<g id="edge1" class="edge">
<title>Node2&#45;&gt;Node1</title>
<path fill="none" stroke="#9a32cd" stroke-dasharray="5,2" d="M777.55,-223.51C813.38,-212.75 864.38,-197.42 897.08,-187.59"/>
<polygon fill="#9a32cd" stroke="#9a32cd" points="776.44,-220.19 767.87,-226.42 778.45,-226.9 776.44,-220.19"/>
<text text-anchor="middle" x="836" y="-226" font-family="Helvetica,sans-Serif" font-size="10.00"> std_ins</text>
<text text-anchor="middle" x="836" y="-215" font-family="Helvetica,sans-Serif" font-size="10.00">std_outs</text>
</g>
<!-- Node3 -->
<g id="node3" class="node">
<title>Node3</title>
<g id="a_node3"><a xlink:href="structlcec__el6900__fsoe__t.html" target="_top" xlink:title=" ">
<polygon fill="white" stroke="black" points="680,-95.5 680,-114.5 790,-114.5 790,-95.5 680,-95.5"/>
<text text-anchor="middle" x="735" y="-102.5" font-family="Helvetica,sans-Serif" font-size="10.00">lcec_el6900_fsoe_t</text>
</a>
</g>
</g>
<!-- Node3&#45;&gt;Node1 -->
<g id="edge2" class="edge">
<title>Node3&#45;&gt;Node1</title>
<path fill="none" stroke="#9a32cd" stroke-dasharray="5,2" d="M770.94,-118.21C809.25,-132.71 869.81,-155.61 903.76,-168.45"/>
<polygon fill="#9a32cd" stroke="#9a32cd" points="771.82,-114.81 761.23,-114.54 769.35,-121.35 771.82,-114.81"/>
<text text-anchor="middle" x="836" y="-153" font-family="Helvetica,sans-Serif" font-size="10.00"> fsoe</text>
</g>
<!-- Node4 -->
<g id="node4" class="node">
<title>Node4</title>
<g id="a_node4"><a xlink:href="structlcec__slave.html" target="_top" xlink:title=" ">
<polygon fill="white" stroke="black" points="482.5,-114.5 482.5,-133.5 550.5,-133.5 550.5,-114.5 482.5,-114.5"/>
<text text-anchor="middle" x="516.5" y="-121.5" font-family="Helvetica,sans-Serif" font-size="10.00">lcec_slave</text>
</a>
</g>
</g>
<!-- Node4&#45;&gt;Node3 -->
<g id="edge3" class="edge">
<title>Node4&#45;&gt;Node3</title>
<path fill="none" stroke="#9a32cd" stroke-dasharray="5,2" d="M560.57,-112.72C572.89,-109.97 586.4,-107.42 599,-106 625.55,-103 655.23,-102.48 679.98,-102.82"/>
<polygon fill="#9a32cd" stroke="#9a32cd" points="559.49,-109.38 550.54,-115.05 561.08,-116.19 559.49,-109.38"/>
<text text-anchor="middle" x="627" y="-109" font-family="Helvetica,sans-Serif" font-size="10.00"> fsoe_slave</text>
</g>
<!-- Node4&#45;&gt;Node4 -->
<g id="edge5" class="edge">
<title>Node4&#45;&gt;Node4</title>
<path fill="none" stroke="#9a32cd" stroke-dasharray="5,2" d="M496.13,-143.4C497.49,-148.31 504.28,-152 516.5,-152 536.05,-152 541.7,-142.57 533.45,-133.76"/>
<polygon fill="#9a32cd" stroke="#9a32cd" points="499.51,-144.35 499.55,-133.76 492.91,-142.01 499.51,-144.35"/>
<text text-anchor="middle" x="516.5" y="-221" font-family="Helvetica,sans-Serif" font-size="10.00"> next</text>
<text text-anchor="middle" x="516.5" y="-210" font-family="Helvetica,sans-Serif" font-size="10.00">prev</text>
<text text-anchor="middle" x="516.5" y="-199" font-family="Helvetica,sans-Serif" font-size="10.00">proc_cleanup</text>
<text text-anchor="middle" x="516.5" y="-188" font-family="Helvetica,sans-Serif" font-size="10.00">proc_init</text>
<text text-anchor="middle" x="516.5" y="-177" font-family="Helvetica,sans-Serif" font-size="10.00">proc_preinit</text>
<text text-anchor="middle" x="516.5" y="-166" font-family="Helvetica,sans-Serif" font-size="10.00">proc_read</text>
<text text-anchor="middle" x="516.5" y="-155" font-family="Helvetica,sans-Serif" font-size="10.00">proc_write</text>
</g>
<!-- Node11 -->
<g id="node11" class="node">
<title>Node11</title>
<g id="a_node11"><a xlink:href="structlcec__master.html" target="_top" xlink:title=" ">
<polygon fill="white" stroke="black" points="697,-148.5 697,-167.5 773,-167.5 773,-148.5 697,-148.5"/>
<text text-anchor="middle" x="735" y="-155.5" font-family="Helvetica,sans-Serif" font-size="10.00">lcec_master</text>
</a>
</g>
</g>
<!-- Node4&#45;&gt;Node11 -->
<g id="edge12" class="edge">
<title>Node4&#45;&gt;Node11</title>
<path fill="none" stroke="#9a32cd" stroke-dasharray="5,2" d="M550.55,-137.19C565.16,-142.43 582.69,-147.93 599,-151 631.64,-157.14 669.44,-158.63 696.73,-158.73"/>
<polygon fill="#9a32cd" stroke="#9a32cd" points="551.54,-133.82 540.95,-133.63 549.11,-140.39 551.54,-133.82"/>
<text text-anchor="middle" x="627" y="-171" font-family="Helvetica,sans-Serif" font-size="10.00"> first_slave</text>
<text text-anchor="middle" x="627" y="-160" font-family="Helvetica,sans-Serif" font-size="10.00">last_slave</text>
</g>
<!-- Node5 -->
<g id="node5" class="node">
<title>Node5</title>
<g id="a_node5"><a xlink:href="structlcec__slave__state.html" target="_top" xlink:title=" ">
<polygon fill="white" stroke="black" points="223.5,-228.5 223.5,-247.5 321.5,-247.5 321.5,-228.5 223.5,-228.5"/>
<text text-anchor="middle" x="272.5" y="-235.5" font-family="Helvetica,sans-Serif" font-size="10.00">lcec_slave_state</text>
</a>
</g>
</g>
<!-- Node5&#45;&gt;Node4 -->
<g id="edge4" class="edge">
<title>Node5&#45;&gt;Node4</title>
<path fill="none" stroke="#9a32cd" stroke-dasharray="5,2" d="M331.8,-231.6C363.45,-226.34 402.45,-216.89 434,-200 466.07,-182.83 494.99,-149.89 508.09,-133.6"/>
<polygon fill="#9a32cd" stroke="#9a32cd" points="331.14,-228.16 321.8,-233.16 332.22,-235.08 331.14,-228.16"/>
<text text-anchor="middle" x="396" y="-228" font-family="Helvetica,sans-Serif" font-size="10.00"> hal_state_data</text>
</g>
<!-- Node6 -->
<g id="node6" class="node">
<title>Node6</title>
<g id="a_node6"><a xlink:href="structlcec__slave__watchdog__t.html" target="_top" xlink:title=" ">
<polygon fill="white" stroke="black" points="208,-190.5 208,-209.5 337,-209.5 337,-190.5 208,-190.5"/>
<text text-anchor="middle" x="272.5" y="-197.5" font-family="Helvetica,sans-Serif" font-size="10.00">lcec_slave_watchdog_t</text>
</a>
</g>
</g>
<!-- Node6&#45;&gt;Node4 -->
<g id="edge6" class="edge">
<title>Node6&#45;&gt;Node4</title>
<path fill="none" stroke="#9a32cd" stroke-dasharray="5,2" d="M344.17,-188.57C372.54,-182.96 405.26,-175.18 434,-165 457.74,-156.59 483.43,-142.81 499.49,-133.58"/>
<polygon fill="#9a32cd" stroke="#9a32cd" points="343.49,-185.14 334.33,-190.46 344.81,-192.01 343.49,-185.14"/>
<text text-anchor="middle" x="396" y="-188" font-family="Helvetica,sans-Serif" font-size="10.00"> wd_conf</text>
</g>
<!-- Node7 -->
<g id="node7" class="node">
<title>Node7</title>
<g id="a_node7"><a xlink:href="structlcec__slave__idnconf__t.html" target="_top" xlink:title=" ">
<polygon fill="white" stroke="black" points="213.5,-152.5 213.5,-171.5 331.5,-171.5 331.5,-152.5 213.5,-152.5"/>
<text text-anchor="middle" x="272.5" y="-159.5" font-family="Helvetica,sans-Serif" font-size="10.00">lcec_slave_idnconf_t</text>
</a>
</g>
</g>
<!-- Node7&#45;&gt;Node4 -->
<g id="edge7" class="edge">
<title>Node7&#45;&gt;Node4</title>
<path fill="none" stroke="#9a32cd" stroke-dasharray="5,2" d="M341.81,-152.82C370.34,-148.83 403.82,-143.94 434,-139 449.9,-136.4 467.49,-133.2 482.24,-130.43"/>
<polygon fill="#9a32cd" stroke="#9a32cd" points="340.95,-149.41 331.53,-154.25 341.92,-156.34 340.95,-149.41"/>
<text text-anchor="middle" x="396" y="-153" font-family="Helvetica,sans-Serif" font-size="10.00"> idn_config</text>
</g>
<!-- Node8 -->
<g id="node8" class="node">
<title>Node8</title>
<g id="a_node8"><a xlink:href="structlcec__slave__modparam__t.html" target="_top" xlink:title=" ">
<polygon fill="white" stroke="black" points="205,-114.5 205,-133.5 340,-133.5 340,-114.5 205,-114.5"/>
<text text-anchor="middle" x="272.5" y="-121.5" font-family="Helvetica,sans-Serif" font-size="10.00">lcec_slave_modparam_t</text>
</a>
</g>
</g>
<!-- Node8&#45;&gt;Node4 -->
<g id="edge8" class="edge">
<title>Node8&#45;&gt;Node4</title>
<path fill="none" stroke="#9a32cd" stroke-dasharray="5,2" d="M350.47,-124C394.91,-124 448.52,-124 482.32,-124"/>
<polygon fill="#9a32cd" stroke="#9a32cd" points="350.27,-120.5 340.27,-124 350.27,-127.5 350.27,-120.5"/>
<text text-anchor="middle" x="396" y="-127" font-family="Helvetica,sans-Serif" font-size="10.00"> modparams</text>
</g>
<!-- Node9 -->
<g id="node9" class="node">
<title>Node9</title>
<g id="a_node9"><a xlink:href="unionLCEC__CONF__MODPARAM__VAL__T.html" target="_top" xlink:title=" ">
<polygon fill="white" stroke="black" points="0,-109 0,-139 138,-139 138,-109 0,-109"/>
<text text-anchor="start" x="8" y="-127" font-family="Helvetica,sans-Serif" font-size="10.00">LCEC_CONF_MODPARAM</text>
<text text-anchor="middle" x="69" y="-116" font-family="Helvetica,sans-Serif" font-size="10.00">_VAL_T</text>
</a>
</g>
</g>
<!-- Node9&#45;&gt;Node8 -->
<g id="edge9" class="edge">
<title>Node9&#45;&gt;Node8</title>
<path fill="none" stroke="#9a32cd" stroke-dasharray="5,2" d="M148.42,-124C167.02,-124 186.69,-124 204.72,-124"/>
<polygon fill="#9a32cd" stroke="#9a32cd" points="148.22,-120.5 138.22,-124 148.22,-127.5 148.22,-120.5"/>
<text text-anchor="middle" x="171.5" y="-127" font-family="Helvetica,sans-Serif" font-size="10.00"> value</text>
</g>
<!-- Node10 -->
<g id="node10" class="node">
<title>Node10</title>
<g id="a_node10"><a xlink:href="structlcec__slave__dc__t.html" target="_top" xlink:title=" ">
<polygon fill="white" stroke="black" points="226,-76.5 226,-95.5 319,-95.5 319,-76.5 226,-76.5"/>
<text text-anchor="middle" x="272.5" y="-83.5" font-family="Helvetica,sans-Serif" font-size="10.00">lcec_slave_dc_t</text>
</a>
</g>
</g>
<!-- Node10&#45;&gt;Node4 -->
<g id="edge10" class="edge">
<title>Node10&#45;&gt;Node4</title>
<path fill="none" stroke="#9a32cd" stroke-dasharray="5,2" d="M329.38,-93.45C360.27,-97.71 399.31,-103.32 434,-109 449.9,-111.6 467.49,-114.8 482.24,-117.57"/>
<polygon fill="#9a32cd" stroke="#9a32cd" points="329.62,-89.95 319.23,-92.06 328.67,-96.89 329.62,-89.95"/>
<text text-anchor="middle" x="396" y="-112" font-family="Helvetica,sans-Serif" font-size="10.00"> dc_conf</text>
</g>
<!-- Node11&#45;&gt;Node4 -->
<g id="edge11" class="edge">
<title>Node11&#45;&gt;Node4</title>
<path fill="none" stroke="#9a32cd" stroke-dasharray="5,2" d="M686.97,-146.41C676.49,-144.07 665.4,-141.78 655,-140 619.59,-133.92 578.64,-129.49 550.71,-126.85"/>
<polygon fill="#9a32cd" stroke="#9a32cd" points="686.26,-149.84 696.79,-148.65 687.82,-143.01 686.26,-149.84"/>
<text text-anchor="middle" x="627" y="-143" font-family="Helvetica,sans-Serif" font-size="10.00"> master</text>
</g>
<!-- Node11&#45;&gt;Node11 -->
<g id="edge14" class="edge">
<title>Node11&#45;&gt;Node11</title>
<path fill="none" stroke="#9a32cd" stroke-dasharray="5,2" d="M716.48,-177.4C717.72,-182.31 723.89,-186 735,-186 752.77,-186 757.91,-176.57 750.41,-167.76"/>
<polygon fill="#9a32cd" stroke="#9a32cd" points="719.85,-178.35 719.59,-167.76 713.19,-176.2 719.85,-178.35"/>
<text text-anchor="middle" x="735" y="-200" font-family="Helvetica,sans-Serif" font-size="10.00"> next</text>
<text text-anchor="middle" x="735" y="-189" font-family="Helvetica,sans-Serif" font-size="10.00">prev</text>
</g>
<!-- Node12 -->
<g id="node12" class="node">
<title>Node12</title>
<g id="a_node12"><a xlink:href="structlcec__master__data.html" target="_top" xlink:title=" ">
<polygon fill="white" stroke="black" points="465,-247.5 465,-266.5 568,-266.5 568,-247.5 465,-247.5"/>
<text text-anchor="middle" x="516.5" y="-254.5" font-family="Helvetica,sans-Serif" font-size="10.00">lcec_master_data</text>
</a>
</g>
</g>
<!-- Node12&#45;&gt;Node11 -->
<g id="edge13" class="edge">
<title>Node12&#45;&gt;Node11</title>
<path fill="none" stroke="#9a32cd" stroke-dasharray="5,2" d="M563.68,-244.32C569.57,-242.37 575.47,-240.25 581,-238 632.92,-216.88 690.63,-183.93 717.96,-167.7"/>
<polygon fill="#9a32cd" stroke="#9a32cd" points="562.33,-241.07 553.85,-247.43 564.44,-247.75 562.33,-241.07"/>
<text text-anchor="middle" x="627" y="-231" font-family="Helvetica,sans-Serif" font-size="10.00"> hal_data</text>
</g>
<!-- Node13 -->
<g id="node13" class="node">
<title>Node13</title>
<g id="a_node13"><a xlink:href="structlcec__slave__sdoconf__t.html" target="_top" xlink:title=" ">
<polygon fill="white" stroke="black" points="212.5,-38.5 212.5,-57.5 332.5,-57.5 332.5,-38.5 212.5,-38.5"/>
<text text-anchor="middle" x="272.5" y="-45.5" font-family="Helvetica,sans-Serif" font-size="10.00">lcec_slave_sdoconf_t</text>
</a>
</g>
</g>
<!-- Node13&#45;&gt;Node4 -->
<g id="edge15" class="edge">
<title>Node13&#45;&gt;Node4</title>
<path fill="none" stroke="#9a32cd" stroke-dasharray="5,2" d="M342.81,-58.5C371.51,-63.91 404.84,-71.61 434,-82 446.67,-86.51 478.13,-103.37 498.05,-114.31"/>
<polygon fill="#9a32cd" stroke="#9a32cd" points="343.33,-55.03 332.86,-56.67 342.07,-61.92 343.33,-55.03"/>
<text text-anchor="middle" x="396" y="-85" font-family="Helvetica,sans-Serif" font-size="10.00"> sdo_config</text>
</g>
<!-- Node14 -->
<g id="node14" class="node">
<title>Node14</title>
<g id="a_node14"><a xlink:href="structLCEC__CONF__FSOE__T.html" target="_top" xlink:title=" ">
<polygon fill="white" stroke="black" points="214.5,-0.5 214.5,-19.5 330.5,-19.5 330.5,-0.5 214.5,-0.5"/>
<text text-anchor="middle" x="272.5" y="-7.5" font-family="Helvetica,sans-Serif" font-size="10.00">LCEC_CONF_FSOE_T</text>
</a>
</g>
</g>
<!-- Node14&#45;&gt;Node4 -->
<g id="edge16" class="edge">
<title>Node14&#45;&gt;Node4</title>
<path fill="none" stroke="#9a32cd" stroke-dasharray="5,2" d="M340.79,-12.29C372.17,-16.52 408.19,-26.3 434,-48 449.54,-61.07 438.28,-75.03 452,-90 461.97,-100.88 476.24,-108.95 488.73,-114.49"/>
<polygon fill="#9a32cd" stroke="#9a32cd" points="341.12,-8.81 330.78,-11.1 340.3,-15.76 341.12,-8.81"/>
<text text-anchor="middle" x="396" y="-51" font-family="Helvetica,sans-Serif" font-size="10.00"> fsoeConf</text>
</g>
<!-- Node15 -->
<g id="node15" class="node">
<title>Node15</title>
<g id="a_node15"><a xlink:href="structlcec__el6900__fsoe__crc__t.html" target="_top" xlink:title=" ">
<polygon fill="white" stroke="black" points="452,-61.5 452,-80.5 581,-80.5 581,-61.5 452,-61.5"/>
<text text-anchor="middle" x="516.5" y="-68.5" font-family="Helvetica,sans-Serif" font-size="10.00">lcec_el6900_fsoe_crc_t</text>
</a>
</g>
</g>
<!-- Node15&#45;&gt;Node3 -->
<g id="edge17" class="edge">
<title>Node15&#45;&gt;Node3</title>
<path fill="none" stroke="#9a32cd" stroke-dasharray="5,2" d="M591.05,-78.07C611.79,-80.47 634.34,-83.45 655,-87 668.45,-89.31 683.05,-92.45 695.99,-95.46"/>
<polygon fill="#9a32cd" stroke="#9a32cd" points="591.35,-74.58 581.02,-76.94 590.57,-81.54 591.35,-74.58"/>
<text text-anchor="middle" x="627" y="-90" font-family="Helvetica,sans-Serif" font-size="10.00"> fsoe_crc</text>
</g>
</g>
</svg>
