<?xml version="1.0" encoding="UTF-8" standalone="no"?>
<!DOCTYPE svg PUBLIC "-//W3C//DTD SVG 1.1//EN"
 "http://www.w3.org/Graphics/SVG/1.1/DTD/svg11.dtd">
<!-- Generated by graphviz version 2.43.0 (0)
 -->
<!-- Title: lcec_ax5100_data_t Pages: 1 -->
<svg width="232pt" height="173pt"
 viewBox="0.00 0.00 231.50 173.00" xmlns="http://www.w3.org/2000/svg" xmlns:xlink="http://www.w3.org/1999/xlink">
<g id="graph0" class="graph" transform="scale(1 1) rotate(0) translate(4 169)">
<title>lcec_ax5100_data_t</title>
<polygon fill="white" stroke="transparent" points="-4,4 -4,-169 227.5,-169 227.5,4 -4,4"/>
<!-- Node1 -->
<g id="node1" class="node">
<title>Node1</title>
<g id="a_node1"><a xlink:title=" ">
<polygon fill="#bfbfbf" stroke="black" points="9.5,-0.5 9.5,-19.5 122.5,-19.5 122.5,-0.5 9.5,-0.5"/>
<text text-anchor="middle" x="66" y="-7.5" font-family="Helvetica,sans-Serif" font-size="10.00">lcec_ax5100_data_t</text>
</a>
</g>
</g>
<!-- Node2 -->
<g id="node2" class="node">
<title>Node2</title>
<g id="a_node2"><a xlink:href="structlcec__syncs__t.html" target="_top" xlink:title=" ">
<polygon fill="white" stroke="black" points="0,-67.5 0,-86.5 78,-86.5 78,-67.5 0,-67.5"/>
<text text-anchor="middle" x="39" y="-74.5" font-family="Helvetica,sans-Serif" font-size="10.00">lcec_syncs_t</text>
</a>
</g>
</g>
<!-- Node2&#45;&gt;Node1 -->
<g id="edge1" class="edge">
<title>Node2&#45;&gt;Node1</title>
<path fill="none" stroke="#9a32cd" stroke-dasharray="5,2" d="M46.56,-57.79C51.75,-45.31 58.39,-29.31 62.42,-19.63"/>
<polygon fill="#9a32cd" stroke="#9a32cd" points="43.25,-56.66 42.64,-67.23 49.71,-59.34 43.25,-56.66"/>
<text text-anchor="middle" x="70.5" y="-41" font-family="Helvetica,sans-Serif" font-size="10.00"> syncs</text>
</g>
<!-- Node3 -->
<g id="node3" class="node">
<title>Node3</title>
<g id="a_node3"><a xlink:href="structlcec__class__ax5__chan__t.html" target="_top" xlink:title=" ">
<polygon fill="white" stroke="black" points="96.5,-67.5 96.5,-86.5 223.5,-86.5 223.5,-67.5 96.5,-67.5"/>
<text text-anchor="middle" x="160" y="-74.5" font-family="Helvetica,sans-Serif" font-size="10.00">lcec_class_ax5_chan_t</text>
</a>
</g>
</g>
<!-- Node3&#45;&gt;Node1 -->
<g id="edge2" class="edge">
<title>Node3&#45;&gt;Node1</title>
<path fill="none" stroke="#9a32cd" stroke-dasharray="5,2" d="M138.91,-61.42C120.33,-48.57 93.88,-30.28 78.48,-19.63"/>
<polygon fill="#9a32cd" stroke="#9a32cd" points="137.11,-64.43 147.32,-67.23 141.09,-58.67 137.11,-64.43"/>
<text text-anchor="middle" x="131.5" y="-41" font-family="Helvetica,sans-Serif" font-size="10.00"> chan</text>
</g>
<!-- Node4 -->
<g id="node4" class="node">
<title>Node4</title>
<g id="a_node4"><a xlink:href="structlcec__class__enc__data__t.html" target="_top" xlink:title=" ">
<polygon fill="white" stroke="black" points="97.5,-145.5 97.5,-164.5 222.5,-164.5 222.5,-145.5 97.5,-145.5"/>
<text text-anchor="middle" x="160" y="-152.5" font-family="Helvetica,sans-Serif" font-size="10.00">lcec_class_enc_data_t</text>
</a>
</g>
</g>
<!-- Node4&#45;&gt;Node3 -->
<g id="edge3" class="edge">
<title>Node4&#45;&gt;Node3</title>
<path fill="none" stroke="#9a32cd" stroke-dasharray="5,2" d="M160,-135.22C160,-119.7 160,-98.36 160,-86.62"/>
<polygon fill="#9a32cd" stroke="#9a32cd" points="156.5,-135.28 160,-145.28 163.5,-135.28 156.5,-135.28"/>
<text text-anchor="middle" x="179.5" y="-119" font-family="Helvetica,sans-Serif" font-size="10.00"> enc</text>
<text text-anchor="middle" x="179.5" y="-108" font-family="Helvetica,sans-Serif" font-size="10.00">enc_fb2</text>
</g>
</g>
</svg>
