<?xml version="1.0" encoding="UTF-8" standalone="no"?>
<!DOCTYPE svg PUBLIC "-//W3C//DTD SVG 1.1//EN"
 "http://www.w3.org/Graphics/SVG/1.1/DTD/svg11.dtd">
<!-- Generated by graphviz version 2.43.0 (0)
 -->
<!-- Title: lcec_ph3lm2rm_data_t Pages: 1 -->
<svg width="318pt" height="229pt"
 viewBox="0.00 0.00 318.00 229.00" xmlns="http://www.w3.org/2000/svg" xmlns:xlink="http://www.w3.org/1999/xlink">
<g id="graph0" class="graph" transform="scale(1 1) rotate(0) translate(4 225)">
<title>lcec_ph3lm2rm_data_t</title>
<polygon fill="white" stroke="transparent" points="-4,4 -4,-225 314,-225 314,4 -4,4"/>
<!-- Node1 -->
<g id="node1" class="node">
<title>Node1</title>
<g id="a_node1"><a xlink:title=" ">
<polygon fill="#bfbfbf" stroke="black" points="90,-0.5 90,-19.5 218,-19.5 218,-0.5 90,-0.5"/>
<text text-anchor="middle" x="154" y="-7.5" font-family="Helvetica,sans-Serif" font-size="10.00">lcec_ph3lm2rm_data_t</text>
</a>
</g>
</g>
<!-- Node2 -->
<g id="node2" class="node">
<title>Node2</title>
<g id="a_node2"><a xlink:href="structlcec__ph3lm2rm__rm__data__t.html" target="_top" xlink:title=" ">
<polygon fill="white" stroke="black" points="0,-67.5 0,-86.5 146,-86.5 146,-67.5 0,-67.5"/>
<text text-anchor="middle" x="73" y="-74.5" font-family="Helvetica,sans-Serif" font-size="10.00">lcec_ph3lm2rm_rm_data_t</text>
</a>
</g>
</g>
<!-- Node2&#45;&gt;Node1 -->
<g id="edge1" class="edge">
<title>Node2&#45;&gt;Node1</title>
<path fill="none" stroke="#9a32cd" stroke-dasharray="5,2" d="M92.05,-60.71C108.01,-47.91 130.21,-30.09 143.25,-19.63"/>
<polygon fill="#9a32cd" stroke="#9a32cd" points="89.53,-58.25 83.92,-67.23 93.91,-63.7 89.53,-58.25"/>
<text text-anchor="middle" x="130" y="-41" font-family="Helvetica,sans-Serif" font-size="10.00"> rms</text>
</g>
<!-- Node3 -->
<g id="node3" class="node">
<title>Node3</title>
<g id="a_node3"><a xlink:href="structlcec__ph3lm2rm__enc__data__t.html" target="_top" xlink:title=" ">
<polygon fill="white" stroke="black" points="80,-134.5 80,-153.5 230,-153.5 230,-134.5 80,-134.5"/>
<text text-anchor="middle" x="155" y="-141.5" font-family="Helvetica,sans-Serif" font-size="10.00">lcec_ph3lm2rm_enc_data_t</text>
</a>
</g>
</g>
<!-- Node3&#45;&gt;Node2 -->
<g id="edge2" class="edge">
<title>Node3&#45;&gt;Node2</title>
<path fill="none" stroke="#9a32cd" stroke-dasharray="5,2" d="M135.72,-127.71C119.56,-114.91 97.08,-97.09 83.88,-86.63"/>
<polygon fill="#9a32cd" stroke="#9a32cd" points="133.93,-130.76 143.94,-134.23 138.28,-125.28 133.93,-130.76"/>
<text text-anchor="middle" x="126.5" y="-108" font-family="Helvetica,sans-Serif" font-size="10.00"> ch</text>
</g>
<!-- Node5 -->
<g id="node5" class="node">
<title>Node5</title>
<g id="a_node5"><a xlink:href="structlcec__ph3lm2rm__lm__data__t.html" target="_top" xlink:title=" ">
<polygon fill="white" stroke="black" points="164,-67.5 164,-86.5 310,-86.5 310,-67.5 164,-67.5"/>
<text text-anchor="middle" x="237" y="-74.5" font-family="Helvetica,sans-Serif" font-size="10.00">lcec_ph3lm2rm_lm_data_t</text>
</a>
</g>
</g>
<!-- Node3&#45;&gt;Node5 -->
<g id="edge5" class="edge">
<title>Node3&#45;&gt;Node5</title>
<path fill="none" stroke="#9a32cd" stroke-dasharray="5,2" d="M174.28,-127.71C190.44,-114.91 212.92,-97.09 226.12,-86.63"/>
<polygon fill="#9a32cd" stroke="#9a32cd" points="171.72,-125.28 166.06,-134.23 176.07,-130.76 171.72,-125.28"/>
<text text-anchor="middle" x="207.5" y="-108" font-family="Helvetica,sans-Serif" font-size="10.00"> ch</text>
</g>
<!-- Node4 -->
<g id="node4" class="node">
<title>Node4</title>
<g id="a_node4"><a xlink:href="structlcec__class__enc__data__t.html" target="_top" xlink:title=" ">
<polygon fill="white" stroke="black" points="92.5,-201.5 92.5,-220.5 217.5,-220.5 217.5,-201.5 92.5,-201.5"/>
<text text-anchor="middle" x="155" y="-208.5" font-family="Helvetica,sans-Serif" font-size="10.00">lcec_class_enc_data_t</text>
</a>
</g>
</g>
<!-- Node4&#45;&gt;Node3 -->
<g id="edge3" class="edge">
<title>Node4&#45;&gt;Node3</title>
<path fill="none" stroke="#9a32cd" stroke-dasharray="5,2" d="M155,-191.04C155,-178.67 155,-163.12 155,-153.63"/>
<polygon fill="#9a32cd" stroke="#9a32cd" points="151.5,-191.23 155,-201.23 158.5,-191.23 151.5,-191.23"/>
<text text-anchor="middle" x="165.5" y="-175" font-family="Helvetica,sans-Serif" font-size="10.00"> enc</text>
</g>
<!-- Node5&#45;&gt;Node1 -->
<g id="edge4" class="edge">
<title>Node5&#45;&gt;Node1</title>
<path fill="none" stroke="#9a32cd" stroke-dasharray="5,2" d="M217.93,-61.07C201.55,-48.24 178.5,-30.19 165.02,-19.63"/>
<polygon fill="#9a32cd" stroke="#9a32cd" points="215.78,-63.82 225.81,-67.23 220.09,-58.31 215.78,-63.82"/>
<text text-anchor="middle" x="211" y="-41" font-family="Helvetica,sans-Serif" font-size="10.00"> lms</text>
</g>
</g>
</svg>
