<?xml version="1.0" encoding="UTF-8" standalone="no"?>
<!DOCTYPE svg PUBLIC "-//W3C//DTD SVG 1.1//EN"
 "http://www.w3.org/Graphics/SVG/1.1/DTD/svg11.dtd">
<!-- Generated by graphviz version 2.43.0 (0)
 -->
<!-- Title: LCEC_CONF_ICMDS_STATE_T Pages: 1 -->
<svg width="628pt" height="180pt"
 viewBox="0.00 0.00 628.00 180.00" xmlns="http://www.w3.org/2000/svg" xmlns:xlink="http://www.w3.org/1999/xlink">
<g id="graph0" class="graph" transform="scale(1 1) rotate(0) translate(4 176)">
<title>LCEC_CONF_ICMDS_STATE_T</title>
<polygon fill="white" stroke="transparent" points="-4,4 -4,-176 624,-176 624,4 -4,4"/>
<!-- Node1 -->
<g id="node1" class="node">
<title>Node1</title>
<g id="a_node1"><a xlink:title=" ">
<polygon fill="#bfbfbf" stroke="black" points="462,-76.5 462,-95.5 620,-95.5 620,-76.5 462,-76.5"/>
<text text-anchor="middle" x="541" y="-83.5" font-family="Helvetica,sans-Serif" font-size="10.00">LCEC_CONF_ICMDS_STATE_T</text>
</a>
</g>
</g>
<!-- Node2 -->
<g id="node2" class="node">
<title>Node2</title>
<g id="a_node2"><a xlink:href="structLCEC__CONF__SDOCONF__T.html" target="_top" xlink:title=" ">
<polygon fill="white" stroke="black" points="223,-152.5 223,-171.5 363,-171.5 363,-152.5 223,-152.5"/>
<text text-anchor="middle" x="293" y="-159.5" font-family="Helvetica,sans-Serif" font-size="10.00">LCEC_CONF_SDOCONF_T</text>
</a>
</g>
</g>
<!-- Node2&#45;&gt;Node1 -->
<g id="edge1" class="edge">
<title>Node2&#45;&gt;Node1</title>
<path fill="none" stroke="#9a32cd" stroke-dasharray="5,2" d="M347.62,-150.19C376.44,-143.39 412.44,-134.2 444,-124 469.93,-115.62 498.91,-103.8 518.18,-95.57"/>
<polygon fill="#9a32cd" stroke="#9a32cd" points="346.69,-146.81 337.74,-152.49 348.28,-153.63 346.69,-146.81"/>
<text text-anchor="middle" x="412.5" y="-144" font-family="Helvetica,sans-Serif" font-size="10.00"> currSdoConf</text>
</g>
<!-- Node3 -->
<g id="node3" class="node">
<title>Node3</title>
<g id="a_node3"><a xlink:href="structLCEC__CONF__OUTBUF__T.html" target="_top" xlink:title=" ">
<polygon fill="white" stroke="black" points="227,-114.5 227,-133.5 359,-133.5 359,-114.5 227,-114.5"/>
<text text-anchor="middle" x="293" y="-121.5" font-family="Helvetica,sans-Serif" font-size="10.00">LCEC_CONF_OUTBUF_T</text>
</a>
</g>
</g>
<!-- Node3&#45;&gt;Node1 -->
<g id="edge2" class="edge">
<title>Node3&#45;&gt;Node1</title>
<path fill="none" stroke="#9a32cd" stroke-dasharray="5,2" d="M366.08,-112.87C401.66,-107.37 444.14,-100.81 478.22,-95.54"/>
<polygon fill="#9a32cd" stroke="#9a32cd" points="365.11,-109.47 355.76,-114.46 366.18,-116.39 365.11,-109.47"/>
<text text-anchor="middle" x="412.5" y="-112" font-family="Helvetica,sans-Serif" font-size="10.00"> outputBuf</text>
</g>
<!-- Node4 -->
<g id="node4" class="node">
<title>Node4</title>
<g id="a_node4"><a xlink:href="structLCEC__CONF__OUTBUF__ITEM.html" target="_top" xlink:title=" ">
<polygon fill="white" stroke="black" points="1.5,-114.5 1.5,-133.5 151.5,-133.5 151.5,-114.5 1.5,-114.5"/>
<text text-anchor="middle" x="76.5" y="-121.5" font-family="Helvetica,sans-Serif" font-size="10.00">LCEC_CONF_OUTBUF_ITEM</text>
</a>
</g>
</g>
<!-- Node4&#45;&gt;Node3 -->
<g id="edge3" class="edge">
<title>Node4&#45;&gt;Node3</title>
<path fill="none" stroke="#9a32cd" stroke-dasharray="5,2" d="M161.78,-124C183.4,-124 206.34,-124 226.83,-124"/>
<polygon fill="#9a32cd" stroke="#9a32cd" points="161.62,-120.5 151.62,-124 161.62,-127.5 161.62,-120.5"/>
<text text-anchor="middle" x="188" y="-138" font-family="Helvetica,sans-Serif" font-size="10.00"> head</text>
<text text-anchor="middle" x="188" y="-127" font-family="Helvetica,sans-Serif" font-size="10.00">tail</text>
</g>
<!-- Node4&#45;&gt;Node4 -->
<g id="edge4" class="edge">
<title>Node4&#45;&gt;Node4</title>
<path fill="none" stroke="#9a32cd" stroke-dasharray="5,2" d="M56.13,-143.4C57.49,-148.31 64.28,-152 76.5,-152 96.05,-152 101.7,-142.57 93.45,-133.76"/>
<polygon fill="#9a32cd" stroke="#9a32cd" points="59.51,-144.35 59.55,-133.76 52.91,-142.01 59.51,-144.35"/>
<text text-anchor="middle" x="76.5" y="-155" font-family="Helvetica,sans-Serif" font-size="10.00"> next</text>
</g>
<!-- Node5 -->
<g id="node5" class="node">
<title>Node5</title>
<g id="a_node5"><a xlink:href="structLCEC__CONF__SLAVE__T.html" target="_top" xlink:title=" ">
<polygon fill="white" stroke="black" points="232,-76.5 232,-95.5 354,-95.5 354,-76.5 232,-76.5"/>
<text text-anchor="middle" x="293" y="-83.5" font-family="Helvetica,sans-Serif" font-size="10.00">LCEC_CONF_SLAVE_T</text>
</a>
</g>
</g>
<!-- Node5&#45;&gt;Node1 -->
<g id="edge5" class="edge">
<title>Node5&#45;&gt;Node1</title>
<path fill="none" stroke="#9a32cd" stroke-dasharray="5,2" d="M364.29,-86C394.76,-86 430.54,-86 461.84,-86"/>
<polygon fill="#9a32cd" stroke="#9a32cd" points="364.18,-82.5 354.18,-86 364.18,-89.5 364.18,-82.5"/>
<text text-anchor="middle" x="412.5" y="-89" font-family="Helvetica,sans-Serif" font-size="10.00"> currSlave</text>
</g>
<!-- Node6 -->
<g id="node6" class="node">
<title>Node6</title>
<g id="a_node6"><a xlink:href="structLCEC__CONF__XML__INST.html" target="_top" xlink:title=" ">
<polygon fill="white" stroke="black" points="229,-38.5 229,-57.5 357,-57.5 357,-38.5 229,-38.5"/>
<text text-anchor="middle" x="293" y="-45.5" font-family="Helvetica,sans-Serif" font-size="10.00">LCEC_CONF_XML_INST</text>
</a>
</g>
</g>
<!-- Node6&#45;&gt;Node1 -->
<g id="edge6" class="edge">
<title>Node6&#45;&gt;Node1</title>
<path fill="none" stroke="#9a32cd" stroke-dasharray="5,2" d="M366.4,-59.06C391.03,-62.83 418.71,-67.09 444,-71 455.42,-72.77 467.6,-74.66 479.32,-76.49"/>
<polygon fill="#9a32cd" stroke="#9a32cd" points="366.82,-55.58 356.4,-57.53 365.76,-62.5 366.82,-55.58"/>
<text text-anchor="middle" x="412.5" y="-74" font-family="Helvetica,sans-Serif" font-size="10.00"> xml</text>
</g>
<!-- Node7 -->
<g id="node7" class="node">
<title>Node7</title>
<g id="a_node7"><a xlink:href="structLCEC__CONF__XML__HANLDER.html" target="_top" xlink:title=" ">
<polygon fill="white" stroke="black" points="0,-38.5 0,-57.5 153,-57.5 153,-38.5 0,-38.5"/>
<text text-anchor="middle" x="76.5" y="-45.5" font-family="Helvetica,sans-Serif" font-size="10.00">LCEC_CONF_XML_HANLDER</text>
</a>
</g>
</g>
<!-- Node7&#45;&gt;Node6 -->
<g id="edge7" class="edge">
<title>Node7&#45;&gt;Node6</title>
<path fill="none" stroke="#9a32cd" stroke-dasharray="5,2" d="M163.39,-48C185.22,-48 208.28,-48 228.76,-48"/>
<polygon fill="#9a32cd" stroke="#9a32cd" points="163.12,-44.5 153.12,-48 163.12,-51.5 163.12,-44.5"/>
<text text-anchor="middle" x="188" y="-51" font-family="Helvetica,sans-Serif" font-size="10.00"> states</text>
</g>
<!-- Node8 -->
<g id="node8" class="node">
<title>Node8</title>
<g id="a_node8"><a xlink:href="structLCEC__CONF__IDNCONF__T.html" target="_top" xlink:title=" ">
<polygon fill="white" stroke="black" points="224.5,-0.5 224.5,-19.5 361.5,-19.5 361.5,-0.5 224.5,-0.5"/>
<text text-anchor="middle" x="293" y="-7.5" font-family="Helvetica,sans-Serif" font-size="10.00">LCEC_CONF_IDNCONF_T</text>
</a>
</g>
</g>
<!-- Node8&#45;&gt;Node1 -->
<g id="edge8" class="edge">
<title>Node8&#45;&gt;Node1</title>
<path fill="none" stroke="#9a32cd" stroke-dasharray="5,2" d="M352.21,-21.71C380.25,-27.92 414.18,-36.28 444,-46 470.78,-54.73 500.57,-67.67 519.76,-76.45"/>
<polygon fill="#9a32cd" stroke="#9a32cd" points="352.68,-18.23 342.17,-19.52 351.19,-25.07 352.68,-18.23"/>
<text text-anchor="middle" x="412.5" y="-49" font-family="Helvetica,sans-Serif" font-size="10.00"> currIdnConf</text>
</g>
</g>
</svg>
