<?xml version="1.0" encoding="UTF-8" standalone="no"?>
<!DOCTYPE svg PUBLIC "-//W3C//DTD SVG 1.1//EN"
 "http://www.w3.org/Graphics/SVG/1.1/DTD/svg11.dtd">
<!-- Generated by graphviz version 2.43.0 (0)
 -->
<!-- Title: lcec_el6900_fsoe_t Pages: 1 -->
<!--zoomable 275 -->
<svg id="main" version="1.1" xmlns="http://www.w3.org/2000/svg" xmlns:xlink="http://www.w3.org/1999/xlink" xml:space="preserve" onload="init(evt)">
<style type="text/css"><![CDATA[
.edge:hover path { stroke: red; }
.edge:hover polygon { stroke: red; fill: red; }
]]></style>
<script type="text/javascript"><![CDATA[
var edges = document.getElementsByTagName('g');
if (edges && edges.length) {
  for (var i=0;i<edges.length;i++) {
    if (edges[i].id.substr(0,4)=='edge') {
      edges[i].setAttribute('class','edge');
    }
  }
}
]]></script>
        <defs>
                <circle id="rim" cx="0" cy="0" r="7"/>
                <circle id="rim2" cx="0" cy="0" r="3.5"/>
                <g id="zoomPlus">
                        <use xlink:href="#rim" fill="#404040">
                                <set attributeName="fill" to="#808080" begin="zoomplus.mouseover" end="zoomplus.mouseout"/>
                        </use>
                        <path d="M-4,0h8M0,-4v8" fill="none" stroke="white" stroke-width="1.5" pointer-events="none"/>
                </g>
                <g id="zoomMin">
                        <use xlink:href="#rim" fill="#404040">
                                <set attributeName="fill" to="#808080" begin="zoomminus.mouseover" end="zoomminus.mouseout"/>
                        </use>
                        <path d="M-4,0h8" fill="none" stroke="white" stroke-width="1.5" pointer-events="none"/>
                </g>
                <g id="dirArrow">
                        <path fill="none" stroke="white" stroke-width="1.5" d="M0,-3.0v7 M-2.5,-0.5L0,-3.0L2.5,-0.5"/>
                </g>
               <g id="resetDef">
                       <use xlink:href="#rim2" fill="#404040">
                               <set attributeName="fill" to="#808080" begin="reset.mouseover" end="reset.mouseout"/>
                       </use>
               </g>
        </defs>

<script type="text/javascript">
var viewWidth = 791;
var viewHeight = 275;
var sectionId = 'dynsection-0';
</script>
<script xlink:href="svgpan.js"/>
<svg id="graph" class="graph">
<g id="viewport">
<title>lcec_el6900_fsoe_t</title>
<polygon fill="white" stroke="transparent" points="-4,4 -4,-271 787,-271 787,4 -4,4"/>
<!-- Node1 -->
<g id="node1" class="node">
<title>Node1</title>
<g id="a_node1"><a xlink:title=" ">
<polygon fill="#bfbfbf" stroke="black" points="673,-78.5 673,-97.5 783,-97.5 783,-78.5 673,-78.5"/>
<text text-anchor="middle" x="728" y="-85.5" font-family="Helvetica,sans-Serif" font-size="10.00">lcec_el6900_fsoe_t</text>
</a>
</g>
</g>
<!-- Node2 -->
<g id="node2" class="node">
<title>Node2</title>
<g id="a_node2"><a xlink:href="structlcec__slave.html" target="_top" xlink:title=" ">
<polygon fill="white" stroke="black" points="482.5,-114.5 482.5,-133.5 550.5,-133.5 550.5,-114.5 482.5,-114.5"/>
<text text-anchor="middle" x="516.5" y="-121.5" font-family="Helvetica,sans-Serif" font-size="10.00">lcec_slave</text>
</a>
</g>
</g>
<!-- Node2&#45;&gt;Node1 -->
<g id="edge1" class="edge">
<title>Node2&#45;&gt;Node1</title>
<path fill="none" stroke="#9a32cd" stroke-dasharray="5,2" d="M560.73,-113.8C573.05,-111.07 586.52,-108.25 599,-106 623.18,-101.64 650.1,-97.71 672.98,-94.65"/>
<polygon fill="#9a32cd" stroke="#9a32cd" points="559.68,-110.45 550.69,-116.06 561.22,-117.28 559.68,-110.45"/>
<text text-anchor="middle" x="627" y="-109" font-family="Helvetica,sans-Serif" font-size="10.00"> fsoe_slave</text>
</g>
<!-- Node2&#45;&gt;Node2 -->
<g id="edge3" class="edge">
<title>Node2&#45;&gt;Node2</title>
<path fill="none" stroke="#9a32cd" stroke-dasharray="5,2" d="M496.13,-143.4C497.49,-148.31 504.28,-152 516.5,-152 536.05,-152 541.7,-142.57 533.45,-133.76"/>
<polygon fill="#9a32cd" stroke="#9a32cd" points="499.51,-144.35 499.55,-133.76 492.91,-142.01 499.51,-144.35"/>
<text text-anchor="middle" x="516.5" y="-221" font-family="Helvetica,sans-Serif" font-size="10.00"> next</text>
<text text-anchor="middle" x="516.5" y="-210" font-family="Helvetica,sans-Serif" font-size="10.00">prev</text>
<text text-anchor="middle" x="516.5" y="-199" font-family="Helvetica,sans-Serif" font-size="10.00">proc_cleanup</text>
<text text-anchor="middle" x="516.5" y="-188" font-family="Helvetica,sans-Serif" font-size="10.00">proc_init</text>
<text text-anchor="middle" x="516.5" y="-177" font-family="Helvetica,sans-Serif" font-size="10.00">proc_preinit</text>
<text text-anchor="middle" x="516.5" y="-166" font-family="Helvetica,sans-Serif" font-size="10.00">proc_read</text>
<text text-anchor="middle" x="516.5" y="-155" font-family="Helvetica,sans-Serif" font-size="10.00">proc_write</text>
</g>
<!-- Node9 -->
<g id="node9" class="node">
<title>Node9</title>
<g id="a_node9"><a xlink:href="structlcec__master.html" target="_top" xlink:title=" ">
<polygon fill="white" stroke="black" points="690,-163.5 690,-182.5 766,-182.5 766,-163.5 690,-163.5"/>
<text text-anchor="middle" x="728" y="-170.5" font-family="Helvetica,sans-Serif" font-size="10.00">lcec_master</text>
</a>
</g>
</g>
<!-- Node2&#45;&gt;Node9 -->
<g id="edge10" class="edge">
<title>Node2&#45;&gt;Node9</title>
<path fill="none" stroke="#9a32cd" stroke-dasharray="5,2" d="M552.36,-136.83C566.67,-141.75 583.49,-147.12 599,-151 629.19,-158.55 664.02,-164.35 689.73,-168.1"/>
<polygon fill="#9a32cd" stroke="#9a32cd" points="553.5,-133.52 542.91,-133.51 551.18,-140.12 553.5,-133.52"/>
<text text-anchor="middle" x="627" y="-176" font-family="Helvetica,sans-Serif" font-size="10.00"> first_slave</text>
<text text-anchor="middle" x="627" y="-165" font-family="Helvetica,sans-Serif" font-size="10.00">last_slave</text>
</g>
<!-- Node3 -->
<g id="node3" class="node">
<title>Node3</title>
<g id="a_node3"><a xlink:href="structlcec__slave__state.html" target="_top" xlink:title=" ">
<polygon fill="white" stroke="black" points="223.5,-228.5 223.5,-247.5 321.5,-247.5 321.5,-228.5 223.5,-228.5"/>
<text text-anchor="middle" x="272.5" y="-235.5" font-family="Helvetica,sans-Serif" font-size="10.00">lcec_slave_state</text>
</a>
</g>
</g>
<!-- Node3&#45;&gt;Node2 -->
<g id="edge2" class="edge">
<title>Node3&#45;&gt;Node2</title>
<path fill="none" stroke="#9a32cd" stroke-dasharray="5,2" d="M331.8,-231.6C363.45,-226.34 402.45,-216.89 434,-200 466.07,-182.83 494.99,-149.89 508.09,-133.6"/>
<polygon fill="#9a32cd" stroke="#9a32cd" points="331.14,-228.16 321.8,-233.16 332.22,-235.08 331.14,-228.16"/>
<text text-anchor="middle" x="396" y="-228" font-family="Helvetica,sans-Serif" font-size="10.00"> hal_state_data</text>
</g>
<!-- Node4 -->
<g id="node4" class="node">
<title>Node4</title>
<g id="a_node4"><a xlink:href="structlcec__slave__watchdog__t.html" target="_top" xlink:title=" ">
<polygon fill="white" stroke="black" points="208,-190.5 208,-209.5 337,-209.5 337,-190.5 208,-190.5"/>
<text text-anchor="middle" x="272.5" y="-197.5" font-family="Helvetica,sans-Serif" font-size="10.00">lcec_slave_watchdog_t</text>
</a>
</g>
</g>
<!-- Node4&#45;&gt;Node2 -->
<g id="edge4" class="edge">
<title>Node4&#45;&gt;Node2</title>
<path fill="none" stroke="#9a32cd" stroke-dasharray="5,2" d="M344.17,-188.57C372.54,-182.96 405.26,-175.18 434,-165 457.74,-156.59 483.43,-142.81 499.49,-133.58"/>
<polygon fill="#9a32cd" stroke="#9a32cd" points="343.49,-185.14 334.33,-190.46 344.81,-192.01 343.49,-185.14"/>
<text text-anchor="middle" x="396" y="-188" font-family="Helvetica,sans-Serif" font-size="10.00"> wd_conf</text>
</g>
<!-- Node5 -->
<g id="node5" class="node">
<title>Node5</title>
<g id="a_node5"><a xlink:href="structlcec__slave__idnconf__t.html" target="_top" xlink:title=" ">
<polygon fill="white" stroke="black" points="213.5,-152.5 213.5,-171.5 331.5,-171.5 331.5,-152.5 213.5,-152.5"/>
<text text-anchor="middle" x="272.5" y="-159.5" font-family="Helvetica,sans-Serif" font-size="10.00">lcec_slave_idnconf_t</text>
</a>
</g>
</g>
<!-- Node5&#45;&gt;Node2 -->
<g id="edge5" class="edge">
<title>Node5&#45;&gt;Node2</title>
<path fill="none" stroke="#9a32cd" stroke-dasharray="5,2" d="M341.81,-152.82C370.34,-148.83 403.82,-143.94 434,-139 449.9,-136.4 467.49,-133.2 482.24,-130.43"/>
<polygon fill="#9a32cd" stroke="#9a32cd" points="340.95,-149.41 331.53,-154.25 341.92,-156.34 340.95,-149.41"/>
<text text-anchor="middle" x="396" y="-153" font-family="Helvetica,sans-Serif" font-size="10.00"> idn_config</text>
</g>
<!-- Node6 -->
<g id="node6" class="node">
<title>Node6</title>
<g id="a_node6"><a xlink:href="structlcec__slave__modparam__t.html" target="_top" xlink:title=" ">
<polygon fill="white" stroke="black" points="205,-114.5 205,-133.5 340,-133.5 340,-114.5 205,-114.5"/>
<text text-anchor="middle" x="272.5" y="-121.5" font-family="Helvetica,sans-Serif" font-size="10.00">lcec_slave_modparam_t</text>
</a>
</g>
</g>
<!-- Node6&#45;&gt;Node2 -->
<g id="edge6" class="edge">
<title>Node6&#45;&gt;Node2</title>
<path fill="none" stroke="#9a32cd" stroke-dasharray="5,2" d="M350.47,-124C394.91,-124 448.52,-124 482.32,-124"/>
<polygon fill="#9a32cd" stroke="#9a32cd" points="350.27,-120.5 340.27,-124 350.27,-127.5 350.27,-120.5"/>
<text text-anchor="middle" x="396" y="-127" font-family="Helvetica,sans-Serif" font-size="10.00"> modparams</text>
</g>
<!-- Node7 -->
<g id="node7" class="node">
<title>Node7</title>
<g id="a_node7"><a xlink:href="unionLCEC__CONF__MODPARAM__VAL__T.html" target="_top" xlink:title=" ">
<polygon fill="white" stroke="black" points="0,-109 0,-139 138,-139 138,-109 0,-109"/>
<text text-anchor="start" x="8" y="-127" font-family="Helvetica,sans-Serif" font-size="10.00">LCEC_CONF_MODPARAM</text>
<text text-anchor="middle" x="69" y="-116" font-family="Helvetica,sans-Serif" font-size="10.00">_VAL_T</text>
</a>
</g>
</g>
<!-- Node7&#45;&gt;Node6 -->
<g id="edge7" class="edge">
<title>Node7&#45;&gt;Node6</title>
<path fill="none" stroke="#9a32cd" stroke-dasharray="5,2" d="M148.42,-124C167.02,-124 186.69,-124 204.72,-124"/>
<polygon fill="#9a32cd" stroke="#9a32cd" points="148.22,-120.5 138.22,-124 148.22,-127.5 148.22,-120.5"/>
<text text-anchor="middle" x="171.5" y="-127" font-family="Helvetica,sans-Serif" font-size="10.00"> value</text>
</g>
<!-- Node8 -->
<g id="node8" class="node">
<title>Node8</title>
<g id="a_node8"><a xlink:href="structlcec__slave__dc__t.html" target="_top" xlink:title=" ">
<polygon fill="white" stroke="black" points="226,-76.5 226,-95.5 319,-95.5 319,-76.5 226,-76.5"/>
<text text-anchor="middle" x="272.5" y="-83.5" font-family="Helvetica,sans-Serif" font-size="10.00">lcec_slave_dc_t</text>
</a>
</g>
</g>
<!-- Node8&#45;&gt;Node2 -->
<g id="edge8" class="edge">
<title>Node8&#45;&gt;Node2</title>
<path fill="none" stroke="#9a32cd" stroke-dasharray="5,2" d="M329.38,-93.45C360.27,-97.71 399.31,-103.32 434,-109 449.9,-111.6 467.49,-114.8 482.24,-117.57"/>
<polygon fill="#9a32cd" stroke="#9a32cd" points="329.62,-89.95 319.23,-92.06 328.67,-96.89 329.62,-89.95"/>
<text text-anchor="middle" x="396" y="-112" font-family="Helvetica,sans-Serif" font-size="10.00"> dc_conf</text>
</g>
<!-- Node9&#45;&gt;Node2 -->
<g id="edge9" class="edge">
<title>Node9&#45;&gt;Node2</title>
<path fill="none" stroke="#9a32cd" stroke-dasharray="5,2" d="M701.05,-158.7C687.68,-151.96 670.88,-144.44 655,-140 620.17,-130.25 578.77,-126.44 550.56,-124.95"/>
<polygon fill="#9a32cd" stroke="#9a32cd" points="699.63,-161.91 710.12,-163.42 702.86,-155.7 699.63,-161.91"/>
<text text-anchor="middle" x="627" y="-143" font-family="Helvetica,sans-Serif" font-size="10.00"> master</text>
</g>
<!-- Node9&#45;&gt;Node9 -->
<g id="edge12" class="edge">
<title>Node9&#45;&gt;Node9</title>
<path fill="none" stroke="#9a32cd" stroke-dasharray="5,2" d="M709.48,-192.4C710.72,-197.31 716.89,-201 728,-201 745.77,-201 750.91,-191.57 743.41,-182.76"/>
<polygon fill="#9a32cd" stroke="#9a32cd" points="712.85,-193.35 712.59,-182.76 706.19,-191.2 712.85,-193.35"/>
<text text-anchor="middle" x="728" y="-215" font-family="Helvetica,sans-Serif" font-size="10.00"> next</text>
<text text-anchor="middle" x="728" y="-204" font-family="Helvetica,sans-Serif" font-size="10.00">prev</text>
</g>
<!-- Node10 -->
<g id="node10" class="node">
<title>Node10</title>
<g id="a_node10"><a xlink:href="structlcec__master__data.html" target="_top" xlink:title=" ">
<polygon fill="white" stroke="black" points="465,-247.5 465,-266.5 568,-266.5 568,-247.5 465,-247.5"/>
<text text-anchor="middle" x="516.5" y="-254.5" font-family="Helvetica,sans-Serif" font-size="10.00">lcec_master_data</text>
</a>
</g>
</g>
<!-- Node10&#45;&gt;Node9 -->
<g id="edge11" class="edge">
<title>Node10&#45;&gt;Node9</title>
<path fill="none" stroke="#9a32cd" stroke-dasharray="5,2" d="M562.22,-244.41C568.57,-242.39 574.98,-240.23 581,-238 627.31,-220.84 679.81,-196.12 707.5,-182.65"/>
<polygon fill="#9a32cd" stroke="#9a32cd" points="560.9,-241.15 552.37,-247.44 562.96,-247.84 560.9,-241.15"/>
<text text-anchor="middle" x="627" y="-233" font-family="Helvetica,sans-Serif" font-size="10.00"> hal_data</text>
</g>
<!-- Node11 -->
<g id="node11" class="node">
<title>Node11</title>
<g id="a_node11"><a xlink:href="structlcec__slave__sdoconf__t.html" target="_top" xlink:title=" ">
<polygon fill="white" stroke="black" points="212.5,-38.5 212.5,-57.5 332.5,-57.5 332.5,-38.5 212.5,-38.5"/>
<text text-anchor="middle" x="272.5" y="-45.5" font-family="Helvetica,sans-Serif" font-size="10.00">lcec_slave_sdoconf_t</text>
</a>
</g>
</g>
<!-- Node11&#45;&gt;Node2 -->
<g id="edge13" class="edge">
<title>Node11&#45;&gt;Node2</title>
<path fill="none" stroke="#9a32cd" stroke-dasharray="5,2" d="M342.81,-58.5C371.51,-63.91 404.84,-71.61 434,-82 446.67,-86.51 478.13,-103.37 498.05,-114.31"/>
<polygon fill="#9a32cd" stroke="#9a32cd" points="343.33,-55.03 332.86,-56.67 342.07,-61.92 343.33,-55.03"/>
<text text-anchor="middle" x="396" y="-85" font-family="Helvetica,sans-Serif" font-size="10.00"> sdo_config</text>
</g>
<!-- Node12 -->
<g id="node12" class="node">
<title>Node12</title>
<g id="a_node12"><a xlink:href="structLCEC__CONF__FSOE__T.html" target="_top" xlink:title=" ">
<polygon fill="white" stroke="black" points="214.5,-0.5 214.5,-19.5 330.5,-19.5 330.5,-0.5 214.5,-0.5"/>
<text text-anchor="middle" x="272.5" y="-7.5" font-family="Helvetica,sans-Serif" font-size="10.00">LCEC_CONF_FSOE_T</text>
</a>
</g>
</g>
<!-- Node12&#45;&gt;Node2 -->
<g id="edge14" class="edge">
<title>Node12&#45;&gt;Node2</title>
<path fill="none" stroke="#9a32cd" stroke-dasharray="5,2" d="M340.79,-12.29C372.17,-16.52 408.19,-26.3 434,-48 449.54,-61.07 438.28,-75.03 452,-90 461.97,-100.88 476.24,-108.95 488.73,-114.49"/>
<polygon fill="#9a32cd" stroke="#9a32cd" points="341.12,-8.81 330.78,-11.1 340.3,-15.76 341.12,-8.81"/>
<text text-anchor="middle" x="396" y="-51" font-family="Helvetica,sans-Serif" font-size="10.00"> fsoeConf</text>
</g>
<!-- Node13 -->
<g id="node13" class="node">
<title>Node13</title>
<g id="a_node13"><a xlink:href="structlcec__el6900__fsoe__crc__t.html" target="_top" xlink:title=" ">
<polygon fill="white" stroke="black" points="452,-61.5 452,-80.5 581,-80.5 581,-61.5 452,-61.5"/>
<text text-anchor="middle" x="516.5" y="-68.5" font-family="Helvetica,sans-Serif" font-size="10.00">lcec_el6900_fsoe_crc_t</text>
</a>
</g>
</g>
<!-- Node13&#45;&gt;Node1 -->
<g id="edge15" class="edge">
<title>Node13&#45;&gt;Node1</title>
<path fill="none" stroke="#9a32cd" stroke-dasharray="5,2" d="M591.6,-68.67C612.18,-68.81 634.51,-69.67 655,-72 666.83,-73.34 679.57,-75.82 690.99,-78.43"/>
<polygon fill="#9a32cd" stroke="#9a32cd" points="591.34,-65.17 581.33,-68.67 591.33,-72.17 591.34,-65.17"/>
<text text-anchor="middle" x="627" y="-75" font-family="Helvetica,sans-Serif" font-size="10.00"> fsoe_crc</text>
</g>
</g>
</svg>
        <g id="navigator" transform="translate(0 0)" fill="#404254">
                <rect fill="#f2f5e9" fill-opacity="0.5" stroke="#606060" stroke-width=".5" x="0" y="0" width="60" height="60"/>
                <use id="zoomplus" xlink:href="#zoomPlus" x="17" y="9" onmousedown="handleZoom(evt,'in')"/>
                <use id="zoomminus" xlink:href="#zoomMin" x="42" y="9" onmousedown="handleZoom(evt,'out')"/>
                <use id="reset" xlink:href="#resetDef" x="30" y="36" onmousedown="handleReset()"/>
                <g id="arrowUp" xlink:href="#dirArrow" transform="translate(30 24)" onmousedown="handlePan(0,-1)">
                  <use xlink:href="#rim" fill="#404040">
                        <set attributeName="fill" to="#808080" begin="arrowUp.mouseover" end="arrowUp.mouseout"/>
                  </use>
                  <path fill="none" stroke="white" stroke-width="1.5" d="M0,-3.0v7 M-2.5,-0.5L0,-3.0L2.5,-0.5"/>
                </g>
                <g id="arrowRight" xlink:href="#dirArrow" transform="rotate(90) translate(36 -43)" onmousedown="handlePan(1,0)">
                  <use xlink:href="#rim" fill="#404040">
                        <set attributeName="fill" to="#808080" begin="arrowRight.mouseover" end="arrowRight.mouseout"/>
                  </use>
                  <path fill="none" stroke="white" stroke-width="1.5" d="M0,-3.0v7 M-2.5,-0.5L0,-3.0L2.5,-0.5"/>
                </g>
                <g id="arrowDown" xlink:href="#dirArrow" transform="rotate(180) translate(-30 -48)" onmousedown="handlePan(0,1)">
                  <use xlink:href="#rim" fill="#404040">
                        <set attributeName="fill" to="#808080" begin="arrowDown.mouseover" end="arrowDown.mouseout"/>
                  </use>
                  <path fill="none" stroke="white" stroke-width="1.5" d="M0,-3.0v7 M-2.5,-0.5L0,-3.0L2.5,-0.5"/>
                </g>
                <g id="arrowLeft" xlink:href="#dirArrow" transform="rotate(270) translate(-36 17)" onmousedown="handlePan(-1,0)">
                  <use xlink:href="#rim" fill="#404040">
                        <set attributeName="fill" to="#808080" begin="arrowLeft.mouseover" end="arrowLeft.mouseout"/>
                  </use>
                  <path fill="none" stroke="white" stroke-width="1.5" d="M0,-3.0v7 M-2.5,-0.5L0,-3.0L2.5,-0.5"/>
                </g>
        </g>
        <svg viewBox="0 0 15 15" width="100%" height="30px" preserveAspectRatio="xMaxYMin meet">
         <g id="arrow_out" transform="scale(0.3 0.3)">
          <a xlink:href="structlcec__el6900__fsoe__t__coll__graph_org.svg" target="_base">
           <rect id="button" ry="5" rx="5" y="6" x="6" height="38" width="38"
                fill="#f2f5e9" fill-opacity="0.5" stroke="#606060" stroke-width="1.0"/>
           <path id="arrow"
             d="M 11.500037,31.436501 C 11.940474,20.09759 22.043105,11.32322 32.158766,21.979434 L 37.068811,17.246167 C 37.068811,17.246167 37.088388,32 37.088388,32 L 22.160133,31.978069 C 22.160133,31.978069 26.997745,27.140456 26.997745,27.140456 C 18.528582,18.264221 13.291696,25.230495 11.500037,31.436501 z"
             style="fill:#404040;"/>
          </a>
         </g>
        </svg>
</svg>
