<?xml version="1.0" encoding="UTF-8" standalone="no"?>
<!DOCTYPE svg PUBLIC "-//W3C//DTD SVG 1.1//EN"
 "http://www.w3.org/Graphics/SVG/1.1/DTD/svg11.dtd">
<!-- Generated by graphviz version 2.43.0 (0)
 -->
<!-- Title: lcec_stmds5k_data_t Pages: 1 -->
<svg width="417pt" height="117pt"
 viewBox="0.00 0.00 416.50 117.00" xmlns="http://www.w3.org/2000/svg" xmlns:xlink="http://www.w3.org/1999/xlink">
<g id="graph0" class="graph" transform="scale(1 1) rotate(0) translate(4 113)">
<title>lcec_stmds5k_data_t</title>
<polygon fill="white" stroke="transparent" points="-4,4 -4,-113 412.5,-113 412.5,4 -4,4"/>
<!-- Node1 -->
<g id="node1" class="node">
<title>Node1</title>
<g id="a_node1"><a xlink:title=" ">
<polygon fill="#bfbfbf" stroke="black" points="146,-0.5 146,-19.5 265,-19.5 265,-0.5 146,-0.5"/>
<text text-anchor="middle" x="205.5" y="-7.5" font-family="Helvetica,sans-Serif" font-size="10.00">lcec_stmds5k_data_t</text>
</a>
</g>
</g>
<!-- Node2 -->
<g id="node2" class="node">
<title>Node2</title>
<g id="a_node2"><a xlink:href="structlcec__class__enc__data__t.html" target="_top" xlink:title=" ">
<polygon fill="white" stroke="black" points="0,-84 0,-103 125,-103 125,-84 0,-84"/>
<text text-anchor="middle" x="62.5" y="-91" font-family="Helvetica,sans-Serif" font-size="10.00">lcec_class_enc_data_t</text>
</a>
</g>
</g>
<!-- Node2&#45;&gt;Node1 -->
<g id="edge1" class="edge">
<title>Node2&#45;&gt;Node1</title>
<path fill="none" stroke="#9a32cd" stroke-dasharray="5,2" d="M86.37,-78.9C115.92,-62.06 165.37,-33.87 190.24,-19.7"/>
<polygon fill="#9a32cd" stroke="#9a32cd" points="84.49,-75.94 77.53,-83.93 87.95,-82.02 84.49,-75.94"/>
<text text-anchor="middle" x="172.5" y="-52" font-family="Helvetica,sans-Serif" font-size="10.00"> enc</text>
<text text-anchor="middle" x="172.5" y="-41" font-family="Helvetica,sans-Serif" font-size="10.00">extenc</text>
</g>
<!-- Node3 -->
<g id="node3" class="node">
<title>Node3</title>
<g id="a_node3"><a xlink:href="structlcec__stmds5k__syncs__t.html" target="_top" xlink:title=" ">
<polygon fill="white" stroke="black" points="143,-84 143,-103 268,-103 268,-84 143,-84"/>
<text text-anchor="middle" x="205.5" y="-91" font-family="Helvetica,sans-Serif" font-size="10.00">lcec_stmds5k_syncs_t</text>
</a>
</g>
</g>
<!-- Node3&#45;&gt;Node1 -->
<g id="edge2" class="edge">
<title>Node3&#45;&gt;Node1</title>
<path fill="none" stroke="#9a32cd" stroke-dasharray="5,2" d="M205.5,-73.38C205.5,-56.4 205.5,-32.37 205.5,-19.66"/>
<polygon fill="#9a32cd" stroke="#9a32cd" points="202,-73.78 205.5,-83.78 209,-73.78 202,-73.78"/>
<text text-anchor="middle" x="221" y="-46.5" font-family="Helvetica,sans-Serif" font-size="10.00"> syncs</text>
</g>
<!-- Node4 -->
<g id="node4" class="node">
<title>Node4</title>
<g id="a_node4"><a xlink:href="structlcec__stmds5k__extenc__conf__t.html" target="_top" xlink:title=" ">
<polygon fill="white" stroke="black" points="286.5,-78.5 286.5,-108.5 408.5,-108.5 408.5,-78.5 286.5,-78.5"/>
<text text-anchor="start" x="294.5" y="-96.5" font-family="Helvetica,sans-Serif" font-size="10.00">lcec_stmds5k_extenc</text>
<text text-anchor="middle" x="347.5" y="-85.5" font-family="Helvetica,sans-Serif" font-size="10.00">_conf_t</text>
</a>
</g>
</g>
<!-- Node4&#45;&gt;Node1 -->
<g id="edge3" class="edge">
<title>Node4&#45;&gt;Node1</title>
<path fill="none" stroke="#9a32cd" stroke-dasharray="5,2" d="M314.32,-73.46C284.67,-56.44 242.59,-32.29 220.45,-19.58"/>
<polygon fill="#9a32cd" stroke="#9a32cd" points="312.67,-76.55 323.09,-78.49 316.16,-70.48 312.67,-76.55"/>
<text text-anchor="middle" x="320" y="-46.5" font-family="Helvetica,sans-Serif" font-size="10.00"> extenc_conf</text>
</g>
</g>
</svg>
