<?xml version="1.0" encoding="UTF-8" standalone="no"?>
<!DOCTYPE svg PUBLIC "-//W3C//DTD SVG 1.1//EN"
 "http://www.w3.org/Graphics/SVG/1.1/DTD/svg11.dtd">
<!-- Generated by graphviz version 2.43.0 (0)
 -->
<!-- Title: lcec_typelinkedlist Pages: 1 -->
<svg width="944pt" height="275pt"
 viewBox="0.00 0.00 944.00 275.00" xmlns="http://www.w3.org/2000/svg" xmlns:xlink="http://www.w3.org/1999/xlink">
<g id="graph0" class="graph" transform="scale(1 1) rotate(0) translate(4 271)">
<title>lcec_typelinkedlist</title>
<polygon fill="white" stroke="transparent" points="-4,4 -4,-271 940,-271 940,4 -4,4"/>
<!-- Node1 -->
<g id="node1" class="node">
<title>Node1</title>
<g id="a_node1"><a xlink:title=" ">
<polygon fill="#bfbfbf" stroke="black" points="829,-73.5 829,-92.5 936,-92.5 936,-73.5 829,-73.5"/>
<text text-anchor="middle" x="882.5" y="-80.5" font-family="Helvetica,sans-Serif" font-size="10.00">lcec_typelinkedlist</text>
</a>
</g>
</g>
<!-- Node1&#45;&gt;Node1 -->
<g id="edge17" class="edge">
<title>Node1&#45;&gt;Node1</title>
<path fill="none" stroke="#9a32cd" stroke-dasharray="5,2" d="M867.03,-102.77C868.25,-107.5 873.4,-111 882.5,-111 897.43,-111 901.75,-101.57 895.45,-92.76"/>
<polygon fill="#9a32cd" stroke="#9a32cd" points="870.5,-103.31 869.55,-92.76 863.72,-101.6 870.5,-103.31"/>
<text text-anchor="middle" x="882.5" y="-114" font-family="Helvetica,sans-Serif" font-size="10.00"> next</text>
</g>
<!-- Node2 -->
<g id="node2" class="node">
<title>Node2</title>
<g id="a_node2"><a xlink:href="structlcec__typelist__t.html" target="_top" xlink:title=" ">
<polygon fill="white" stroke="black" points="681,-73.5 681,-92.5 768,-92.5 768,-73.5 681,-73.5"/>
<text text-anchor="middle" x="724.5" y="-80.5" font-family="Helvetica,sans-Serif" font-size="10.00">lcec_typelist_t</text>
</a>
</g>
</g>
<!-- Node2&#45;&gt;Node1 -->
<g id="edge1" class="edge">
<title>Node2&#45;&gt;Node1</title>
<path fill="none" stroke="#9a32cd" stroke-dasharray="5,2" d="M778.54,-83C794.8,-83 812.68,-83 828.9,-83"/>
<polygon fill="#9a32cd" stroke="#9a32cd" points="778.13,-79.5 768.13,-83 778.13,-86.5 778.13,-79.5"/>
<text text-anchor="middle" x="798.5" y="-86" font-family="Helvetica,sans-Serif" font-size="10.00"> type</text>
</g>
<!-- Node3 -->
<g id="node3" class="node">
<title>Node3</title>
<g id="a_node3"><a xlink:href="structlcec__slave.html" target="_top" xlink:title=" ">
<polygon fill="white" stroke="black" points="483.5,-114.5 483.5,-133.5 551.5,-133.5 551.5,-114.5 483.5,-114.5"/>
<text text-anchor="middle" x="517.5" y="-121.5" font-family="Helvetica,sans-Serif" font-size="10.00">lcec_slave</text>
</a>
</g>
</g>
<!-- Node3&#45;&gt;Node2 -->
<g id="edge2" class="edge">
<title>Node3&#45;&gt;Node2</title>
<path fill="none" stroke="#9a32cd" stroke-dasharray="5,2" d="M559.02,-111.61C572.31,-107.84 587.21,-103.92 601,-101 627.29,-95.43 657.11,-91.01 680.75,-87.94"/>
<polygon fill="#9a32cd" stroke="#9a32cd" points="557.86,-108.3 549.22,-114.44 559.8,-115.03 557.86,-108.3"/>
<text text-anchor="middle" x="632" y="-115" font-family="Helvetica,sans-Serif" font-size="10.00"> proc_init</text>
<text text-anchor="middle" x="632" y="-104" font-family="Helvetica,sans-Serif" font-size="10.00">proc_preinit</text>
</g>
<!-- Node3&#45;&gt;Node3 -->
<g id="edge4" class="edge">
<title>Node3&#45;&gt;Node3</title>
<path fill="none" stroke="#9a32cd" stroke-dasharray="5,2" d="M496.39,-143.4C497.8,-148.31 504.84,-152 517.5,-152 537.76,-152 543.62,-142.57 535.07,-133.76"/>
<polygon fill="#9a32cd" stroke="#9a32cd" points="499.77,-144.35 499.93,-133.76 493.2,-141.94 499.77,-144.35"/>
<text text-anchor="middle" x="517.5" y="-221" font-family="Helvetica,sans-Serif" font-size="10.00"> next</text>
<text text-anchor="middle" x="517.5" y="-210" font-family="Helvetica,sans-Serif" font-size="10.00">prev</text>
<text text-anchor="middle" x="517.5" y="-199" font-family="Helvetica,sans-Serif" font-size="10.00">proc_cleanup</text>
<text text-anchor="middle" x="517.5" y="-188" font-family="Helvetica,sans-Serif" font-size="10.00">proc_init</text>
<text text-anchor="middle" x="517.5" y="-177" font-family="Helvetica,sans-Serif" font-size="10.00">proc_preinit</text>
<text text-anchor="middle" x="517.5" y="-166" font-family="Helvetica,sans-Serif" font-size="10.00">proc_read</text>
<text text-anchor="middle" x="517.5" y="-155" font-family="Helvetica,sans-Serif" font-size="10.00">proc_write</text>
</g>
<!-- Node10 -->
<g id="node10" class="node">
<title>Node10</title>
<g id="a_node10"><a xlink:href="structlcec__master.html" target="_top" xlink:title=" ">
<polygon fill="white" stroke="black" points="686.5,-169.5 686.5,-188.5 762.5,-188.5 762.5,-169.5 686.5,-169.5"/>
<text text-anchor="middle" x="724.5" y="-176.5" font-family="Helvetica,sans-Serif" font-size="10.00">lcec_master</text>
</a>
</g>
</g>
<!-- Node3&#45;&gt;Node10 -->
<g id="edge11" class="edge">
<title>Node3&#45;&gt;Node10</title>
<path fill="none" stroke="#9a32cd" stroke-dasharray="5,2" d="M548.64,-137.77C564.04,-144.36 583.24,-151.91 601,-157 629.15,-165.07 661.82,-170.76 686.33,-174.33"/>
<polygon fill="#9a32cd" stroke="#9a32cd" points="549.68,-134.4 539.11,-133.61 546.88,-140.82 549.68,-134.4"/>
<text text-anchor="middle" x="632" y="-184" font-family="Helvetica,sans-Serif" font-size="10.00"> first_slave</text>
<text text-anchor="middle" x="632" y="-173" font-family="Helvetica,sans-Serif" font-size="10.00">last_slave</text>
</g>
<!-- Node4 -->
<g id="node4" class="node">
<title>Node4</title>
<g id="a_node4"><a xlink:href="structlcec__slave__state.html" target="_top" xlink:title=" ">
<polygon fill="white" stroke="black" points="223.5,-228.5 223.5,-247.5 321.5,-247.5 321.5,-228.5 223.5,-228.5"/>
<text text-anchor="middle" x="272.5" y="-235.5" font-family="Helvetica,sans-Serif" font-size="10.00">lcec_slave_state</text>
</a>
</g>
</g>
<!-- Node4&#45;&gt;Node3 -->
<g id="edge3" class="edge">
<title>Node4&#45;&gt;Node3</title>
<path fill="none" stroke="#9a32cd" stroke-dasharray="5,2" d="M331.76,-231.52C363.4,-226.25 402.4,-216.79 434,-200 466.33,-182.82 495.67,-149.89 508.97,-133.6"/>
<polygon fill="#9a32cd" stroke="#9a32cd" points="331.1,-228.08 321.76,-233.09 332.19,-235 331.1,-228.08"/>
<text text-anchor="middle" x="396" y="-228" font-family="Helvetica,sans-Serif" font-size="10.00"> hal_state_data</text>
</g>
<!-- Node5 -->
<g id="node5" class="node">
<title>Node5</title>
<g id="a_node5"><a xlink:href="structlcec__slave__watchdog__t.html" target="_top" xlink:title=" ">
<polygon fill="white" stroke="black" points="208,-190.5 208,-209.5 337,-209.5 337,-190.5 208,-190.5"/>
<text text-anchor="middle" x="272.5" y="-197.5" font-family="Helvetica,sans-Serif" font-size="10.00">lcec_slave_watchdog_t</text>
</a>
</g>
</g>
<!-- Node5&#45;&gt;Node3 -->
<g id="edge5" class="edge">
<title>Node5&#45;&gt;Node3</title>
<path fill="none" stroke="#9a32cd" stroke-dasharray="5,2" d="M343.79,-188.57C372.24,-182.94 405.12,-175.15 434,-165 457.99,-156.57 484.01,-142.79 500.28,-133.57"/>
<polygon fill="#9a32cd" stroke="#9a32cd" points="343.08,-185.14 333.93,-190.47 344.41,-192.01 343.08,-185.14"/>
<text text-anchor="middle" x="396" y="-188" font-family="Helvetica,sans-Serif" font-size="10.00"> wd_conf</text>
</g>
<!-- Node6 -->
<g id="node6" class="node">
<title>Node6</title>
<g id="a_node6"><a xlink:href="structlcec__slave__idnconf__t.html" target="_top" xlink:title=" ">
<polygon fill="white" stroke="black" points="213.5,-152.5 213.5,-171.5 331.5,-171.5 331.5,-152.5 213.5,-152.5"/>
<text text-anchor="middle" x="272.5" y="-159.5" font-family="Helvetica,sans-Serif" font-size="10.00">lcec_slave_idnconf_t</text>
</a>
</g>
</g>
<!-- Node6&#45;&gt;Node3 -->
<g id="edge6" class="edge">
<title>Node6&#45;&gt;Node3</title>
<path fill="none" stroke="#9a32cd" stroke-dasharray="5,2" d="M341.8,-152.79C370.33,-148.79 403.81,-143.91 434,-139 450.24,-136.36 468.21,-133.13 483.23,-130.34"/>
<polygon fill="#9a32cd" stroke="#9a32cd" points="340.95,-149.37 331.53,-154.22 341.91,-156.31 340.95,-149.37"/>
<text text-anchor="middle" x="396" y="-153" font-family="Helvetica,sans-Serif" font-size="10.00"> idn_config</text>
</g>
<!-- Node7 -->
<g id="node7" class="node">
<title>Node7</title>
<g id="a_node7"><a xlink:href="structlcec__slave__modparam__t.html" target="_top" xlink:title=" ">
<polygon fill="white" stroke="black" points="205,-114.5 205,-133.5 340,-133.5 340,-114.5 205,-114.5"/>
<text text-anchor="middle" x="272.5" y="-121.5" font-family="Helvetica,sans-Serif" font-size="10.00">lcec_slave_modparam_t</text>
</a>
</g>
</g>
<!-- Node7&#45;&gt;Node3 -->
<g id="edge7" class="edge">
<title>Node7&#45;&gt;Node3</title>
<path fill="none" stroke="#9a32cd" stroke-dasharray="5,2" d="M350.5,-124C395.29,-124 449.43,-124 483.42,-124"/>
<polygon fill="#9a32cd" stroke="#9a32cd" points="350.22,-120.5 340.22,-124 350.22,-127.5 350.22,-120.5"/>
<text text-anchor="middle" x="396" y="-127" font-family="Helvetica,sans-Serif" font-size="10.00"> modparams</text>
</g>
<!-- Node8 -->
<g id="node8" class="node">
<title>Node8</title>
<g id="a_node8"><a xlink:href="unionLCEC__CONF__MODPARAM__VAL__T.html" target="_top" xlink:title=" ">
<polygon fill="white" stroke="black" points="0,-109 0,-139 138,-139 138,-109 0,-109"/>
<text text-anchor="start" x="8" y="-127" font-family="Helvetica,sans-Serif" font-size="10.00">LCEC_CONF_MODPARAM</text>
<text text-anchor="middle" x="69" y="-116" font-family="Helvetica,sans-Serif" font-size="10.00">_VAL_T</text>
</a>
</g>
</g>
<!-- Node8&#45;&gt;Node7 -->
<g id="edge8" class="edge">
<title>Node8&#45;&gt;Node7</title>
<path fill="none" stroke="#9a32cd" stroke-dasharray="5,2" d="M148.42,-124C167.02,-124 186.69,-124 204.72,-124"/>
<polygon fill="#9a32cd" stroke="#9a32cd" points="148.22,-120.5 138.22,-124 148.22,-127.5 148.22,-120.5"/>
<text text-anchor="middle" x="171.5" y="-127" font-family="Helvetica,sans-Serif" font-size="10.00"> value</text>
</g>
<!-- Node9 -->
<g id="node9" class="node">
<title>Node9</title>
<g id="a_node9"><a xlink:href="structlcec__slave__dc__t.html" target="_top" xlink:title=" ">
<polygon fill="white" stroke="black" points="226,-76.5 226,-95.5 319,-95.5 319,-76.5 226,-76.5"/>
<text text-anchor="middle" x="272.5" y="-83.5" font-family="Helvetica,sans-Serif" font-size="10.00">lcec_slave_dc_t</text>
</a>
</g>
</g>
<!-- Node9&#45;&gt;Node3 -->
<g id="edge9" class="edge">
<title>Node9&#45;&gt;Node3</title>
<path fill="none" stroke="#9a32cd" stroke-dasharray="5,2" d="M329.37,-93.48C360.26,-97.75 399.3,-103.36 434,-109 450.24,-111.64 468.21,-114.87 483.23,-117.66"/>
<polygon fill="#9a32cd" stroke="#9a32cd" points="329.61,-89.98 319.23,-92.09 328.66,-96.92 329.61,-89.98"/>
<text text-anchor="middle" x="396" y="-112" font-family="Helvetica,sans-Serif" font-size="10.00"> dc_conf</text>
</g>
<!-- Node10&#45;&gt;Node3 -->
<g id="edge10" class="edge">
<title>Node10&#45;&gt;Node3</title>
<path fill="none" stroke="#9a32cd" stroke-dasharray="5,2" d="M700.7,-164.1C689.72,-157.58 676.11,-150.42 663,-146 626.09,-133.55 581.49,-128.12 551.69,-125.77"/>
<polygon fill="#9a32cd" stroke="#9a32cd" points="698.89,-167.1 709.24,-169.36 702.56,-161.13 698.89,-167.1"/>
<text text-anchor="middle" x="632" y="-149" font-family="Helvetica,sans-Serif" font-size="10.00"> master</text>
</g>
<!-- Node10&#45;&gt;Node10 -->
<g id="edge13" class="edge">
<title>Node10&#45;&gt;Node10</title>
<path fill="none" stroke="#9a32cd" stroke-dasharray="5,2" d="M710.87,-198.77C711.94,-203.5 716.49,-207 724.5,-207 737.65,-207 741.45,-197.57 735.91,-188.76"/>
<polygon fill="#9a32cd" stroke="#9a32cd" points="714.34,-199.28 713.09,-188.76 707.51,-197.76 714.34,-199.28"/>
<text text-anchor="middle" x="724.5" y="-221" font-family="Helvetica,sans-Serif" font-size="10.00"> next</text>
<text text-anchor="middle" x="724.5" y="-210" font-family="Helvetica,sans-Serif" font-size="10.00">prev</text>
</g>
<!-- Node11 -->
<g id="node11" class="node">
<title>Node11</title>
<g id="a_node11"><a xlink:href="structlcec__master__data.html" target="_top" xlink:title=" ">
<polygon fill="white" stroke="black" points="466,-247.5 466,-266.5 569,-266.5 569,-247.5 466,-247.5"/>
<text text-anchor="middle" x="517.5" y="-254.5" font-family="Helvetica,sans-Serif" font-size="10.00">lcec_master_data</text>
</a>
</g>
</g>
<!-- Node11&#45;&gt;Node10 -->
<g id="edge12" class="edge">
<title>Node11&#45;&gt;Node10</title>
<path fill="none" stroke="#9a32cd" stroke-dasharray="5,2" d="M563.2,-244.54C569.87,-242.47 576.65,-240.26 583,-238 626.37,-222.56 675.69,-200.85 702.84,-188.53"/>
<polygon fill="#9a32cd" stroke="#9a32cd" points="562.11,-241.21 553.54,-247.45 564.13,-247.91 562.11,-241.21"/>
<text text-anchor="middle" x="632" y="-233" font-family="Helvetica,sans-Serif" font-size="10.00"> hal_data</text>
</g>
<!-- Node12 -->
<g id="node12" class="node">
<title>Node12</title>
<g id="a_node12"><a xlink:href="structlcec__slave__sdoconf__t.html" target="_top" xlink:title=" ">
<polygon fill="white" stroke="black" points="212.5,-38.5 212.5,-57.5 332.5,-57.5 332.5,-38.5 212.5,-38.5"/>
<text text-anchor="middle" x="272.5" y="-45.5" font-family="Helvetica,sans-Serif" font-size="10.00">lcec_slave_sdoconf_t</text>
</a>
</g>
</g>
<!-- Node12&#45;&gt;Node3 -->
<g id="edge14" class="edge">
<title>Node12&#45;&gt;Node3</title>
<path fill="none" stroke="#9a32cd" stroke-dasharray="5,2" d="M342.78,-58.57C371.48,-64 404.81,-71.68 434,-82 458.24,-90.57 484.41,-104.83 500.62,-114.33"/>
<polygon fill="#9a32cd" stroke="#9a32cd" points="343.31,-55.11 332.84,-56.74 342.04,-61.99 343.31,-55.11"/>
<text text-anchor="middle" x="396" y="-85" font-family="Helvetica,sans-Serif" font-size="10.00"> sdo_config</text>
</g>
<!-- Node13 -->
<g id="node13" class="node">
<title>Node13</title>
<g id="a_node13"><a xlink:href="structLCEC__CONF__FSOE__T.html" target="_top" xlink:title=" ">
<polygon fill="white" stroke="black" points="214.5,-0.5 214.5,-19.5 330.5,-19.5 330.5,-0.5 214.5,-0.5"/>
<text text-anchor="middle" x="272.5" y="-7.5" font-family="Helvetica,sans-Serif" font-size="10.00">LCEC_CONF_FSOE_T</text>
</a>
</g>
</g>
<!-- Node13&#45;&gt;Node3 -->
<g id="edge15" class="edge">
<title>Node13&#45;&gt;Node3</title>
<path fill="none" stroke="#9a32cd" stroke-dasharray="5,2" d="M340.7,-12.89C371.89,-17.27 407.78,-27 434,-48 448.27,-59.43 439.67,-71.49 452,-85 463.65,-97.76 480.43,-107.73 493.96,-114.39"/>
<polygon fill="#9a32cd" stroke="#9a32cd" points="341.11,-9.41 330.75,-11.64 340.24,-16.36 341.11,-9.41"/>
<text text-anchor="middle" x="396" y="-51" font-family="Helvetica,sans-Serif" font-size="10.00"> fsoeConf</text>
</g>
<!-- Node14 -->
<g id="node14" class="node">
<title>Node14</title>
<g id="a_node14"><a xlink:href="structlcec__modparam__desc__t.html" target="_top" xlink:title=" ">
<polygon fill="white" stroke="black" points="452,-56.5 452,-75.5 583,-75.5 583,-56.5 452,-56.5"/>
<text text-anchor="middle" x="517.5" y="-63.5" font-family="Helvetica,sans-Serif" font-size="10.00">lcec_modparam_desc_t</text>
</a>
</g>
</g>
<!-- Node14&#45;&gt;Node2 -->
<g id="edge16" class="edge">
<title>Node14&#45;&gt;Node2</title>
<path fill="none" stroke="#9a32cd" stroke-dasharray="5,2" d="M593.29,-62.95C615.78,-62.99 640.47,-63.99 663,-67 673.02,-68.34 683.74,-70.81 693.33,-73.43"/>
<polygon fill="#9a32cd" stroke="#9a32cd" points="593.11,-59.45 583.12,-62.99 593.14,-66.45 593.11,-59.45"/>
<text text-anchor="middle" x="632" y="-70" font-family="Helvetica,sans-Serif" font-size="10.00"> modparams</text>
</g>
</g>
</svg>
