<?xml version="1.0" encoding="UTF-8" standalone="no"?>
<!DOCTYPE svg PUBLIC "-//W3C//DTD SVG 1.1//EN"
 "http://www.w3.org/Graphics/SVG/1.1/DTD/svg11.dtd">
<!-- Generated by graphviz version 2.43.0 (0)
 -->
<!-- Title: lcec_em7004_data_t Pages: 1 -->
<svg width="520pt" height="95pt"
 viewBox="0.00 0.00 520.00 95.00" xmlns="http://www.w3.org/2000/svg" xmlns:xlink="http://www.w3.org/1999/xlink">
<g id="graph0" class="graph" transform="scale(1 1) rotate(0) translate(4 91)">
<title>lcec_em7004_data_t</title>
<polygon fill="white" stroke="transparent" points="-4,4 -4,-91 516,-91 516,4 -4,4"/>
<!-- Node1 -->
<g id="node1" class="node">
<title>Node1</title>
<g id="a_node1"><a xlink:title=" ">
<polygon fill="#bfbfbf" stroke="black" points="198,-0.5 198,-19.5 315,-19.5 315,-0.5 198,-0.5"/>
<text text-anchor="middle" x="256.5" y="-7.5" font-family="Helvetica,sans-Serif" font-size="10.00">lcec_em7004_data_t</text>
</a>
</g>
</g>
<!-- Node2 -->
<g id="node2" class="node">
<title>Node2</title>
<g id="a_node2"><a xlink:href="structlcec__em7004__aout__t.html" target="_top" xlink:title=" ">
<polygon fill="white" stroke="black" points="0,-67.5 0,-86.5 117,-86.5 117,-67.5 0,-67.5"/>
<text text-anchor="middle" x="58.5" y="-74.5" font-family="Helvetica,sans-Serif" font-size="10.00">lcec_em7004_aout_t</text>
</a>
</g>
</g>
<!-- Node2&#45;&gt;Node1 -->
<g id="edge1" class="edge">
<title>Node2&#45;&gt;Node1</title>
<path fill="none" stroke="#9a32cd" stroke-dasharray="5,2" d="M94.5,-64.18C133.74,-51.3 195.59,-31 230.41,-19.56"/>
<polygon fill="#9a32cd" stroke="#9a32cd" points="93.2,-60.92 84.79,-67.37 95.39,-67.57 93.2,-60.92"/>
<text text-anchor="middle" x="185" y="-41" font-family="Helvetica,sans-Serif" font-size="10.00"> aouts</text>
</g>
<!-- Node3 -->
<g id="node3" class="node">
<title>Node3</title>
<g id="a_node3"><a xlink:href="structlcec__em7004__enc__t.html" target="_top" xlink:title=" ">
<polygon fill="white" stroke="black" points="135,-67.5 135,-86.5 248,-86.5 248,-67.5 135,-67.5"/>
<text text-anchor="middle" x="191.5" y="-74.5" font-family="Helvetica,sans-Serif" font-size="10.00">lcec_em7004_enc_t</text>
</a>
</g>
</g>
<!-- Node3&#45;&gt;Node1 -->
<g id="edge2" class="edge">
<title>Node3&#45;&gt;Node1</title>
<path fill="none" stroke="#9a32cd" stroke-dasharray="5,2" d="M207.5,-60C220.25,-47.25 237.61,-29.89 247.87,-19.63"/>
<polygon fill="#9a32cd" stroke="#9a32cd" points="204.86,-57.69 200.27,-67.23 209.81,-62.64 204.86,-57.69"/>
<text text-anchor="middle" x="241.5" y="-41" font-family="Helvetica,sans-Serif" font-size="10.00"> encs</text>
</g>
<!-- Node4 -->
<g id="node4" class="node">
<title>Node4</title>
<g id="a_node4"><a xlink:href="structlcec__em7004__din__t.html" target="_top" xlink:title=" ">
<polygon fill="white" stroke="black" points="266.5,-67.5 266.5,-86.5 376.5,-86.5 376.5,-67.5 266.5,-67.5"/>
<text text-anchor="middle" x="321.5" y="-74.5" font-family="Helvetica,sans-Serif" font-size="10.00">lcec_em7004_din_t</text>
</a>
</g>
</g>
<!-- Node4&#45;&gt;Node1 -->
<g id="edge3" class="edge">
<title>Node4&#45;&gt;Node1</title>
<path fill="none" stroke="#9a32cd" stroke-dasharray="5,2" d="M305.5,-60C292.75,-47.25 275.39,-29.89 265.13,-19.63"/>
<polygon fill="#9a32cd" stroke="#9a32cd" points="303.19,-62.64 312.73,-67.23 308.14,-57.69 303.19,-62.64"/>
<text text-anchor="middle" x="305.5" y="-41" font-family="Helvetica,sans-Serif" font-size="10.00"> dins</text>
</g>
<!-- Node5 -->
<g id="node5" class="node">
<title>Node5</title>
<g id="a_node5"><a xlink:href="structlcec__em7004__dout__t.html" target="_top" xlink:title=" ">
<polygon fill="white" stroke="black" points="395,-67.5 395,-86.5 512,-86.5 512,-67.5 395,-67.5"/>
<text text-anchor="middle" x="453.5" y="-74.5" font-family="Helvetica,sans-Serif" font-size="10.00">lcec_em7004_dout_t</text>
</a>
</g>
</g>
<!-- Node5&#45;&gt;Node1 -->
<g id="edge4" class="edge">
<title>Node5&#45;&gt;Node1</title>
<path fill="none" stroke="#9a32cd" stroke-dasharray="5,2" d="M417.44,-64.1C378.38,-51.21 317.03,-30.97 282.45,-19.56"/>
<polygon fill="#9a32cd" stroke="#9a32cd" points="416.75,-67.56 427.34,-67.37 418.94,-60.91 416.75,-67.56"/>
<text text-anchor="middle" x="382" y="-41" font-family="Helvetica,sans-Serif" font-size="10.00"> douts</text>
</g>
</g>
</svg>
