<?xml version="1.0" encoding="UTF-8" standalone="no"?>
<!DOCTYPE svg PUBLIC "-//W3C//DTD SVG 1.1//EN"
 "http://www.w3.org/Graphics/SVG/1.1/DTD/svg11.dtd">
<!-- Generated by graphviz version 2.43.0 (0)
 -->
<!-- Title: lcec_slave Pages: 1 -->
<!--zoomable 275 -->
<svg id="main" version="1.1" xmlns="http://www.w3.org/2000/svg" xmlns:xlink="http://www.w3.org/1999/xlink" xml:space="preserve" onload="init(evt)">
<style type="text/css"><![CDATA[
.edge:hover path { stroke: red; }
.edge:hover polygon { stroke: red; fill: red; }
]]></style>
<script type="text/javascript"><![CDATA[
var edges = document.getElementsByTagName('g');
if (edges && edges.length) {
  for (var i=0;i<edges.length;i++) {
    if (edges[i].id.substr(0,4)=='edge') {
      edges[i].setAttribute('class','edge');
    }
  }
}
]]></script>
        <defs>
                <circle id="rim" cx="0" cy="0" r="7"/>
                <circle id="rim2" cx="0" cy="0" r="3.5"/>
                <g id="zoomPlus">
                        <use xlink:href="#rim" fill="#404040">
                                <set attributeName="fill" to="#808080" begin="zoomplus.mouseover" end="zoomplus.mouseout"/>
                        </use>
                        <path d="M-4,0h8M0,-4v8" fill="none" stroke="white" stroke-width="1.5" pointer-events="none"/>
                </g>
                <g id="zoomMin">
                        <use xlink:href="#rim" fill="#404040">
                                <set attributeName="fill" to="#808080" begin="zoomminus.mouseover" end="zoomminus.mouseout"/>
                        </use>
                        <path d="M-4,0h8" fill="none" stroke="white" stroke-width="1.5" pointer-events="none"/>
                </g>
                <g id="dirArrow">
                        <path fill="none" stroke="white" stroke-width="1.5" d="M0,-3.0v7 M-2.5,-0.5L0,-3.0L2.5,-0.5"/>
                </g>
               <g id="resetDef">
                       <use xlink:href="#rim2" fill="#404040">
                               <set attributeName="fill" to="#808080" begin="reset.mouseover" end="reset.mouseout"/>
                       </use>
               </g>
        </defs>

<script type="text/javascript">
var viewWidth = 729;
var viewHeight = 275;
var sectionId = 'dynsection-0';
</script>
<script xlink:href="svgpan.js"/>
<svg id="graph" class="graph">
<g id="viewport">
<title>lcec_slave</title>
<polygon fill="white" stroke="transparent" points="-4,4 -4,-271 725,-271 725,4 -4,4"/>
<!-- Node1 -->
<g id="node1" class="node">
<title>Node1</title>
<g id="a_node1"><a xlink:title=" ">
<polygon fill="#bfbfbf" stroke="black" points="469.5,-114.5 469.5,-133.5 537.5,-133.5 537.5,-114.5 469.5,-114.5"/>
<text text-anchor="middle" x="503.5" y="-121.5" font-family="Helvetica,sans-Serif" font-size="10.00">lcec_slave</text>
</a>
</g>
</g>
<!-- Node1&#45;&gt;Node1 -->
<g id="edge2" class="edge">
<title>Node1&#45;&gt;Node1</title>
<path fill="none" stroke="#9a32cd" stroke-dasharray="5,2" d="M485.72,-143.4C486.91,-148.31 492.84,-152 503.5,-152 520.56,-152 525.49,-142.57 518.3,-133.76"/>
<polygon fill="#9a32cd" stroke="#9a32cd" points="489.09,-144.34 488.7,-133.76 482.41,-142.28 489.09,-144.34"/>
<text text-anchor="middle" x="503.5" y="-221" font-family="Helvetica,sans-Serif" font-size="10.00"> next</text>
<text text-anchor="middle" x="503.5" y="-210" font-family="Helvetica,sans-Serif" font-size="10.00">prev</text>
<text text-anchor="middle" x="503.5" y="-199" font-family="Helvetica,sans-Serif" font-size="10.00">proc_cleanup</text>
<text text-anchor="middle" x="503.5" y="-188" font-family="Helvetica,sans-Serif" font-size="10.00">proc_init</text>
<text text-anchor="middle" x="503.5" y="-177" font-family="Helvetica,sans-Serif" font-size="10.00">proc_preinit</text>
<text text-anchor="middle" x="503.5" y="-166" font-family="Helvetica,sans-Serif" font-size="10.00">proc_read</text>
<text text-anchor="middle" x="503.5" y="-155" font-family="Helvetica,sans-Serif" font-size="10.00">proc_write</text>
</g>
<!-- Node8 -->
<g id="node8" class="node">
<title>Node8</title>
<g id="a_node8"><a xlink:href="structlcec__master.html" target="_top" xlink:title=" ">
<polygon fill="white" stroke="black" points="645,-148.5 645,-167.5 721,-167.5 721,-148.5 645,-148.5"/>
<text text-anchor="middle" x="683" y="-155.5" font-family="Helvetica,sans-Serif" font-size="10.00">lcec_master</text>
</a>
</g>
</g>
<!-- Node1&#45;&gt;Node8 -->
<g id="edge9" class="edge">
<title>Node1&#45;&gt;Node8</title>
<path fill="none" stroke="#9a32cd" stroke-dasharray="5,2" d="M547.96,-132.33C577.64,-138.01 616.53,-145.46 644.77,-150.87"/>
<polygon fill="#9a32cd" stroke="#9a32cd" points="548.37,-128.84 537.89,-130.4 547.05,-135.71 548.37,-128.84"/>
<text text-anchor="middle" x="600" y="-161" font-family="Helvetica,sans-Serif" font-size="10.00"> first_slave</text>
<text text-anchor="middle" x="600" y="-150" font-family="Helvetica,sans-Serif" font-size="10.00">last_slave</text>
</g>
<!-- Node2 -->
<g id="node2" class="node">
<title>Node2</title>
<g id="a_node2"><a xlink:href="structlcec__slave__state.html" target="_top" xlink:title=" ">
<polygon fill="white" stroke="black" points="223.5,-228.5 223.5,-247.5 321.5,-247.5 321.5,-228.5 223.5,-228.5"/>
<text text-anchor="middle" x="272.5" y="-235.5" font-family="Helvetica,sans-Serif" font-size="10.00">lcec_slave_state</text>
</a>
</g>
</g>
<!-- Node2&#45;&gt;Node1 -->
<g id="edge1" class="edge">
<title>Node2&#45;&gt;Node1</title>
<path fill="none" stroke="#9a32cd" stroke-dasharray="5,2" d="M331.75,-233.27C363.72,-228.61 403.04,-219.36 434,-201 463.09,-183.75 486.56,-150 496.86,-133.52"/>
<polygon fill="#9a32cd" stroke="#9a32cd" points="331.09,-229.82 321.65,-234.63 332.02,-236.76 331.09,-229.82"/>
<text text-anchor="middle" x="396" y="-231" font-family="Helvetica,sans-Serif" font-size="10.00"> hal_state_data</text>
</g>
<!-- Node3 -->
<g id="node3" class="node">
<title>Node3</title>
<g id="a_node3"><a xlink:href="structlcec__slave__watchdog__t.html" target="_top" xlink:title=" ">
<polygon fill="white" stroke="black" points="208,-190.5 208,-209.5 337,-209.5 337,-190.5 208,-190.5"/>
<text text-anchor="middle" x="272.5" y="-197.5" font-family="Helvetica,sans-Serif" font-size="10.00">lcec_slave_watchdog_t</text>
</a>
</g>
</g>
<!-- Node3&#45;&gt;Node1 -->
<g id="edge3" class="edge">
<title>Node3&#45;&gt;Node1</title>
<path fill="none" stroke="#9a32cd" stroke-dasharray="5,2" d="M347.08,-189.15C374.91,-183.71 406.49,-175.89 434,-165 454.62,-156.84 476.22,-142.86 489.52,-133.53"/>
<polygon fill="#9a32cd" stroke="#9a32cd" points="346.2,-185.75 337.02,-191.04 347.49,-192.63 346.2,-185.75"/>
<text text-anchor="middle" x="396" y="-189" font-family="Helvetica,sans-Serif" font-size="10.00"> wd_conf</text>
</g>
<!-- Node4 -->
<g id="node4" class="node">
<title>Node4</title>
<g id="a_node4"><a xlink:href="structlcec__slave__idnconf__t.html" target="_top" xlink:title=" ">
<polygon fill="white" stroke="black" points="213.5,-152.5 213.5,-171.5 331.5,-171.5 331.5,-152.5 213.5,-152.5"/>
<text text-anchor="middle" x="272.5" y="-159.5" font-family="Helvetica,sans-Serif" font-size="10.00">lcec_slave_idnconf_t</text>
</a>
</g>
</g>
<!-- Node4&#45;&gt;Node1 -->
<g id="edge4" class="edge">
<title>Node4&#45;&gt;Node1</title>
<path fill="none" stroke="#9a32cd" stroke-dasharray="5,2" d="M341.89,-153.32C370.44,-149.41 403.9,-144.44 434,-139 445.62,-136.9 458.27,-134.24 469.5,-131.74"/>
<polygon fill="#9a32cd" stroke="#9a32cd" points="341.05,-149.91 331.61,-154.72 341.99,-156.84 341.05,-149.91"/>
<text text-anchor="middle" x="396" y="-153" font-family="Helvetica,sans-Serif" font-size="10.00"> idn_config</text>
</g>
<!-- Node5 -->
<g id="node5" class="node">
<title>Node5</title>
<g id="a_node5"><a xlink:href="structlcec__slave__modparam__t.html" target="_top" xlink:title=" ">
<polygon fill="white" stroke="black" points="205,-114.5 205,-133.5 340,-133.5 340,-114.5 205,-114.5"/>
<text text-anchor="middle" x="272.5" y="-121.5" font-family="Helvetica,sans-Serif" font-size="10.00">lcec_slave_modparam_t</text>
</a>
</g>
</g>
<!-- Node5&#45;&gt;Node1 -->
<g id="edge5" class="edge">
<title>Node5&#45;&gt;Node1</title>
<path fill="none" stroke="#9a32cd" stroke-dasharray="5,2" d="M350.16,-124C390.61,-124 438.16,-124 469.24,-124"/>
<polygon fill="#9a32cd" stroke="#9a32cd" points="350.04,-120.5 340.04,-124 350.04,-127.5 350.04,-120.5"/>
<text text-anchor="middle" x="396" y="-127" font-family="Helvetica,sans-Serif" font-size="10.00"> modparams</text>
</g>
<!-- Node6 -->
<g id="node6" class="node">
<title>Node6</title>
<g id="a_node6"><a xlink:href="unionLCEC__CONF__MODPARAM__VAL__T.html" target="_top" xlink:title=" ">
<polygon fill="white" stroke="black" points="0,-109 0,-139 138,-139 138,-109 0,-109"/>
<text text-anchor="start" x="8" y="-127" font-family="Helvetica,sans-Serif" font-size="10.00">LCEC_CONF_MODPARAM</text>
<text text-anchor="middle" x="69" y="-116" font-family="Helvetica,sans-Serif" font-size="10.00">_VAL_T</text>
</a>
</g>
</g>
<!-- Node6&#45;&gt;Node5 -->
<g id="edge6" class="edge">
<title>Node6&#45;&gt;Node5</title>
<path fill="none" stroke="#9a32cd" stroke-dasharray="5,2" d="M148.42,-124C167.02,-124 186.69,-124 204.72,-124"/>
<polygon fill="#9a32cd" stroke="#9a32cd" points="148.22,-120.5 138.22,-124 148.22,-127.5 148.22,-120.5"/>
<text text-anchor="middle" x="171.5" y="-127" font-family="Helvetica,sans-Serif" font-size="10.00"> value</text>
</g>
<!-- Node7 -->
<g id="node7" class="node">
<title>Node7</title>
<g id="a_node7"><a xlink:href="structlcec__slave__dc__t.html" target="_top" xlink:title=" ">
<polygon fill="white" stroke="black" points="226,-76.5 226,-95.5 319,-95.5 319,-76.5 226,-76.5"/>
<text text-anchor="middle" x="272.5" y="-83.5" font-family="Helvetica,sans-Serif" font-size="10.00">lcec_slave_dc_t</text>
</a>
</g>
</g>
<!-- Node7&#45;&gt;Node1 -->
<g id="edge7" class="edge">
<title>Node7&#45;&gt;Node1</title>
<path fill="none" stroke="#9a32cd" stroke-dasharray="5,2" d="M329.46,-93C360.37,-97.12 399.41,-102.74 434,-109 445.62,-111.1 458.27,-113.76 469.5,-116.26"/>
<polygon fill="#9a32cd" stroke="#9a32cd" points="329.68,-89.49 319.3,-91.66 328.76,-96.43 329.68,-89.49"/>
<text text-anchor="middle" x="396" y="-112" font-family="Helvetica,sans-Serif" font-size="10.00"> dc_conf</text>
</g>
<!-- Node8&#45;&gt;Node1 -->
<g id="edge8" class="edge">
<title>Node8&#45;&gt;Node1</title>
<path fill="none" stroke="#9a32cd" stroke-dasharray="5,2" d="M661.9,-142.39C651.97,-135.65 639.47,-128.51 627,-125 597.62,-116.73 562.69,-117.42 537.66,-119.62"/>
<polygon fill="#9a32cd" stroke="#9a32cd" points="660.05,-145.37 670.21,-148.36 664.13,-139.68 660.05,-145.37"/>
<text text-anchor="middle" x="600" y="-128" font-family="Helvetica,sans-Serif" font-size="10.00"> master</text>
</g>
<!-- Node8&#45;&gt;Node8 -->
<g id="edge11" class="edge">
<title>Node8&#45;&gt;Node8</title>
<path fill="none" stroke="#9a32cd" stroke-dasharray="5,2" d="M667.9,-177.77C669.09,-182.5 674.12,-186 683,-186 697.57,-186 701.79,-176.57 695.64,-167.76"/>
<polygon fill="#9a32cd" stroke="#9a32cd" points="671.37,-178.3 670.36,-167.76 664.57,-176.63 671.37,-178.3"/>
<text text-anchor="middle" x="683" y="-200" font-family="Helvetica,sans-Serif" font-size="10.00"> next</text>
<text text-anchor="middle" x="683" y="-189" font-family="Helvetica,sans-Serif" font-size="10.00">prev</text>
</g>
<!-- Node9 -->
<g id="node9" class="node">
<title>Node9</title>
<g id="a_node9"><a xlink:href="structlcec__master__data.html" target="_top" xlink:title=" ">
<polygon fill="white" stroke="black" points="452,-247.5 452,-266.5 555,-266.5 555,-247.5 452,-247.5"/>
<text text-anchor="middle" x="503.5" y="-254.5" font-family="Helvetica,sans-Serif" font-size="10.00">lcec_master_data</text>
</a>
</g>
</g>
<!-- Node9&#45;&gt;Node8 -->
<g id="edge10" class="edge">
<title>Node9&#45;&gt;Node8</title>
<path fill="none" stroke="#9a32cd" stroke-dasharray="5,2" d="M542.37,-243.71C546.68,-241.92 550.97,-240 555,-238 598.64,-216.32 646.29,-183.63 668.81,-167.58"/>
<polygon fill="#9a32cd" stroke="#9a32cd" points="540.98,-240.5 532.98,-247.44 543.56,-247 540.98,-240.5"/>
<text text-anchor="middle" x="600" y="-231" font-family="Helvetica,sans-Serif" font-size="10.00"> hal_data</text>
</g>
<!-- Node10 -->
<g id="node10" class="node">
<title>Node10</title>
<g id="a_node10"><a xlink:href="structlcec__slave__sdoconf__t.html" target="_top" xlink:title=" ">
<polygon fill="white" stroke="black" points="212.5,-38.5 212.5,-57.5 332.5,-57.5 332.5,-38.5 212.5,-38.5"/>
<text text-anchor="middle" x="272.5" y="-45.5" font-family="Helvetica,sans-Serif" font-size="10.00">lcec_slave_sdoconf_t</text>
</a>
</g>
</g>
<!-- Node10&#45;&gt;Node1 -->
<g id="edge12" class="edge">
<title>Node10&#45;&gt;Node1</title>
<path fill="none" stroke="#9a32cd" stroke-dasharray="5,2" d="M342.79,-58.03C371.63,-63.49 405.06,-71.54 434,-83 454.62,-91.16 476.22,-105.14 489.52,-114.47"/>
<polygon fill="#9a32cd" stroke="#9a32cd" points="343.26,-54.56 332.8,-56.2 342.01,-61.44 343.26,-54.56"/>
<text text-anchor="middle" x="396" y="-86" font-family="Helvetica,sans-Serif" font-size="10.00"> sdo_config</text>
</g>
<!-- Node11 -->
<g id="node11" class="node">
<title>Node11</title>
<g id="a_node11"><a xlink:href="structLCEC__CONF__FSOE__T.html" target="_top" xlink:title=" ">
<polygon fill="white" stroke="black" points="214.5,-0.5 214.5,-19.5 330.5,-19.5 330.5,-0.5 214.5,-0.5"/>
<text text-anchor="middle" x="272.5" y="-7.5" font-family="Helvetica,sans-Serif" font-size="10.00">LCEC_CONF_FSOE_T</text>
</a>
</g>
</g>
<!-- Node11&#45;&gt;Node1 -->
<g id="edge13" class="edge">
<title>Node11&#45;&gt;Node1</title>
<path fill="none" stroke="#9a32cd" stroke-dasharray="5,2" d="M340.54,-16.11C370.73,-21.13 405.82,-30.29 434,-47 463.09,-64.25 486.56,-98 496.86,-114.48"/>
<polygon fill="#9a32cd" stroke="#9a32cd" points="340.93,-12.62 330.51,-14.55 339.86,-19.54 340.93,-12.62"/>
<text text-anchor="middle" x="396" y="-50" font-family="Helvetica,sans-Serif" font-size="10.00"> fsoeConf</text>
</g>
</g>
</svg>
        <g id="navigator" transform="translate(0 0)" fill="#404254">
                <rect fill="#f2f5e9" fill-opacity="0.5" stroke="#606060" stroke-width=".5" x="0" y="0" width="60" height="60"/>
                <use id="zoomplus" xlink:href="#zoomPlus" x="17" y="9" onmousedown="handleZoom(evt,'in')"/>
                <use id="zoomminus" xlink:href="#zoomMin" x="42" y="9" onmousedown="handleZoom(evt,'out')"/>
                <use id="reset" xlink:href="#resetDef" x="30" y="36" onmousedown="handleReset()"/>
                <g id="arrowUp" xlink:href="#dirArrow" transform="translate(30 24)" onmousedown="handlePan(0,-1)">
                  <use xlink:href="#rim" fill="#404040">
                        <set attributeName="fill" to="#808080" begin="arrowUp.mouseover" end="arrowUp.mouseout"/>
                  </use>
                  <path fill="none" stroke="white" stroke-width="1.5" d="M0,-3.0v7 M-2.5,-0.5L0,-3.0L2.5,-0.5"/>
                </g>
                <g id="arrowRight" xlink:href="#dirArrow" transform="rotate(90) translate(36 -43)" onmousedown="handlePan(1,0)">
                  <use xlink:href="#rim" fill="#404040">
                        <set attributeName="fill" to="#808080" begin="arrowRight.mouseover" end="arrowRight.mouseout"/>
                  </use>
                  <path fill="none" stroke="white" stroke-width="1.5" d="M0,-3.0v7 M-2.5,-0.5L0,-3.0L2.5,-0.5"/>
                </g>
                <g id="arrowDown" xlink:href="#dirArrow" transform="rotate(180) translate(-30 -48)" onmousedown="handlePan(0,1)">
                  <use xlink:href="#rim" fill="#404040">
                        <set attributeName="fill" to="#808080" begin="arrowDown.mouseover" end="arrowDown.mouseout"/>
                  </use>
                  <path fill="none" stroke="white" stroke-width="1.5" d="M0,-3.0v7 M-2.5,-0.5L0,-3.0L2.5,-0.5"/>
                </g>
                <g id="arrowLeft" xlink:href="#dirArrow" transform="rotate(270) translate(-36 17)" onmousedown="handlePan(-1,0)">
                  <use xlink:href="#rim" fill="#404040">
                        <set attributeName="fill" to="#808080" begin="arrowLeft.mouseover" end="arrowLeft.mouseout"/>
                  </use>
                  <path fill="none" stroke="white" stroke-width="1.5" d="M0,-3.0v7 M-2.5,-0.5L0,-3.0L2.5,-0.5"/>
                </g>
        </g>
        <svg viewBox="0 0 15 15" width="100%" height="30px" preserveAspectRatio="xMaxYMin meet">
         <g id="arrow_out" transform="scale(0.3 0.3)">
          <a xlink:href="structlcec__slave__coll__graph_org.svg" target="_base">
           <rect id="button" ry="5" rx="5" y="6" x="6" height="38" width="38"
                fill="#f2f5e9" fill-opacity="0.5" stroke="#606060" stroke-width="1.0"/>
           <path id="arrow"
             d="M 11.500037,31.436501 C 11.940474,20.09759 22.043105,11.32322 32.158766,21.979434 L 37.068811,17.246167 C 37.068811,17.246167 37.088388,32 37.088388,32 L 22.160133,31.978069 C 22.160133,31.978069 26.997745,27.140456 26.997745,27.140456 C 18.528582,18.264221 13.291696,25.230495 11.500037,31.436501 z"
             style="fill:#404040;"/>
          </a>
         </g>
        </svg>
</svg>
