<?xml version="1.0" encoding="UTF-8" standalone="no"?>
<!DOCTYPE svg PUBLIC "-//W3C//DTD SVG 1.1//EN"
 "http://www.w3.org/Graphics/SVG/1.1/DTD/svg11.dtd">
<!-- Generated by graphviz version 2.43.0 (0)
 -->
<!-- Title: LCEC_CONF_XML_STATE_T Pages: 1 -->
<!--zoomable 477 -->
<svg id="main" version="1.1" xmlns="http://www.w3.org/2000/svg" xmlns:xlink="http://www.w3.org/1999/xlink" xml:space="preserve" onload="init(evt)">
<style type="text/css"><![CDATA[
.edge:hover path { stroke: red; }
.edge:hover polygon { stroke: red; fill: red; }
]]></style>
<script type="text/javascript"><![CDATA[
var edges = document.getElementsByTagName('g');
if (edges && edges.length) {
  for (var i=0;i<edges.length;i++) {
    if (edges[i].id.substr(0,4)=='edge') {
      edges[i].setAttribute('class','edge');
    }
  }
}
]]></script>
        <defs>
                <circle id="rim" cx="0" cy="0" r="7"/>
                <circle id="rim2" cx="0" cy="0" r="3.5"/>
                <g id="zoomPlus">
                        <use xlink:href="#rim" fill="#404040">
                                <set attributeName="fill" to="#808080" begin="zoomplus.mouseover" end="zoomplus.mouseout"/>
                        </use>
                        <path d="M-4,0h8M0,-4v8" fill="none" stroke="white" stroke-width="1.5" pointer-events="none"/>
                </g>
                <g id="zoomMin">
                        <use xlink:href="#rim" fill="#404040">
                                <set attributeName="fill" to="#808080" begin="zoomminus.mouseover" end="zoomminus.mouseout"/>
                        </use>
                        <path d="M-4,0h8" fill="none" stroke="white" stroke-width="1.5" pointer-events="none"/>
                </g>
                <g id="dirArrow">
                        <path fill="none" stroke="white" stroke-width="1.5" d="M0,-3.0v7 M-2.5,-0.5L0,-3.0L2.5,-0.5"/>
                </g>
               <g id="resetDef">
                       <use xlink:href="#rim2" fill="#404040">
                               <set attributeName="fill" to="#808080" begin="reset.mouseover" end="reset.mouseout"/>
                       </use>
               </g>
        </defs>

<script type="text/javascript">
var viewWidth = 1148;
var viewHeight = 477;
var sectionId = 'dynsection-0';
</script>
<script xlink:href="svgpan.js"/>
<svg id="graph" class="graph">
<g id="viewport">
<title>LCEC_CONF_XML_STATE_T</title>
<polygon fill="white" stroke="transparent" points="-4,4 -4,-473 1144,-473 1144,4 -4,4"/>
<!-- Node1 -->
<g id="node1" class="node">
<title>Node1</title>
<g id="a_node1"><a xlink:title=" ">
<polygon fill="#bfbfbf" stroke="black" points="994,-278.5 994,-297.5 1140,-297.5 1140,-278.5 994,-278.5"/>
<text text-anchor="middle" x="1067" y="-285.5" font-family="Helvetica,sans-Serif" font-size="10.00">LCEC_CONF_XML_STATE_T</text>
</a>
</g>
</g>
<!-- Node2 -->
<g id="node2" class="node">
<title>Node2</title>
<g id="a_node2"><a xlink:href="structLCEC__CONF__SYNCMANAGER__T.html" target="_top" xlink:title=" ">
<polygon fill="white" stroke="black" points="703,-449.5 703,-468.5 870,-468.5 870,-449.5 703,-449.5"/>
<text text-anchor="middle" x="786.5" y="-456.5" font-family="Helvetica,sans-Serif" font-size="10.00">LCEC_CONF_SYNCMANAGER_T</text>
</a>
</g>
</g>
<!-- Node2&#45;&gt;Node1 -->
<g id="edge1" class="edge">
<title>Node2&#45;&gt;Node1</title>
<path fill="none" stroke="#9a32cd" stroke-dasharray="5,2" d="M880.29,-458.29C912.72,-454.31 947.98,-445.44 976,-427 1025.71,-394.28 1053.87,-323.59 1062.83,-297.73"/>
<polygon fill="#9a32cd" stroke="#9a32cd" points="879.89,-454.81 870.32,-459.37 880.64,-461.77 879.89,-454.81"/>
<text text-anchor="middle" x="932" y="-460" font-family="Helvetica,sans-Serif" font-size="10.00"> currSyncManager</text>
</g>
<!-- Node3 -->
<g id="node3" class="node">
<title>Node3</title>
<g id="a_node3"><a xlink:href="structLCEC__CONF__SDOCONF__T.html" target="_top" xlink:title=" ">
<polygon fill="white" stroke="black" points="716.5,-411.5 716.5,-430.5 856.5,-430.5 856.5,-411.5 716.5,-411.5"/>
<text text-anchor="middle" x="786.5" y="-418.5" font-family="Helvetica,sans-Serif" font-size="10.00">LCEC_CONF_SDOCONF_T</text>
</a>
</g>
</g>
<!-- Node3&#45;&gt;Node1 -->
<g id="edge2" class="edge">
<title>Node3&#45;&gt;Node1</title>
<path fill="none" stroke="#9a32cd" stroke-dasharray="5,2" d="M867.09,-416.39C902.22,-411.66 942.94,-402.31 976,-384 1015.17,-362.31 1047.12,-317.56 1059.94,-297.77"/>
<polygon fill="#9a32cd" stroke="#9a32cd" points="866.35,-412.96 856.86,-417.66 867.22,-419.9 866.35,-412.96"/>
<text text-anchor="middle" x="932" y="-415" font-family="Helvetica,sans-Serif" font-size="10.00"> currSdoConf</text>
</g>
<!-- Node4 -->
<g id="node4" class="node">
<title>Node4</title>
<g id="a_node4"><a xlink:href="structLCEC__CONF__PDOENTRY__T.html" target="_top" xlink:title=" ">
<polygon fill="white" stroke="black" points="715,-373.5 715,-392.5 858,-392.5 858,-373.5 715,-373.5"/>
<text text-anchor="middle" x="786.5" y="-380.5" font-family="Helvetica,sans-Serif" font-size="10.00">LCEC_CONF_PDOENTRY_T</text>
</a>
</g>
</g>
<!-- Node4&#45;&gt;Node1 -->
<g id="edge3" class="edge">
<title>Node4&#45;&gt;Node1</title>
<path fill="none" stroke="#9a32cd" stroke-dasharray="5,2" d="M868.13,-373.39C902.23,-367.64 941.88,-358.7 976,-345 1006.21,-332.87 1037.42,-310.48 1053.98,-297.67"/>
<polygon fill="#9a32cd" stroke="#9a32cd" points="867.51,-369.94 858.2,-375 868.63,-376.85 867.51,-369.94"/>
<text text-anchor="middle" x="932" y="-372" font-family="Helvetica,sans-Serif" font-size="10.00"> currPdoEntry</text>
</g>
<!-- Node5 -->
<g id="node5" class="node">
<title>Node5</title>
<g id="a_node5"><a xlink:href="structLCEC__CONF__PDO__T.html" target="_top" xlink:title=" ">
<polygon fill="white" stroke="black" points="730.5,-335.5 730.5,-354.5 842.5,-354.5 842.5,-335.5 730.5,-335.5"/>
<text text-anchor="middle" x="786.5" y="-342.5" font-family="Helvetica,sans-Serif" font-size="10.00">LCEC_CONF_PDO_T</text>
</a>
</g>
</g>
<!-- Node5&#45;&gt;Node1 -->
<g id="edge4" class="edge">
<title>Node5&#45;&gt;Node1</title>
<path fill="none" stroke="#9a32cd" stroke-dasharray="5,2" d="M852.7,-336.22C889.17,-330.82 935.34,-323.18 976,-314 996.31,-309.41 1018.81,-302.91 1036.23,-297.56"/>
<polygon fill="#9a32cd" stroke="#9a32cd" points="852.07,-332.77 842.68,-337.68 853.08,-339.7 852.07,-332.77"/>
<text text-anchor="middle" x="932" y="-333" font-family="Helvetica,sans-Serif" font-size="10.00"> currPdo</text>
</g>
<!-- Node6 -->
<g id="node6" class="node">
<title>Node6</title>
<g id="a_node6"><a xlink:href="structLCEC__CONF__OUTBUF__T.html" target="_top" xlink:title=" ">
<polygon fill="white" stroke="black" points="720.5,-297.5 720.5,-316.5 852.5,-316.5 852.5,-297.5 720.5,-297.5"/>
<text text-anchor="middle" x="786.5" y="-304.5" font-family="Helvetica,sans-Serif" font-size="10.00">LCEC_CONF_OUTBUF_T</text>
</a>
</g>
</g>
<!-- Node6&#45;&gt;Node1 -->
<g id="edge5" class="edge">
<title>Node6&#45;&gt;Node1</title>
<path fill="none" stroke="#9a32cd" stroke-dasharray="5,2" d="M862.93,-301.85C903.62,-299.08 953.58,-295.67 993.77,-292.93"/>
<polygon fill="#9a32cd" stroke="#9a32cd" points="862.53,-298.37 852.8,-302.55 863.01,-305.36 862.53,-298.37"/>
<text text-anchor="middle" x="932" y="-302" font-family="Helvetica,sans-Serif" font-size="10.00"> outputBuf</text>
</g>
<!-- Node7 -->
<g id="node7" class="node">
<title>Node7</title>
<g id="a_node7"><a xlink:href="structLCEC__CONF__OUTBUF__ITEM.html" target="_top" xlink:title=" ">
<polygon fill="white" stroke="black" points="453.5,-297.5 453.5,-316.5 603.5,-316.5 603.5,-297.5 453.5,-297.5"/>
<text text-anchor="middle" x="528.5" y="-304.5" font-family="Helvetica,sans-Serif" font-size="10.00">LCEC_CONF_OUTBUF_ITEM</text>
</a>
</g>
</g>
<!-- Node7&#45;&gt;Node6 -->
<g id="edge6" class="edge">
<title>Node7&#45;&gt;Node6</title>
<path fill="none" stroke="#9a32cd" stroke-dasharray="5,2" d="M613.66,-307C648.34,-307 687.91,-307 720.33,-307"/>
<polygon fill="#9a32cd" stroke="#9a32cd" points="613.55,-303.5 603.55,-307 613.55,-310.5 613.55,-303.5"/>
<text text-anchor="middle" x="654" y="-321" font-family="Helvetica,sans-Serif" font-size="10.00"> head</text>
<text text-anchor="middle" x="654" y="-310" font-family="Helvetica,sans-Serif" font-size="10.00">tail</text>
</g>
<!-- Node7&#45;&gt;Node7 -->
<g id="edge7" class="edge">
<title>Node7&#45;&gt;Node7</title>
<path fill="none" stroke="#9a32cd" stroke-dasharray="5,2" d="M505.43,-326.03C506.69,-331.13 514.38,-335 528.5,-335 550.54,-335 556.91,-325.57 547.61,-316.76"/>
<polygon fill="#9a32cd" stroke="#9a32cd" points="508.69,-327.33 509.39,-316.76 502.25,-324.58 508.69,-327.33"/>
<text text-anchor="middle" x="528.5" y="-338" font-family="Helvetica,sans-Serif" font-size="10.00"> next</text>
</g>
<!-- Node8 -->
<g id="node8" class="node">
<title>Node8</title>
<g id="a_node8"><a xlink:href="structLCEC__CONF__MASTER__T.html" target="_top" xlink:title=" ">
<polygon fill="white" stroke="black" points="721,-259.5 721,-278.5 852,-278.5 852,-259.5 721,-259.5"/>
<text text-anchor="middle" x="786.5" y="-266.5" font-family="Helvetica,sans-Serif" font-size="10.00">LCEC_CONF_MASTER_T</text>
</a>
</g>
</g>
<!-- Node8&#45;&gt;Node1 -->
<g id="edge8" class="edge">
<title>Node8&#45;&gt;Node1</title>
<path fill="none" stroke="#9a32cd" stroke-dasharray="5,2" d="M862.15,-272.16C896.8,-273.83 938.53,-276.13 976,-279 981.79,-279.44 987.79,-279.95 993.82,-280.48"/>
<polygon fill="#9a32cd" stroke="#9a32cd" points="862.26,-268.66 852.11,-271.68 861.93,-275.65 862.26,-268.66"/>
<text text-anchor="middle" x="932" y="-282" font-family="Helvetica,sans-Serif" font-size="10.00"> currMaster</text>
</g>
<!-- Node9 -->
<g id="node9" class="node">
<title>Node9</title>
<g id="a_node9"><a xlink:href="structLCEC__CONF__SLAVE__T.html" target="_top" xlink:title=" ">
<polygon fill="white" stroke="black" points="725.5,-221.5 725.5,-240.5 847.5,-240.5 847.5,-221.5 725.5,-221.5"/>
<text text-anchor="middle" x="786.5" y="-228.5" font-family="Helvetica,sans-Serif" font-size="10.00">LCEC_CONF_SLAVE_T</text>
</a>
</g>
</g>
<!-- Node9&#45;&gt;Node1 -->
<g id="edge9" class="edge">
<title>Node9&#45;&gt;Node1</title>
<path fill="none" stroke="#9a32cd" stroke-dasharray="5,2" d="M858.17,-238.07C893.79,-242.41 937.49,-248.9 976,-258 998.44,-263.3 1023.25,-271.78 1041.13,-278.37"/>
<polygon fill="#9a32cd" stroke="#9a32cd" points="858.21,-234.56 847.87,-236.85 857.38,-241.51 858.21,-234.56"/>
<text text-anchor="middle" x="932" y="-261" font-family="Helvetica,sans-Serif" font-size="10.00"> currSlave</text>
</g>
<!-- Node10 -->
<g id="node10" class="node">
<title>Node10</title>
<g id="a_node10"><a xlink:href="structlcec__typelist__t.html" target="_top" xlink:title=" ">
<polygon fill="white" stroke="black" points="743,-102.5 743,-121.5 830,-121.5 830,-102.5 743,-102.5"/>
<text text-anchor="middle" x="786.5" y="-109.5" font-family="Helvetica,sans-Serif" font-size="10.00">lcec_typelist_t</text>
</a>
</g>
</g>
<!-- Node10&#45;&gt;Node1 -->
<g id="edge10" class="edge">
<title>Node10&#45;&gt;Node1</title>
<path fill="none" stroke="#9a32cd" stroke-dasharray="5,2" d="M839.96,-122.56C850.2,-125.57 860.65,-129.33 870,-134 950.91,-174.42 1030.35,-251.49 1056.79,-278.42"/>
<polygon fill="#9a32cd" stroke="#9a32cd" points="840.82,-119.17 830.25,-119.91 838.97,-125.92 840.82,-119.17"/>
<text text-anchor="middle" x="932" y="-204" font-family="Helvetica,sans-Serif" font-size="10.00"> currSlaveType</text>
</g>
<!-- Node11 -->
<g id="node11" class="node">
<title>Node11</title>
<g id="a_node11"><a xlink:href="structlcec__slave.html" target="_top" xlink:title=" ">
<polygon fill="white" stroke="black" points="494.5,-114.5 494.5,-133.5 562.5,-133.5 562.5,-114.5 494.5,-114.5"/>
<text text-anchor="middle" x="528.5" y="-121.5" font-family="Helvetica,sans-Serif" font-size="10.00">lcec_slave</text>
</a>
</g>
</g>
<!-- Node11&#45;&gt;Node10 -->
<g id="edge11" class="edge">
<title>Node11&#45;&gt;Node10</title>
<path fill="none" stroke="#9a32cd" stroke-dasharray="5,2" d="M572.71,-116.72C588.49,-114.4 606.5,-112.14 623,-111 663.53,-108.2 709.88,-108.86 742.68,-109.98"/>
<polygon fill="#9a32cd" stroke="#9a32cd" points="572.06,-113.28 562.7,-118.25 573.12,-120.2 572.06,-113.28"/>
<text text-anchor="middle" x="654" y="-125" font-family="Helvetica,sans-Serif" font-size="10.00"> proc_init</text>
<text text-anchor="middle" x="654" y="-114" font-family="Helvetica,sans-Serif" font-size="10.00">proc_preinit</text>
</g>
<!-- Node11&#45;&gt;Node11 -->
<g id="edge13" class="edge">
<title>Node11&#45;&gt;Node11</title>
<path fill="none" stroke="#9a32cd" stroke-dasharray="5,2" d="M505.43,-143.03C506.69,-148.13 514.38,-152 528.5,-152 550.54,-152 556.91,-142.57 547.61,-133.76"/>
<polygon fill="#9a32cd" stroke="#9a32cd" points="508.69,-144.33 509.39,-133.76 502.25,-141.58 508.69,-144.33"/>
<text text-anchor="middle" x="528.5" y="-221" font-family="Helvetica,sans-Serif" font-size="10.00"> next</text>
<text text-anchor="middle" x="528.5" y="-210" font-family="Helvetica,sans-Serif" font-size="10.00">prev</text>
<text text-anchor="middle" x="528.5" y="-199" font-family="Helvetica,sans-Serif" font-size="10.00">proc_cleanup</text>
<text text-anchor="middle" x="528.5" y="-188" font-family="Helvetica,sans-Serif" font-size="10.00">proc_init</text>
<text text-anchor="middle" x="528.5" y="-177" font-family="Helvetica,sans-Serif" font-size="10.00">proc_preinit</text>
<text text-anchor="middle" x="528.5" y="-166" font-family="Helvetica,sans-Serif" font-size="10.00">proc_read</text>
<text text-anchor="middle" x="528.5" y="-155" font-family="Helvetica,sans-Serif" font-size="10.00">proc_write</text>
</g>
<!-- Node18 -->
<g id="node18" class="node">
<title>Node18</title>
<g id="a_node18"><a xlink:href="structlcec__master.html" target="_top" xlink:title=" ">
<polygon fill="white" stroke="black" points="748.5,-143.5 748.5,-162.5 824.5,-162.5 824.5,-143.5 748.5,-143.5"/>
<text text-anchor="middle" x="786.5" y="-150.5" font-family="Helvetica,sans-Serif" font-size="10.00">lcec_master</text>
</a>
</g>
</g>
<!-- Node11&#45;&gt;Node18 -->
<g id="edge20" class="edge">
<title>Node11&#45;&gt;Node18</title>
<path fill="none" stroke="#9a32cd" stroke-dasharray="5,2" d="M560.25,-137.4C578.18,-144.47 601.44,-152.41 623,-156 665.59,-163.09 715.31,-160.63 748.43,-157.51"/>
<polygon fill="#9a32cd" stroke="#9a32cd" points="561.47,-134.11 550.89,-133.59 558.83,-140.6 561.47,-134.11"/>
<text text-anchor="middle" x="654" y="-174" font-family="Helvetica,sans-Serif" font-size="10.00"> first_slave</text>
<text text-anchor="middle" x="654" y="-163" font-family="Helvetica,sans-Serif" font-size="10.00">last_slave</text>
</g>
<!-- Node12 -->
<g id="node12" class="node">
<title>Node12</title>
<g id="a_node12"><a xlink:href="structlcec__slave__state.html" target="_top" xlink:title=" ">
<polygon fill="white" stroke="black" points="223.5,-228.5 223.5,-247.5 321.5,-247.5 321.5,-228.5 223.5,-228.5"/>
<text text-anchor="middle" x="272.5" y="-235.5" font-family="Helvetica,sans-Serif" font-size="10.00">lcec_slave_state</text>
</a>
</g>
</g>
<!-- Node12&#45;&gt;Node11 -->
<g id="edge12" class="edge">
<title>Node12&#45;&gt;Node11</title>
<path fill="none" stroke="#9a32cd" stroke-dasharray="5,2" d="M331.62,-229.67C363.06,-223.67 401.91,-213.78 434,-198 468.74,-180.92 502.62,-149.31 518.36,-133.51"/>
<polygon fill="#9a32cd" stroke="#9a32cd" points="330.9,-226.24 321.7,-231.48 332.16,-233.13 330.9,-226.24"/>
<text text-anchor="middle" x="396" y="-226" font-family="Helvetica,sans-Serif" font-size="10.00"> hal_state_data</text>
</g>
<!-- Node13 -->
<g id="node13" class="node">
<title>Node13</title>
<g id="a_node13"><a xlink:href="structlcec__slave__watchdog__t.html" target="_top" xlink:title=" ">
<polygon fill="white" stroke="black" points="208,-190.5 208,-209.5 337,-209.5 337,-190.5 208,-190.5"/>
<text text-anchor="middle" x="272.5" y="-197.5" font-family="Helvetica,sans-Serif" font-size="10.00">lcec_slave_watchdog_t</text>
</a>
</g>
</g>
<!-- Node13&#45;&gt;Node11 -->
<g id="edge14" class="edge">
<title>Node13&#45;&gt;Node11</title>
<path fill="none" stroke="#9a32cd" stroke-dasharray="5,2" d="M337.15,-188.53C366.91,-182.45 402.63,-174.13 434,-164 460.21,-155.53 489.2,-142.53 507.84,-133.67"/>
<polygon fill="#9a32cd" stroke="#9a32cd" points="336.41,-185.1 327.29,-190.5 337.79,-191.97 336.41,-185.1"/>
<text text-anchor="middle" x="396" y="-186" font-family="Helvetica,sans-Serif" font-size="10.00"> wd_conf</text>
</g>
<!-- Node14 -->
<g id="node14" class="node">
<title>Node14</title>
<g id="a_node14"><a xlink:href="structlcec__slave__idnconf__t.html" target="_top" xlink:title=" ">
<polygon fill="white" stroke="black" points="213.5,-152.5 213.5,-171.5 331.5,-171.5 331.5,-152.5 213.5,-152.5"/>
<text text-anchor="middle" x="272.5" y="-159.5" font-family="Helvetica,sans-Serif" font-size="10.00">lcec_slave_idnconf_t</text>
</a>
</g>
</g>
<!-- Node14&#45;&gt;Node11 -->
<g id="edge15" class="edge">
<title>Node14&#45;&gt;Node11</title>
<path fill="none" stroke="#9a32cd" stroke-dasharray="5,2" d="M342.1,-152.43C370.55,-148.39 403.88,-143.57 434,-139 453.99,-135.96 476.36,-132.38 494.2,-129.48"/>
<polygon fill="#9a32cd" stroke="#9a32cd" points="341.27,-149.01 331.86,-153.88 342.25,-155.94 341.27,-149.01"/>
<text text-anchor="middle" x="396" y="-152" font-family="Helvetica,sans-Serif" font-size="10.00"> idn_config</text>
</g>
<!-- Node15 -->
<g id="node15" class="node">
<title>Node15</title>
<g id="a_node15"><a xlink:href="structlcec__slave__modparam__t.html" target="_top" xlink:title=" ">
<polygon fill="white" stroke="black" points="205,-114.5 205,-133.5 340,-133.5 340,-114.5 205,-114.5"/>
<text text-anchor="middle" x="272.5" y="-121.5" font-family="Helvetica,sans-Serif" font-size="10.00">lcec_slave_modparam_t</text>
</a>
</g>
</g>
<!-- Node15&#45;&gt;Node11 -->
<g id="edge16" class="edge">
<title>Node15&#45;&gt;Node11</title>
<path fill="none" stroke="#9a32cd" stroke-dasharray="5,2" d="M350.3,-124C398.35,-124 457.81,-124 494.18,-124"/>
<polygon fill="#9a32cd" stroke="#9a32cd" points="350.24,-120.5 340.24,-124 350.24,-127.5 350.24,-120.5"/>
<text text-anchor="middle" x="396" y="-127" font-family="Helvetica,sans-Serif" font-size="10.00"> modparams</text>
</g>
<!-- Node16 -->
<g id="node16" class="node">
<title>Node16</title>
<g id="a_node16"><a xlink:href="unionLCEC__CONF__MODPARAM__VAL__T.html" target="_top" xlink:title=" ">
<polygon fill="white" stroke="black" points="0,-109 0,-139 138,-139 138,-109 0,-109"/>
<text text-anchor="start" x="8" y="-127" font-family="Helvetica,sans-Serif" font-size="10.00">LCEC_CONF_MODPARAM</text>
<text text-anchor="middle" x="69" y="-116" font-family="Helvetica,sans-Serif" font-size="10.00">_VAL_T</text>
</a>
</g>
</g>
<!-- Node16&#45;&gt;Node15 -->
<g id="edge17" class="edge">
<title>Node16&#45;&gt;Node15</title>
<path fill="none" stroke="#9a32cd" stroke-dasharray="5,2" d="M148.42,-124C167.02,-124 186.69,-124 204.72,-124"/>
<polygon fill="#9a32cd" stroke="#9a32cd" points="148.22,-120.5 138.22,-124 148.22,-127.5 148.22,-120.5"/>
<text text-anchor="middle" x="171.5" y="-127" font-family="Helvetica,sans-Serif" font-size="10.00"> value</text>
</g>
<!-- Node17 -->
<g id="node17" class="node">
<title>Node17</title>
<g id="a_node17"><a xlink:href="structlcec__slave__dc__t.html" target="_top" xlink:title=" ">
<polygon fill="white" stroke="black" points="226,-76.5 226,-95.5 319,-95.5 319,-76.5 226,-76.5"/>
<text text-anchor="middle" x="272.5" y="-83.5" font-family="Helvetica,sans-Serif" font-size="10.00">lcec_slave_dc_t</text>
</a>
</g>
</g>
<!-- Node17&#45;&gt;Node11 -->
<g id="edge18" class="edge">
<title>Node17&#45;&gt;Node11</title>
<path fill="none" stroke="#9a32cd" stroke-dasharray="5,2" d="M329.33,-93.77C360.2,-98.12 399.24,-103.72 434,-109 453.99,-112.04 476.36,-115.62 494.2,-118.52"/>
<polygon fill="#9a32cd" stroke="#9a32cd" points="329.58,-90.27 319.19,-92.34 328.6,-97.2 329.58,-90.27"/>
<text text-anchor="middle" x="396" y="-112" font-family="Helvetica,sans-Serif" font-size="10.00"> dc_conf</text>
</g>
<!-- Node18&#45;&gt;Node11 -->
<g id="edge19" class="edge">
<title>Node18&#45;&gt;Node11</title>
<path fill="none" stroke="#9a32cd" stroke-dasharray="5,2" d="M738.1,-147.63C687.12,-141.86 607.38,-132.82 562.71,-127.76"/>
<polygon fill="#9a32cd" stroke="#9a32cd" points="737.87,-151.13 748.2,-148.77 738.66,-144.17 737.87,-151.13"/>
<text text-anchor="middle" x="654" y="-144" font-family="Helvetica,sans-Serif" font-size="10.00"> master</text>
</g>
<!-- Node18&#45;&gt;Node18 -->
<g id="edge22" class="edge">
<title>Node18&#45;&gt;Node18</title>
<path fill="none" stroke="#9a32cd" stroke-dasharray="5,2" d="M761.95,-172.03C763.29,-177.13 771.47,-181 786.5,-181 809.96,-181 816.74,-171.57 806.85,-162.76"/>
<polygon fill="#9a32cd" stroke="#9a32cd" points="765.21,-173.31 766.15,-162.76 758.83,-170.42 765.21,-173.31"/>
<text text-anchor="middle" x="786.5" y="-195" font-family="Helvetica,sans-Serif" font-size="10.00"> next</text>
<text text-anchor="middle" x="786.5" y="-184" font-family="Helvetica,sans-Serif" font-size="10.00">prev</text>
</g>
<!-- Node19 -->
<g id="node19" class="node">
<title>Node19</title>
<g id="a_node19"><a xlink:href="structlcec__master__data.html" target="_top" xlink:title=" ">
<polygon fill="white" stroke="black" points="477,-247.5 477,-266.5 580,-266.5 580,-247.5 477,-247.5"/>
<text text-anchor="middle" x="528.5" y="-254.5" font-family="Helvetica,sans-Serif" font-size="10.00">lcec_master_data</text>
</a>
</g>
</g>
<!-- Node19&#45;&gt;Node18 -->
<g id="edge21" class="edge">
<title>Node19&#45;&gt;Node18</title>
<path fill="none" stroke="#9a32cd" stroke-dasharray="5,2" d="M583.38,-244.8C590.71,-242.75 598.09,-240.47 605,-238 666.97,-215.85 736.38,-179.76 768.05,-162.62"/>
<polygon fill="#9a32cd" stroke="#9a32cd" points="582.2,-241.5 573.45,-247.47 584.01,-248.26 582.2,-241.5"/>
<text text-anchor="middle" x="654" y="-233" font-family="Helvetica,sans-Serif" font-size="10.00"> hal_data</text>
</g>
<!-- Node20 -->
<g id="node20" class="node">
<title>Node20</title>
<g id="a_node20"><a xlink:href="structlcec__slave__sdoconf__t.html" target="_top" xlink:title=" ">
<polygon fill="white" stroke="black" points="212.5,-38.5 212.5,-57.5 332.5,-57.5 332.5,-38.5 212.5,-38.5"/>
<text text-anchor="middle" x="272.5" y="-45.5" font-family="Helvetica,sans-Serif" font-size="10.00">lcec_slave_sdoconf_t</text>
</a>
</g>
</g>
<!-- Node20&#45;&gt;Node11 -->
<g id="edge23" class="edge">
<title>Node20&#45;&gt;Node11</title>
<path fill="none" stroke="#9a32cd" stroke-dasharray="5,2" d="M342.72,-57.27C371.68,-62.62 405.23,-70.79 434,-83 442.85,-86.76 443.46,-90.58 452,-95 466.72,-102.61 483.91,-109.37 498.16,-114.44"/>
<polygon fill="#9a32cd" stroke="#9a32cd" points="343.14,-53.79 332.68,-55.49 341.92,-60.68 343.14,-53.79"/>
<text text-anchor="middle" x="396" y="-86" font-family="Helvetica,sans-Serif" font-size="10.00"> sdo_config</text>
</g>
<!-- Node21 -->
<g id="node21" class="node">
<title>Node21</title>
<g id="a_node21"><a xlink:href="structLCEC__CONF__FSOE__T.html" target="_top" xlink:title=" ">
<polygon fill="white" stroke="black" points="214.5,-0.5 214.5,-19.5 330.5,-19.5 330.5,-0.5 214.5,-0.5"/>
<text text-anchor="middle" x="272.5" y="-7.5" font-family="Helvetica,sans-Serif" font-size="10.00">LCEC_CONF_FSOE_T</text>
</a>
</g>
</g>
<!-- Node21&#45;&gt;Node11 -->
<g id="edge24" class="edge">
<title>Node21&#45;&gt;Node11</title>
<path fill="none" stroke="#9a32cd" stroke-dasharray="5,2" d="M340.91,-10.18C372.5,-13.61 408.65,-22.77 434,-45 451.76,-60.57 435.48,-78.12 452,-95 463.3,-106.54 479.68,-113.56 494.3,-117.8"/>
<polygon fill="#9a32cd" stroke="#9a32cd" points="341.12,-6.69 330.84,-9.27 340.48,-13.66 341.12,-6.69"/>
<text text-anchor="middle" x="396" y="-48" font-family="Helvetica,sans-Serif" font-size="10.00"> fsoeConf</text>
</g>
<!-- Node22 -->
<g id="node22" class="node">
<title>Node22</title>
<g id="a_node22"><a xlink:href="structlcec__modparam__desc__t.html" target="_top" xlink:title=" ">
<polygon fill="white" stroke="black" points="463,-66.5 463,-85.5 594,-85.5 594,-66.5 463,-66.5"/>
<text text-anchor="middle" x="528.5" y="-73.5" font-family="Helvetica,sans-Serif" font-size="10.00">lcec_modparam_desc_t</text>
</a>
</g>
</g>
<!-- Node22&#45;&gt;Node10 -->
<g id="edge25" class="edge">
<title>Node22&#45;&gt;Node10</title>
<path fill="none" stroke="#9a32cd" stroke-dasharray="5,2" d="M604.33,-83.71C629.95,-86.6 658.77,-90.14 685,-94 703.94,-96.79 724.79,-100.43 742.56,-103.7"/>
<polygon fill="#9a32cd" stroke="#9a32cd" points="604.63,-80.22 594.3,-82.59 603.85,-87.18 604.63,-80.22"/>
<text text-anchor="middle" x="654" y="-97" font-family="Helvetica,sans-Serif" font-size="10.00"> modparams</text>
</g>
<!-- Node23 -->
<g id="node23" class="node">
<title>Node23</title>
<g id="a_node23"><a xlink:href="structLCEC__CONF__XML__INST.html" target="_top" xlink:title=" ">
<polygon fill="white" stroke="black" points="722.5,-64.5 722.5,-83.5 850.5,-83.5 850.5,-64.5 722.5,-64.5"/>
<text text-anchor="middle" x="786.5" y="-71.5" font-family="Helvetica,sans-Serif" font-size="10.00">LCEC_CONF_XML_INST</text>
</a>
</g>
</g>
<!-- Node23&#45;&gt;Node1 -->
<g id="edge26" class="edge">
<title>Node23&#45;&gt;Node1</title>
<path fill="none" stroke="#9a32cd" stroke-dasharray="5,2" d="M860.73,-82.22C898.65,-89.68 943.64,-103.9 976,-131 1026.34,-173.16 1054.47,-251.13 1063.1,-278.33"/>
<polygon fill="#9a32cd" stroke="#9a32cd" points="861.22,-78.75 850.75,-80.38 859.95,-85.63 861.22,-78.75"/>
<text text-anchor="middle" x="932" y="-134" font-family="Helvetica,sans-Serif" font-size="10.00"> xml</text>
</g>
<!-- Node24 -->
<g id="node24" class="node">
<title>Node24</title>
<g id="a_node24"><a xlink:href="structLCEC__CONF__XML__HANLDER.html" target="_top" xlink:title=" ">
<polygon fill="white" stroke="black" points="452,-28.5 452,-47.5 605,-47.5 605,-28.5 452,-28.5"/>
<text text-anchor="middle" x="528.5" y="-35.5" font-family="Helvetica,sans-Serif" font-size="10.00">LCEC_CONF_XML_HANLDER</text>
</a>
</g>
</g>
<!-- Node24&#45;&gt;Node23 -->
<g id="edge27" class="edge">
<title>Node24&#45;&gt;Node23</title>
<path fill="none" stroke="#9a32cd" stroke-dasharray="5,2" d="M607.3,-48.94C644.15,-54.12 687.6,-60.23 722.37,-65.12"/>
<polygon fill="#9a32cd" stroke="#9a32cd" points="607.49,-45.43 597.1,-47.51 606.51,-52.36 607.49,-45.43"/>
<text text-anchor="middle" x="654" y="-62" font-family="Helvetica,sans-Serif" font-size="10.00"> states</text>
</g>
<!-- Node25 -->
<g id="node25" class="node">
<title>Node25</title>
<g id="a_node25"><a xlink:href="structLCEC__CONF__IDNCONF__T.html" target="_top" xlink:title=" ">
<polygon fill="white" stroke="black" points="718,-26.5 718,-45.5 855,-45.5 855,-26.5 718,-26.5"/>
<text text-anchor="middle" x="786.5" y="-33.5" font-family="Helvetica,sans-Serif" font-size="10.00">LCEC_CONF_IDNCONF_T</text>
</a>
</g>
</g>
<!-- Node25&#45;&gt;Node1 -->
<g id="edge28" class="edge">
<title>Node25&#45;&gt;Node1</title>
<path fill="none" stroke="#9a32cd" stroke-dasharray="5,2" d="M865.42,-35.4C902.49,-38.89 945.3,-48.88 976,-74 1043.69,-129.39 1061.29,-244.64 1065.08,-278.47"/>
<polygon fill="#9a32cd" stroke="#9a32cd" points="865.38,-31.89 855.13,-34.58 864.82,-38.86 865.38,-31.89"/>
<text text-anchor="middle" x="932" y="-77" font-family="Helvetica,sans-Serif" font-size="10.00"> currIdnConf</text>
</g>
</g>
</svg>
        <g id="navigator" transform="translate(0 0)" fill="#404254">
                <rect fill="#f2f5e9" fill-opacity="0.5" stroke="#606060" stroke-width=".5" x="0" y="0" width="60" height="60"/>
                <use id="zoomplus" xlink:href="#zoomPlus" x="17" y="9" onmousedown="handleZoom(evt,'in')"/>
                <use id="zoomminus" xlink:href="#zoomMin" x="42" y="9" onmousedown="handleZoom(evt,'out')"/>
                <use id="reset" xlink:href="#resetDef" x="30" y="36" onmousedown="handleReset()"/>
                <g id="arrowUp" xlink:href="#dirArrow" transform="translate(30 24)" onmousedown="handlePan(0,-1)">
                  <use xlink:href="#rim" fill="#404040">
                        <set attributeName="fill" to="#808080" begin="arrowUp.mouseover" end="arrowUp.mouseout"/>
                  </use>
                  <path fill="none" stroke="white" stroke-width="1.5" d="M0,-3.0v7 M-2.5,-0.5L0,-3.0L2.5,-0.5"/>
                </g>
                <g id="arrowRight" xlink:href="#dirArrow" transform="rotate(90) translate(36 -43)" onmousedown="handlePan(1,0)">
                  <use xlink:href="#rim" fill="#404040">
                        <set attributeName="fill" to="#808080" begin="arrowRight.mouseover" end="arrowRight.mouseout"/>
                  </use>
                  <path fill="none" stroke="white" stroke-width="1.5" d="M0,-3.0v7 M-2.5,-0.5L0,-3.0L2.5,-0.5"/>
                </g>
                <g id="arrowDown" xlink:href="#dirArrow" transform="rotate(180) translate(-30 -48)" onmousedown="handlePan(0,1)">
                  <use xlink:href="#rim" fill="#404040">
                        <set attributeName="fill" to="#808080" begin="arrowDown.mouseover" end="arrowDown.mouseout"/>
                  </use>
                  <path fill="none" stroke="white" stroke-width="1.5" d="M0,-3.0v7 M-2.5,-0.5L0,-3.0L2.5,-0.5"/>
                </g>
                <g id="arrowLeft" xlink:href="#dirArrow" transform="rotate(270) translate(-36 17)" onmousedown="handlePan(-1,0)">
                  <use xlink:href="#rim" fill="#404040">
                        <set attributeName="fill" to="#808080" begin="arrowLeft.mouseover" end="arrowLeft.mouseout"/>
                  </use>
                  <path fill="none" stroke="white" stroke-width="1.5" d="M0,-3.0v7 M-2.5,-0.5L0,-3.0L2.5,-0.5"/>
                </g>
        </g>
        <svg viewBox="0 0 15 15" width="100%" height="30px" preserveAspectRatio="xMaxYMin meet">
         <g id="arrow_out" transform="scale(0.3 0.3)">
          <a xlink:href="structLCEC__CONF__XML__STATE__T__coll__graph_org.svg" target="_base">
           <rect id="button" ry="5" rx="5" y="6" x="6" height="38" width="38"
                fill="#f2f5e9" fill-opacity="0.5" stroke="#606060" stroke-width="1.0"/>
           <path id="arrow"
             d="M 11.500037,31.436501 C 11.940474,20.09759 22.043105,11.32322 32.158766,21.979434 L 37.068811,17.246167 C 37.068811,17.246167 37.088388,32 37.088388,32 L 22.160133,31.978069 C 22.160133,31.978069 26.997745,27.140456 26.997745,27.140456 C 18.528582,18.264221 13.291696,25.230495 11.500037,31.436501 z"
             style="fill:#404040;"/>
          </a>
         </g>
        </svg>
</svg>
